<mxfile host="65bd71144e">
    <diagram id="PORpQk3jToMDbOKJpELC" name="Page-1">
        <mxGraphModel dx="1642" dy="925" grid="1" gridSize="10" guides="1" tooltips="1" connect="1" arrows="1" fold="1" page="1" pageScale="1" pageWidth="1100" pageHeight="850" math="0" shadow="0">
            <root>
                <mxCell id="0"/>
                <mxCell id="1" parent="0"/>
                <mxCell id="156" value="s1=abc&amp;nbsp; &amp;nbsp; s2=cac&amp;nbsp;&lt;br&gt;LCS=ac (2)" style="text;html=1;align=center;verticalAlign=middle;resizable=0;points=[];autosize=1;strokeColor=none;fillColor=none;" parent="1" vertex="1">
                    <mxGeometry x="40" width="120" height="40" as="geometry"/>
                </mxCell>
                <mxCell id="159" value="" style="shape=stencil(lVjJchoxEP0arl2trSWdHec/XGUcqBBwYZzl7yOFaECtmTfFbRj6qbfXi2bjnj52L+/bjeWPy/n0fftr/3rZbdyXjbX742573l/K08Y9b9zT2+m8/XY+fR5fr7/fX6pkffpx+llP+H3FMblYQZb/tBfG/nvx9Sp+2B/vxA3Z3IlbCnFZ3FJMnXgg45bFAznTiSdKwJjcDmvixpEIMN6T7wHVWwCo7vYG2UjJA0AmZzuAE4pmGeASOe4AXigAk3yk2PsQhFwAMY1kQgeQAKMkQuw7QPTEQEN0lHtSJEMOaEhMsdeQIjHgRZKWpgbIplFlnhlMtide9i3Q8wBHtq+DLNCkXLjaO52LD0iDUBINMAkAIuX0ECDrsBadHgOS1YCAwloAWQMEa8hBA/6TZREwOO2ABsPcwn6HQDVaVSgnUutqiwDRAFTUFaBMyq2mFuPqNcCCkqupFg1wqFVmkjxowCaJHXzAGkLUUVrhRvBDHkDbqIC+9dVMo5IrgKABqFdWwMDvjE2SoeQEDMSauLHksA9xMGmtqIdOJitsdRqQsA856rAiLs3XKOLGHCKRWanqgX5hpTVZDcgrRTrUnH0sdatF+iBgGBF3gVucQuExRGglc2cU3MrKKB0CCxtyGdZDXRtgUl0HFDk8GUDxsnBIT45UfADTva40vQ/JtzVqfmkKekbEKdJLaxn3qZNEHi9+0uchZGhSWS1VHnyGa5mdJsK0vJZ+CDJd1mO1gDteW8Bdr8E6TL62g01sFWhRaAU5yRuK4Hyr23eCc9oQ9/UZyANrWG+txVkQHdastrANczvsJi7AVdahtG3jXRJXkaQMKmxGHOWpiBsljpo76xsJt0a5JK7vtGhiTjfemziaZtyW8Js4w9Otth0xnvUVmOHW9eD1fVW8PNy+FLztD4frh4b7//WXhfLq+lXCPf8F);lineShape=1;" parent="1" vertex="1">
                    <mxGeometry x="74.46696517737892" y="17.286616853325544" width="2.962634792986522" height="0.49076742152738506" as="geometry"/>
                </mxCell>
                <mxCell id="160" value="" style="shape=stencil(lZbdUttADIWfxrdnpNX+XlN4D2YIjYc0YUKg5e3R1mOIlkSd3vnv88pHR8c7yc3L9v55MwV6OR0PT5vf88NpO8mPKYR5v90c55MeTXI7yc3j4bj5eTy87h+W8+f7/mQ/+nV462/4s3CNUEKnAr0vV2JCan+v3C3Abt6fAxmlGCAJWnWAhsoGyIKaXSCJAUoEeyUltGyAqis4QG2IFmiMFh1AVbIltYLE14FCyFYlJgLRdSITJNolGtiRKRGq7ZzqQE4jooBtI2oFO4BUkAVK84EMsrrmBhIHKGMjUkV1VIphXCGqW5zO6W1pFggITklaQK4G0CKzs0KuaMkCGSE53lARrZlU6OB8dG+TXUFbGfyBoGFG6V8zykPjCLFcB87c/OkNWoPh8hI6MBbQofJa3UdysGtbX3FZJh36YUg1GJySeqzYkr6i53KrBeXbjFYnBjQa6wBofHozmhCHoVZZHTN1QP4HkDima09Dx0whrm7+BBKyE0yc1rQ+i43ofHRBtW4tDHHaEMYwzrym7cXn1ar2AxKvKXLteWuLSODg1ZNsYgRfUc0TWz831xQcR4GYkZweBxmBBHEmRz0x/Bm0AY6garpBofHfpgdfO47HebdbNizn98cdil5adjdy+wE=);lineShape=1;" parent="1" vertex="1">
                    <mxGeometry x="77.49063117188057" y="17.725339866028403" width="0.034828569809382655" height="0.03493541221058539" as="geometry"/>
                </mxCell>
                <mxCell id="161" value="" style="shape=stencil(7VhJctswEHwNr1PYl7Pj/MNVliNVFMkly1l+n0EYUMKAbEq55OKbTHcTs/Qs4GAf3rZPr5vBqLfz6fh182P3fN4O9tNgzO6w3Zx2Z/412MfBPrwcT5svp+P74Xn8+/WpIMuvb8fv5Q0/R54mEwvJqF/jg0DB/nnweYTvd4cruCIbBNwlBDdWvh3CtTTGY7gRcJMRXKUG7ik5CHcCbjBcN3BHHgZSqQZuKfo74IYyhmsB/xvZ21zV5MIdgVSUIFykSZFTd4hg4t8mMbYOwpOScGAMx81LY4CrjoK03QABJwpZBhLYrl3V9yVPGQie/+1bZ7GELceirW6tKCJCptCGRyfyKD65vm8SZqoNaJbgc63RqU4y9CFksq1JHvsQo0xCMLV65pPGSW6jFA1FUOq5U3TSZEHesiclCBmKOifSbUVmQwmENecqtIngqlYWCUkSIogSE3Jbl+yVBrVQCFESkA9adU0xB4rAiTlGJI8ywUYJtxM50HgLoZUfP1lzW0nCSmBFRVyMXCLE2BFAkRaCkYSA1RS6E1DPLgQrw2pXThAmceJwlCQh1CeLBBFWTxFLQ/SNInB8guh9XEJoGyqZVpKwVqShO2GlSLs2gCbKRTlXTq+ENWeZBwdMmq9RtNbNHJHgtjPjRILbVCG06xQ/QWNuJhFTpBe1ISa7wovJPzCS3GVK0SEvfB061/pDcuJB15Z1CnVsLI7S9oSY6jq3OKxbH0KEa3ZZB9oTfFhdOMQe72AfcFO7njYUSwmoyXbNj9dGNCLKWia2LFxDZX1vpxbvcWhElMWyJURKIKrd3spzF7y+24pXzJc6DSs3KdEl8RLwcSUF8I8r6X+5kopvKsxHE1J+sVH1trAAt9IYdINluAykAxLjrMi3J6D3KYlXWcXwts+wZiDc36PIDm7hRbEzBg/DzlW/klURSF/b2m1p4j4DXbWy6aFOcOdHwVU4/7h8f3zZ7ffj58vr/8vvlfxo/NZpH38D);lineShape=1;" parent="1" vertex="1">
                    <mxGeometry x="86.79450653620196" y="17.094539419793165" width="3.6070612151408588" height="0.25163455586777966" as="geometry"/>
                </mxCell>
                <mxCell id="163" value="" style="shape=stencil(lZfJctswDIafRlcMV4A8p+l7ZCZOralrZxx3e/tSVSWLkPWzusnyBwg7wc4/fRxf3g+dMx+36+Xr4Wf/ejt2/lPnXH8+Hq79rTx1/rnzT2+X6+HL9fL9/Dr+fn8ZyOHp2+XHoOHXKGfImUHImd/ji8zk4t83n0f+1J8XvCUTNe/tNu8ohxUP9DNZpT+S9dt8Jptr3lNmYL+naGuB4pIBAnmKxySQImXksdDw30JAhAQIeJ4sngRYKLttgSDah8jQpJjISiUQInEAWUgU6rT5QC5tCxQXc11HzpMFX0iJUi1gLVnwhVI3tnbak4Ag5Uyp5g3M88Cz5lHh5SlHd941eK0/In8LX1d2qVMQUGtm/+4CEXTC+gOOLA5QFsW3HPCK/6dgMwFJJdg1EuwUjyZR4UX26Re3z35O++LDUfEm7+Gb+WVWfKOgua6HUqDYX/GKbzSAaP0Ne1LQfKM+jeItOGkGPio+NPik+ATi87AhPSiIhwLoHFhb5Cg0RlBQfGp4XNtTZjquOJWx0pGNkbuLXy0HQgbEZzhjav02UGicYqolGUZ0OCfVzBLY9OUkdvWpFNL0zc2zvjaJDRxbxQBVRGLhRjfsK/WcSPOSt7kR1U6n8gZ1Qtm56kmRA3k06nSQskCep7Kc+US8aymdK/0/l965kx7yq6V60dobAnrrzbAqjN6F7sN1gzei+Qjqep7MC95i/VYnoGGP0Ty6Fax5gQlb2yMUwORa+1u6CPMqngyX0XW+uGGPrgeGk3HvLa7Nl4f7lfGtP53GG+fyf33FLK/G66l//gM=);lineShape=1;" parent="1" vertex="1">
                    <mxGeometry x="133.88596646533713" y="17.330943312965527" width="3.9361494109905686" height="0.41808871498774236" as="geometry"/>
                </mxCell>
                <mxCell id="164" value="" style="shape=stencil(rZfbbtswDIafxreEqLOuu+49CjRdjGVJkabb+valZjizqPj3AgzIhWN/lMQzNbiHt/3T626w5u1yPn3f/RqfL/vBfRmsHY/73Xm8yNPgHgf38HI6776dT+/H5+n/61Ml69OP08+6wu9JzpBI1J/5mF4UT5z+vPk68Yfx2PDZt3yg4Nd5Rya3fCQH1k8UouZzXOeZqXAnADbgRMVoDVxZF7CBvNqBKQSgsliwtVGWJcCRvKOQGoGUKJl1geDItgIxkwdWipZyq3RIlIEOiSmFRsBH8hYIFO04MUMEgSE2Ke0OVuwG/FAMlTZUOVBCAoFs67hMnAGfdS6I1RjwZf4884YMMFHlk+bx+kWvz8DJlY+K98ADlc+Kz4BnI+dto4jJgTC9KQA91p3Ikt3QQMUQxQ2LGsWjWlE9ptcvKIKKTjPh8flTVHwCWVl5HaEoKYWPRfEGOKznpdLdtT6T2dC3Pb/Z8peqQmYufP9ofwlAnDFZr79hn9KtvxHPXvHuzoxEfeBmgvG9KRwdPpGOIN6wkI7osMF3NRfzqobaecP/w0sPaD0gPQZ5LOhOLAMJo5SRLqYEMtwhx7lJXDVI0MfSiWPrYpfmN2u9XmWNL3AiqtOEawQi7hwyr7h2B9nTg0InE5HSIeNMqDNXG3c5w8CrU12rgwy+yEp1blRjIJ65bkymBcZeN/ousnVttk56gwA2EBMmrQEKPaPn2JLgHGvm0rDgUbm7FucFz6AdCK9cJqM+yDWjM0d45LGuNgpvoL6aDxTx+qx5i/kuRDPIy96engIYV67Na8Fjf3F3HjSxm/kmueRBs7n/LrrFy8Pfi+/LeDhM9+bld31RllfTJds9fgI=);lineShape=1;" parent="1" vertex="1">
                    <mxGeometry x="139.74168005348716" y="17.089611443577077" width="4.390720772335951" height="0.46351780918043495" as="geometry"/>
                </mxCell>
                <mxCell id="166" value="s1=abc&amp;nbsp; s2=cac" style="text;html=1;align=center;verticalAlign=middle;resizable=0;points=[];autosize=1;strokeColor=none;fillColor=none;" parent="1" vertex="1">
                    <mxGeometry x="50" y="40" width="110" height="30" as="geometry"/>
                </mxCell>
                <mxCell id="167" value="" style="shape=stencil(rVjLctswDPwaXTEkwOc5Tf8jM3FqT9044zh9/H3BqkpEMF05M73JEtYkQOxipUlunvd3T7uJ3fPlfPq6+3G4v+wn+TQxHx73u/PholeT3E5y83A6776cTy+P9/Pvp7sW2a6+nb63f/g547xz5FyDsfs133KU5M+NzzPgeHhcAWolDl18oJRAfKFUu/hKocJ47uO9EOMFTAJe76AMMuV+BRbKDgL+VuQVUKniFSJ3AEmUCgQEU1ShEiBA+hyiJ4fKqoB+hVjIZwzwHSAFKgwAsjxeANlRBYBSqMQekEgQ4LURFkDRFUCVspa1z6EEyuAcsrfnUDJV0BopUuiTro5CBABnV6hMAZxDTOT6HGogRoBI2awQIUN1Be7PoXEc5BC1iGwBiNPR2XNQQPb/Bmj352wBBSQtcdnAClABgBOFntMrJXwX4ZXUaVgClKlamWk5gPaWpZdX8UiJVafHUwAJOPLFxnvQF0zJnEGBfM6W/xqfQbyP5J0FRMDOJtNhAICMhRcRvRIQ/ELeK7cUykKtddLg0KIM3Clwlig7bZUqFG7lfxzoHADZIpMXC0hAVoMKxrAl2NmFZKAzok7zCD1gi53a3WFIAgmA5/eSQHW1JqBpGNKLYTJoUqCVBh/25rT+S3wY4rVRgGjrdDadHciDM/NpkGAmwXS2guowoFIcpjNySW0q9JLX5j8gm/Jf+iI1h4EGVbJVUg/DaBR6OxUyXkHpzH3fbfiwBuhz2HB6CvB9DhteMg7CveFWFeB6Lmz4YXUYtTcMG467WZI+hw1PrwCjkhtvDQow5nPjvUSV3hIImySxhhu/WKlsGzbgFzf9f9NIDupR66Nk4gUdsk5Kb+IZNHZiywQ1KCg+23qqAiLzL9Z04gmSqx2DOF6lJNn9o/0UHRfxA/mq3Dq7H1RPfWHjMl1/XjouxNYH9cOHvxRcAdCLtw8TD4fjcf6usX5uP2TorfkjiNz+Bg==);lineShape=1;" parent="1" vertex="1">
                    <mxGeometry x="99.76187593867382" y="60.63054769415538" width="0.18210292853333673" height="6.776146692158214" as="geometry"/>
                </mxCell>
                <mxCell id="168" value="" style="shape=stencil(lVfLctswDPwaXTEkwRfOafofmYlTe+rGGcd9/X2hamgbsLVtbraEhQhgsQAnfnjfPr1tphTeT8fD183P3fNpO/GnKaXd63Zz3J3018SPEz+8HI6bL8fD99fn5f/b02w5//p2+DF7+LXgpFBIMyqF38uTWCnJ3yefF8B+93oFaJVqMYAUKfd1QI3EwQA4UmjrgBKpsAUIJV4H6OueDSALZRBD6sTRAPSQHRwpduo2Sy1TKACQqFQD6AWmtVC2Seoyntz/QCGxMfdEoYKYG3GzISRicKIcqdkklU4RlEFfN1u3HCiCL4gmvVvujazdt2cK1j5QQf4zleTsEfGkUsjeHhRZ2iD+1XkysNcEBRcvoqkIFVuyRA3bi9gCECdsb/OjpAKcU3tPIWLQ+RqvJzVV5L9RtIzTHgCEU+2qydk3dJ58678i/8kTupMg/5FqdPmB+QzUbb0qFWxfXYMNEVj1b0WIcb2iF61Igvol+VEQoIpq/t2s+Yc+FD8ItB8xf278M6pvH68v8SKBm/lv7RP2L6P8l/x3pOnhHN+lIWHBxBOukkQsQLaBOxysH7WvhbolRFaFAAzVOR0t49SFAMni7Adxx9tHupkZylq4rlB1Mylg1t3UTCe3gKmR/e7Rwxg791mhqmKLUDsFUIV5ilpA0d0D0IJ5yM65bBESNZexOZyJHWDMRXdKW2dtnQwAjX3QmoaEtC56LdWYkVbwSMmVluLZUbLzH5C9toLbnsYysrZ7uH3unLI1ret+FkP7TsW2pg5nbO92A4GUkPNovCoYFHfVFvuBy868Bog2gshDDNZS5DotZjyPNeXuC4UaIt1HL0//AdAfl7vay26/X6561+/93U4fLfdCfvwD);lineShape=1;" parent="1" vertex="1">
                    <mxGeometry x="98.67064636595117" y="60.752445057934736" width="0.9398623646607572" height="0.901185141011282" as="geometry"/>
                </mxCell>
                <mxCell id="169" value="" style="shape=stencil(lVfZctswDPwavWJIgOdzmv5HZuLUmrp2xnGvvy9UjWQTrLb2mw4sSCwWIDjI08f+5X03sPu4nE9fdz/H18t+kE8D83jc787jRZ8GeR7k6e103n05n74fX+f395fJcnr6dvoxefg145g4TyB2v+cPjiL//fB5Nj+Mxxtz7yhEY+/ctr3+zqWxj9A/Z6rS2HtPKW8DJJFPLaCSr9uAECm0K3ChkrYBMZJrKQqOvN8GpLD4W2NmErBCFqq1AagLASsUWTawAHKiWrYBtVLgBlAT3JICireAGpAwViGsiEwJBKFL1JamWmDUCsjOAioOgluxTjwAbai/1AFKBACVa6uNGx62EKbgJh5ARSjvKVhAEgjwYgEeBRGpdLxGkGsFpFavGhWkqV8hL2V7bwwJb6lnKZFDK/R5iJRBo+lTfaXhXjEpDSiGXq6JGGmpL4hEGa9gSy6TgL7xr6ou5HCnsY2jUEba6FtTJUH6Lra9TjygFcrC4m3J4VTHxwBpSey9W9LEloeCfhSQK8W2RqcvoLtmtxTYegjhjp88hRYwnZRAGtFTbos6MDy19De3WhIPtyRi24bONxGwxGHpvWv/jrBX+mLnnwoPOZ2XpCUpUAZtiRdv13EJ1SeTE2uOdk/BDCbkgXdHNZq9F2geTXopgKJxxC31AmtMG1Ew5gEQ3/UtpgKEoBOdNWdAZJdVlTbcjDkvPTGapRYJXmdsxLu33h2cDx6c+P9rrg/Xy8XbeDjMd5Pb//Yyop/mi4w8/wE=);lineShape=1;" parent="1" vertex="1">
                    <mxGeometry x="99.76940177548303" y="60.18116674511808" width="1.780292986289252" height="1.783872559174663" as="geometry"/>
                </mxCell>
                <mxCell id="170" value="" style="shape=stencil(lVjLctswDPwaXzEkCL7OafofmYlTe+rGGcfp4+8LVaUtgso6uckylgSBBbDUJty97h5etht2r+fT8fv21/7xvNuELxvm/fNue9qf9WkT7jfh7ul42n47Hd+eH+ffLw+T5fT04/hzWuH3jEuJCk8odn/mN46y+/fi62x/2D8v7KMjrp29UI7v2wuT95299+TD+4BQyLsekChkAAhU+h2YKScA8FT7IwdHHpxBAa70gEKMdnCUeoAkihUCpI9qFEoCAaEHJCb2GCA9oFDBZwh9WLNQRHnQqPeHzpUEZ9okrgQS4JIGMcQeoOwFYdUgxj7TpTYnVwEaxJo6QFX+AkDmRoQLQBpZVgElNiJcAJEKiJJ3jlxfELW2GlxF6N//87QARFDTNduaVkBCO2ieBpcKqKBSLJkUUEGqC1PsU72Iw3omEuUwbAH4mj2JDIdA5MhDrmvbcx2gNTycOoKqToHykLmAdyjDoT3DM5jOVAtV4JIS3AULyIAbOQ/cUADoTFr0HC0AsU/JZItUdwBnULpWsQBEVy2IFG1YHQjrRAS2AMaAOgBQs1SPeWBrQgBpR1zSG3UBZyf15CTYoWh3HQGIGqV5/FFAsFrgGrd1epfW6JYlCnZIkcIASICtWqJlyIOAsH4aELUeTJQSVEziBi4JlieBnEkct/68ClCNJ31f0jmKBq9KNjaDN8FmrMww9qGN7nWPKPYxmrQGqGjXyveDYsbZCN1QS8OMviHHhvVv6D21N6pbBSWYVSrejMTFilUp1DeLG5KY2xxbam40qEh6fyZRj1o2lZ5w3kNZ5TPFfiYIjM9YAq4xat1e7BXgIsDX7RO5bOxhSV7odbVH8ddrlelbyhAsnb313wF+Ttc86z9SX0pfI80dHJhRb3nD+kh7eTtrND7gvCqMhvUZrZ9GPggaA9rOBv4gfz55zb5trw/XO/3T/nCYPwks/7ffAPTV/P0g3P8F);lineShape=1;" parent="1" vertex="1">
                    <mxGeometry x="146.20624153191852" y="60.36642621152443" width="0.252990714810192" height="7.002107121161802" as="geometry"/>
                </mxCell>
                <mxCell id="171" value="" style="shape=stencil(7VnbTltBDPyavFp7t/eZ0v9AgpaolFRAb39fb6MNx95kWh4r9S0ET87aHo/tPbt89Xx/8+Vul8Lzy9Ph0933/e3L/S6/26W0f7y/e9q/6Kddvt7lqw+Hp7uPT4evj7fHv7/cDMvx6fPh2/iFH0dcrSQyUCn8PH6TEnX+/c37I+Bh/7gBlE7dAQr1CACFCluAkHQACFSqAeQEAblSKxbA1DMABMrNAPSQqV4GpEoxGUCN1BMABAr2CS1QA4BYKVgfWicpABAo2bBypwScblSsC8Lzm/NBIrFZ6JmqAJdJsrUXaiimVO35Oz5/otS8fWsgQNSDt0cpi1Tt+WPQJAYEiNU/ANE0kCwHqtC+LvYRBChMCm8SUAGD1DtbyJ1nCi/ZB28fgFKofbT2jRIgUKDo7CtVkDD1t1v7AiumULYJ1gJASsee0BImpc7zIVGxDOVIBSQ4MrEtSRUJBh5oTQYLUDUuCKBPsDnLQhnkIGvVWB9UrCN4gmqv2CNFIQbtIHdiSztVsoz7R7Q+nBJ53l6fb4VFgwp0qOYpI6/2qOxrp2DrDHenVnwOBNMuTJk9BYin0pwHNGJbCJp2xDtJs2FvWIFyJuqyLQVtfxmwYkiz7WZcYdKGdLpu1mAWhph3D5A/AGxYmechLx7J+SCwYb7K+aYjB1Bso+FVD6goSjo4NQ9gDPCShJumAsLiA0wce/JplBg5zUuUZBbURYBVGE0cGhQGYOFSQdTgKRAbtqLRZUQpe0DAYc3O6UINRUmWsJbp1SUuxQUAqdHncLDxASn9qIfoAYyc7lPnNnlA9N4MXJtU5z88wgG0XeEwtYV9gms0L2M2JJMswnR65iXAKhuMdEYoxeVIyGn2O5463XGNvg2gk5RbRnSvDMAHiX6aLwnuR8q1ZFVARxW0juj6FN3aGSH7mq43Nqwxz859fhAQTw2ZE+ylQcMNJnVO+Jc27RadvaBBqVIRdx7EoxI98WKBSdOtmpe7ggjKM2fqbjGP1ABTU59zyIYWAfg87h6sDxplNODGU8M8zdwFjm+xLN2kwjVJx1nXQqXCcaxRc3tVnpvN/0X7CPi/aP9Li3aY9NrYR1RifqrVfYPRBaFfLiRDYdTsLONdQYQ+SchJIyq8T9SVt9gT1YbvyrJ3oTCkqAqju0/UPbqBmsnFH0nFGI2o+nvZsm5cgKDrlOzbx/AKpa0vhd/hFqkzRHEdWecM1JGrH+TH6gwqR9PktFoBGT2h+UFeASgPCnC3CxGvOwqQBdDQWMFeLjSsCWR6AKoHdHQk9uuOljjqCOpDt8Oa1jjaIhXAxQNQxY36cmxNcDlXQFoAjKjx1hcjfwHQD6/vYT7sHx6Or3G2//fvbfSr4zuffP0L);lineShape=1;" parent="1" vertex="1">
                    <mxGeometry x="144.7003845586362" y="60.46249112215557" width="3.091200239652212" height="1.4882186569803806" as="geometry"/>
                </mxCell>
                <mxCell id="172" value="" style="shape=stencil(lZfbchoxDIafhluNLR9kXafpe2QmpDClIUPo6e2rLV3A8vKn3MGuP6+Ov+VVenjfPL2tVxzej4f91/XP7fNxs0qfVszb1836sD3ar1V6XKWHl/1h/eWw//76fPr/9jStnH592/+Ydvh14qJSbRPF4fe/J5TD3wefT+t329er9SmQln59oAiAzMQOaJQzAJSydABnCJRGgTsgRWr1NlCFkvaAUtPbgBSS/gtZSOU20JhiH9VSKQEfmpD0JtVMJd4GNFJNHSBMAfigmST0gM5hWAZkjvoMtDpnZhGIIVDoP6GNIkiEKpXiAQFhmvbrbbItGH2hkAYPVOCEJgrNA5pA5uy1a6BLHJaJShr9J1oDQKaoHiggdVP5sQdiAUAYTGpUQfkZ4GTDgIDCZLJSe0DmJ8tAotjLgFbcc8V3hAHQh0aleSDjnpM4ACDTY88ZUFD1CTEPTjPsoJCGsCKTdN7vClDco20ojQJqaWrhobyhMlWvrhdduBXWIB5Agm+JcyfEhz0qC7qhSMALhUGZBFUfL3idEBCJB3VtyAfr0ewBBsV0N2AnSOv127QNOS3iM2dbVJBqSXPPXx1zqEfFppG++uwgRYmz17nPgx3VDShZkXm/8zBgWgmiNA40+Rzo5RlL/TCQGCqZDWWtLw0uxACwiSq4ocyKD/gQbYrrdcbGPqTGgZKzCBb3MDngCS4QD0Mr2D1S7I0324EgWYWpWw7zS+yXo1BWX2/nil1uSpLiliPhinGeuP5zfaIS7jAnFq8RASY22nHk7UelbJeD5sOjYDa69/7y8Xr7cbksvWx3u9Nd6/q9v1zZo9PFLD3+AQ==);lineShape=1;" parent="1" vertex="1">
                    <mxGeometry x="99.68133692385697" y="70.83111008667142" width="0.43589196316116535" height="2.3299718405244065" as="geometry"/>
                </mxCell>
                <mxCell id="173" value="" style="shape=stencil(lZbdUttADIWfxrdnpNX+XlN4D2YIjYc0YUKg5e3R1mOIlkSd3vnv88pHR8c7yc3L9v55MwV6OR0PT5vf88NpO8mPKYR5v90c55MeTXI7yc3j4bj5eTy87h+W8+f7/mQ/+nV462/4s3CNUEKnAr0vV2JCan+v3C3Abt6fAxmlGCAJWnWAhsoGyIKaXSCJAUoEeyUltGyAqis4QG2IFmiMFh1AVbIltYLE14FCyFYlJgLRdSITJNolGtiRKRGq7ZzqQE4jooBtI2oFO4BUkAVK84EMsrrmBhIHKGMjUkV1VIphXCGqW5zO6W1pFggITklaQK4G0CKzs0KuaMkCGSE53lARrZlU6OB8dG+TXUFbGfyBoGFG6V8zykPjCLFcB87c/OkNWoPh8hI6MBbQofJa3UdysGtbX3FZJh36YUg1GJySeqzYkr6i53KrBeXbjFYnBjQa6wBofHozmhCHoVZZHTN1QP4HkDima09Dx0whrm7+BBKyE0yc1rQ+i43ofHRBtW4tDHHaEMYwzrym7cXn1ar2AxKvKXLteWuLSODg1ZNsYgRfUc0TWz831xQcR4GYkZweBxmBBHEmRz0x/Bm0AY6garpBofHfpgdfO47HebdbNizn98cdil5adjdy+wE=);lineShape=1;" parent="1" vertex="1">
                    <mxGeometry x="99.37429264852787" y="69.11614997667468" width="0.19195593436930403" height="0.19254479096219237" as="geometry"/>
                </mxCell>
                <mxCell id="174" value="" style="shape=stencil(lVfLctswDPwaXTEgwec5Tf8jM3FqT1074zh9/H3hatiIoLWOb7K8KwLgLghO8vC2fXrdTJ7fzqfj982v3fN5O8mXyfvdYbs57c76NMnjJA8vx9Pm2+n4fnief78+XZCXpx/Hn5cv/J55oVAsF5bnP/MbRy79e/F1xu93hwU+BvKxw2eKeR2fPAXz/Uw5rhMyk+sX8JWCA4RIHDqC5LbmVUJxFPoVQiYBIZVMxXeEqEkDQhUKfUgpkwMh1ULcr6BZlbBOcMzE3DGKkPdgCa2iIVRyAgiJYp+EpiUoCUfe9YREGW9E6kPSOlSQtWqDpSdUKkB9uk+hD2lRuKuMIJSTXSKCMkWqBq9rAgNJC3iB9yAFT1xsUVHKTDlbvICEefh+pATyHfGBKtDdGI92ELDHY75CCYhorKf6AOB1v6LFMxIpOWfxDuTruP29tE0FBDdUSHMC3cV5KtWWFEnOaQBGo7E12TWCzUHbEVrBX7F+BKrTKmXj5Nxa4Mo2mBZccc9OTTRLWwLbhKHZ5Va0FZmmu+LXUzUMBQKnGpOXe3ZgOA5ubDE3xXxWQ3ZMuCFSGeLHLoitKXzSZtmeZjdsfC8+aPmqLSjq0/G/HheEjA6zRDwQIrKAKsyYzEOTVW4SWxz5DESnJ7jrW5EOFXCUquR7GWlWApIuwfpSJ6MMjptc7XQXCxR2Vmf2nUKnu4om1ESul4boNIYIznZHUfehmVms+FyB86OKz4yDBW6DDEXyLafreO2mvTv1DALKU3z1Bi8Ir7LozcPt1F3Dm+8zJaDTwG2u/MALEFFwVJzBo9E3eDvUMWzuIbQ70wKPhszYTLLAo2aUKIjBoxnqcp/JBh9A89VLoLEAU0Hx33lpvI3Xh48b6stuv58vuMv/7Y1WX823YXn8Cw==);lineShape=1;" parent="1" vertex="1">
                    <mxGeometry x="146.30424650724348" y="69.77599431130841" width="0.8675324516755658" height="2.638110496017768" as="geometry"/>
                </mxCell>
                <mxCell id="175" value="" style="shape=stencil(lZbdUttADIWfxrdnpNX+XlN4D2YIjYc0YUKg5e3R1mOIlkSd3vnv88pHR8c7yc3L9v55MwV6OR0PT5vf88NpO8mPKYR5v90c55MeTXI7yc3j4bj5eTy87h+W8+f7/mQ/+nV462/4s3CNUEKnAr0vV2JCan+v3C3Abt6fAxmlGCAJWnWAhsoGyIKaXSCJAUoEeyUltGyAqis4QG2IFmiMFh1AVbIltYLE14FCyFYlJgLRdSITJNolGtiRKRGq7ZzqQE4jooBtI2oFO4BUkAVK84EMsrrmBhIHKGMjUkV1VIphXCGqW5zO6W1pFggITklaQK4G0CKzs0KuaMkCGSE53lARrZlU6OB8dG+TXUFbGfyBoGFG6V8zykPjCLFcB87c/OkNWoPh8hI6MBbQofJa3UdysGtbX3FZJh36YUg1GJySeqzYkr6i53KrBeXbjFYnBjQa6wBofHozmhCHoVZZHTN1QP4HkDima09Dx0whrm7+BBKyE0yc1rQ+i43ofHRBtW4tDHHaEMYwzrym7cXn1ar2AxKvKXLteWuLSODg1ZNsYgRfUc0TWz831xQcR4GYkZweBxmBBHEmRz0x/Bm0AY6garpBofHfpgdfO47HebdbNizn98cdil5adjdy+wE=);lineShape=1;" parent="1" vertex="1">
                    <mxGeometry x="146.1578004833919" y="68.58851735799624" width="0.19195593436930403" height="0.19254479096219237" as="geometry"/>
                </mxCell>
                <mxCell id="176" value="" style="shape=stencil(nVjbchoxDP2afdXYli/yc5r+R2ZCClMKGUJvf1+5zMJaJoeQt2XRsXV0OZZ34oe39dPragru7XjYf1/93jwf1xN/mULY7Narw+aoTxM/Tvzwsj+svh32P3fPp9+vT82yPf3Y/2or/DnhfKZYGiq4v6c3jlL+/+LryX672fX2wXX2kVKC9s539pUqsk8kvT8+UowAIOSlAygDDxiEQCX2gEzVA0C1IeJIDDiwEHMfo0CuvA+IysEEtVKW9wFJKPQupUIOkM5Cud8hM1UQ1lLJ9YDiZievAkQdSD0gwcqogaRPnDgKgHTNlHrSonlAAA1rn2l1UjBATLE6EhDWqlGqPYCxS5WC2SHBHbxzNhG6RkRxrZTEAnKArLlYQLmRiMEl1EE1kk8DAO3gLYdFHK6XX7Xl17YAgZVMEi1AQJNKmmVlGSYGgGilsqUG7RDnHl4AuEJAGUgHkGoZ1LtVMHJJhca4JDCs2jDFDwCQOG2YUO8CJKvft1wqQ1dj0i2IQx5QWOv5TPtg4lqpDS6h0mjKdFfxKWlfLQCVt/ZoHVQAhjXM5/IdPSrjFkAGVK5TuEdotEfzkAgkZdpBkS0g46a28wyW488Askk1PiIUkExD4EOoCZOJkoPnojClvpg0MzAPOu/0YRU8xRU9g3rSOgwwKNcSLOlyzv31CSjaQ0sHmgA4pEGNdQkHOESeZ7bFUIYmUWY7WOrYVwDpwPNBvhgsPZqmtZaG0TUC0iqV/QZtNkYUyPfF3YZvIHzOFtKN6d5RNL0Abw/OCje+nAyjFb776OrRmEcgFW4esC/mDNTxfEW4mKNI8uzqwhysnoi9MXfA9zJSRcquxyPfYe69nQexNz7MavMxsq2obGJRLPXSac4ZnKp2CbZ8USV84pJ9w14fLjf6l812e/ogsPzffgHQV6evB/z4Dw==);lineShape=1;" parent="1" vertex="1">
                    <mxGeometry x="109.00320429044433" y="76.89924495232572" width="0.524768446021249" height="7.605121190105667" as="geometry"/>
                </mxCell>
                <mxCell id="177" value="" style="shape=stencil(lZfbbtswDIafxrcERYqSeN1171Gg6RIsa4o0O7396BlKIyZm0DvX5WeR/HlQJn543z69bSbC99Px8H3ze/d82k78ZSLavW43x93JniZ+nPjh5XDcfDsefr4+L3+/Pc2W89OPw6/5C38WrkCVGSL8u7xIQOX/i6+L+X73emFOBFxHewXCdYAFkAeACYquA5lBRiAnSLIOCAOnAZAEhdaBwoBjzCUBtnWgWtA6AtrTcBNoCfJ4Qq1AvA5oBRnT2hRSEIM2KCOgCCkFgEJuI5BAcgjoqIMyUBD0DJQRkHsuiXOpQItOaNBoBBpwUK2W1upcsjREOhQQ8oBGLgnQNRAJlwHRAxQUnxJo80GnKAbq37tIq0QxpB7iGchQgxa1E9CdQF37NUDGBrIzw1piyKNw1g8ajBnzuKAHMAIE2hhDs5YKxozVUqoeCF2y2mTvUo1KwwpBfJYwBhp7HUqQ1oR4VX0ZJApC/X6wYuIYSOM0tsTdSVPKviHC+i6gV0CLlJMu7HlnfeRhrZrcwJ9nVXTEZwHbB25DtNLVv720mu+I2sLpKuqltqUlAZCtnEeX7BMauMTqx0A2IYIxwAjFAfHiTbUnsQNUe8nfBvxGSRjGjH3fnGULuwGBnWhAwZy0IhslK32lrpmPgskd35NLZlgP6Ack9WW6kkm31xLUIDPUB1U3x1An8i2MYfGzv4rE7ZtvmAcy2SZQZy7R9fFzN+a75vbwcTl/2e33y93+8v/+Mm+vlh8C/PgP);lineShape=1;" parent="1" vertex="1">
                    <mxGeometry x="108.81991640401529" y="83.83867582521756" width="1.2161379694230823" height="0.860391292735047" as="geometry"/>
                </mxCell>
                <mxCell id="178" value="" style="shape=stencil(lVbLctswDPwaXTEg+MQ5Tf8jM3FqTV074zh9/H2hqpqakLSd3Gh5lwQWC5BDfHg7Pr0eBuG32/Xy9fBjfL4dh/hpEBnPx8N1vNlqiI9DfHi5XA9frpf38/P8+/VpQk6rb5fv0w4/Z54qtTqxhH/NXzKl/OfD5xl/Gs/3+EASOrxESmWfUDNpf0ASEt4nlEAqHaEwxbhPEKbUn6CViuwTQqOce0KjGgAhU+uTNtkyIgjl5AmagKzEdYUHqmaqZRUQwAtpW2Xc9vFMql5SpBATxx5foI2Ygss3UwD4QKn3hEZS4IlIxekvEF8oq8cLrJfX01yL4rcmif6AvyXfJhQq7AkFWU4XAe8kSgrbxps6LaptE6wIjpChqNMJKxcJakwlcYRGEavUnEq2BfC11aGsGq2BpAMvES+EwGZ2NL+oiT+hQqu26PHQGRvDi0GdLYFVazbY+uwkzZQh3hc5UQRF/ig+MdWekC1hEFBOJP1wjFYBoGip/sYxkRVIanea9C6yaQR6sxYK7oCl6Nt4u7/6mgVqYLpUy8+ZlBiYuomP365QhM8+foaWa20DD1rGhierwwewv022lh2+AD3N8ZKcPshy1lGh119wPOonY8RzjldNhnvgw6+0/+Jt8e9J+DKeTvOL8v5//4S0T/PzMz7+Bg==);lineShape=1;" parent="1" vertex="1">
                    <mxGeometry x="110.12141373773963" y="83.57826755619425" width="0.3791662252445675" height="1.0089185164235308" as="geometry"/>
                </mxCell>
                <mxCell id="179" value="s1=abc&amp;nbsp; s2=cac" style="text;html=1;align=center;verticalAlign=middle;resizable=0;points=[];autosize=1;strokeColor=none;fillColor=none;" parent="1" vertex="1">
                    <mxGeometry x="55.31" y="76.9" width="110" height="30" as="geometry"/>
                </mxCell>
                <mxCell id="180" value="" style="shape=stencil(rVjJbttADP0aXYnZh3NO0/8IEKc26saB425/X04NpSLHeLKA3mSZT8PlcZspPrzvn952U3Dvl/Pp6+7n4fmyn+KnKYTD6353PlzkaYqPU3x4OZ13X86n76/P199vT12yP307/ehf+HXFeefIuQ4L7vf1laPi/774fAUcD68LQGvkq5KPVDOQZ8pFyVcKWN4HJe9FwwQAlVgb4COVCAFZW+ArNQxIXgFCoFYhIDQNEC80DNA2xEQVq+SjAiRPAavktEpJ/IZVclkBcqJYMECrVBylgAHarSWvxcFQtQpXkQ2Fmja6JhwHAbAGVCrIrQOAHUVk9AgIVB0mnzaahRoMANHSm+VMkEDM5HTGseQ4UIk9sQ5cw+SrmaLmkiiZQBEoYrQOXMsw0lmIoG2QOoVOSDzXiAWgAC+lRL5ZAAMvxTqHaQFogBpR6lwZAMDoIHHIWwA+2QTqAGB0pTg4iUGGBsppcCoghiM/yCfAbcmtwaUBGBwpDKzwoLnx8H2mBmqeF2J7C2AA6BoNJzDQKHpKdQCAEMRms7nbAHiasm0l4iQHTkjiw4GnAZwgyVkH2kUQNjkhD3HOgBdiQ/MWgKaS5OYKt2Q2YlKY+/EydQC1Q7I2LEat22QqlAe2IvaJE+tgA1ApzhYunQQKktTUobxk4NRhkuxh/o/yYcwF6QrAo+IhW7Pj7LPbHsqUTZQ9pLZMXabiSe9E02oqxKbZFki83tk29f/sh3aOJ4wbADzDdIDOtpUp6QYAz2EdsGnSEy+ZSW9lluwAzaWVabUDdKRX5uEO0EavTNwCYF1XV2b6Dti0NfRCbBYZvJcIIJtFBm8++cOJd+5WAjApurK9SW9gW1dxxslIoQOHF9D00V/vW3BFftMCLfI1G/m0wiM28jA7ky1JDndnad7RyKPpvyQ712L/S+ZytfLg+3VYbbE8D0Me1kfWnWr1Qfb2VaVs8GffUq0+cCNsMx3v48PmG5s7APLw74Lo5XA8Xu+Xlv/bCyV5db2Mio9/AA==);lineShape=1;" parent="1" vertex="1">
                    <mxGeometry x="98.8983992094511" y="96.59757053900867" width="0.1661841946716284" height="7.079221802494878" as="geometry"/>
                </mxCell>
                <mxCell id="181" value="" style="shape=stencil(7VjLbhsxDPwaXwlKlETpnKb/ESBOYzSNAyfp4+/LraHtiuudIAV6y20tc/Qgh0NKO7l6vr952u8iP7+cjl/3Pw63L/c7+bSL8fB4vz8dXuxrJ9c7ubo7nvZfTsfXx9vz76ebyXL6+nb8Ps3w84xrlUQmVORf55FEwn8GPp/tHw6PC/uqJG2wr5TDtr1WUh3sQ6ZQACAS5wEQA00/twBFKKYR0CjUbUBOfb4OkEqpbQNSJnY+slMBgGSKIyA3ygAQM+kIUKYMwhAK1TCGgalmAODu9RlgW0JupTLat0xJkX3l0d6IIche3PyNOIGoeR6ZfQI8yn22hb2C/ScfMrNvYH4hcbxmJgYhi90dywVQiEmzty/gAIF45VABmcmr/VTIICOQensBBJq9MdsrKQgwrwKmFOB+Yh3tC8wxo4vzZ6ACZCJUCi7FLANQgBvFEaBKDDyUYs/xDiiZGsoBO+EY4xy7DlwWU/aHTvPIZUDo0jlro7EUeGmS6+YBBYRB5RIAeEkTsXqAoi0lauIPHYBbNVOuHlBQjbIwObcGmGtafDJY7JFY2AoaPQBlvwGC29JcF7e8JCtAQdQQX/kNUNGW4nsBgVJabQmdgfvfy0MjLpnI1JVbwQqlUXVxCDAfJkD1gIjywXRszOnEbx26BQ8I6NChp8sygXDgtHgATFG5AFBE79TJvJQZ5KW84hLDdsQAtfg4MFqhdK1eAKCXci+XCy5Bbc2+ZTC2MpaZ9wHKXNHm+jD77XIFUspjApUKtVWSb7at7wxA+aY+aXRrrbA+hOS3NDWeAPAPjeeqkfxoPD8az//WePLKn9KLygYhnL7bnRupbwg9oea+s0LG2Y6K6zsr7GzFQuDus4oBrRf6WbkKPENqfgUp8Jkg115V51u/rQBYV9Rf4q3Bz0jfk+8VQuyl+vLTSKLgmjx4wTBdc0Rl+PRi9o5IDCvaRMuVPZpffUfI/Snmsv3qgsRdyrbstTl79AIxyYjfT0PzN+8f6ycBIyYZdEoKb18LnZ05Bx9pbIE6KovASjMVFnc16rVwy6HuANIHtuzf9db3tr19/H1YvDs8PJzfJZf/+4dIGzo/Ysr1bw==);lineShape=1;" parent="1" vertex="1">
                    <mxGeometry x="97.94376012139824" y="96.68503126629858" width="1.296739576101253" height="1.8844703819568098" as="geometry"/>
                </mxCell>
                <mxCell id="182" value="" style="shape=stencil(rZfbbtswDIafxrcEJep43XXvUaDpYixLijQ7vf3oeWoiKv6HAbtzHH4Sz6QneXjbP73uJs9vl/Pp8+77/HzZT/Jh8n4+7nfn+aJPkzxO8vByOu8+nU9fj8/r79enRXJ5+nL6tpzwY+U8iV8gzz/XF0zsfr/4uIof5uONeKUYO3FHkrbFXSXOnXyhGLblfSIX+vNjU/AuIIFC6QAvlIABQSj3GolQ4W0gCgXpgBCbE+4CSYHeRzETAydlIec6IBVyZRsonkoftFwpAZVqJZc6oEZKQCUFEveARiZDoFQLFAGZwZpo5opMEV9Re6trIQFXLEYYqytO7ko+WgCFWhXI3gJ//LAF2Py++uE+oU4ZjCgodJpsgxEB6ZQGN5Xm6S0gDIHwGJC+5lTJgGxIFPuK0DcZ31DEAgxKSBXwJl9jS/ktoAQLCGhl6hPrJQVQ9qnXB5Uizu8wVHVFRmvmDG6NKDVqO+8mcKgdL4CJdMFxqLYdK4Da8WK0aRuVBJdcdRYoOA4SLFDRDZnyUHEVBU6Tb1Ap/U+gsK24okMGAJkp9cmXHay45Ij7ikt6BAAi2/Ydajvi/qR21gbRrgEGhHjrJY8BXRXM0NJ9xYNIu0yuTz6noxgMCM29Xj7BXHW2GCJ5tF2RsBF3oHS4zY33AMBKY4psxAU4k9sIeI9Wa5gb4mZKCXks3ivjYbdmu3a61pe2dB+2WtC0uLXl686MkoBtEjAFYKqz7YfJgdOd3QXxPvGP+/5fxfXh+mnxMh8O65fJ7f/2U0RfrZ8x8vgL);lineShape=1;" parent="1" vertex="1">
                    <mxGeometry x="99.32992707526313" y="96.77338901273777" width="2.1128777229983577" height="1.630098815541145" as="geometry"/>
                </mxCell>
                <mxCell id="183" value="" style="shape=stencil(lZbbchoxDIafZm81tmVb1nWavkdmQspOKWQI6eHtq+0OAWvhT/fOePVhS78OHvjhbfv0uhlSeDsdD983v8bn03bgL0NK4367OY4nWw38OPDDy+G4+XY8vO+f59+vT5PltPpx+Dn9w++ZiyFQCBOWwp95i4nl38bXGdiN+ytAG0Xp7KOSNABUark/oJIiIFDWDshKId4HWiHpT6hMKdwHREm5A2wHAbVS6U9QoQR8qJlif4LFDZ1Qmnda9SzMbSBQih6oAMiBYvWA5vtAUuK2AIDT8UOmK0ASAOxK2QNR7wNMVX1UM3AhEDsVhEpB9jn19pUqyDwmLb19+czh4oD8WUgLeyBXKJq/UqYErmRpIWkBgAZgiSfBA5Vharfqo5SAalY8nL0MAcg2lad4QIEPtRC7TBVS1ACWTjcScKXCN8ozIx0stxe10IDSnM6Z89GIL738dm4k4rI4AggR00I56wmgPguVtIgSqJ9IQbwMDdanm1WTziCoa+3NYVefNhgCyO0oPqQ2elCq2pWkL+hsIQKpajGNbj7j8WlNSVYNaFNB3YCGLwD77FSzqKGWVCn3pRBJUJOP58q62EcgGlt/6SNkXRb4m8XP5oBHcz33w4s9KjNrLrWtsJdMLa64T2M/NbG/9p6KuiKe1p3dzMF6WY23Nfmw+sn5H4AtLi/cl3G3mx/I19/9i9i25tc0P/4F);lineShape=1;" parent="1" vertex="1">
                    <mxGeometry x="98.94948118240762" y="107.14744881019948" width="0.11791780346829077" height="1.3557518581516006" as="geometry"/>
                </mxCell>
                <mxCell id="184" value="" style="shape=stencil(lZbdUttADIWfxrdnpNX+XlN4D2YIjYc0YUKg5e3R1mOIlkSd3vnv88pHR8c7yc3L9v55MwV6OR0PT5vf88NpO8mPKYR5v90c55MeTXI7yc3j4bj5eTy87h+W8+f7/mQ/+nV462/4s3CNUEKnAr0vV2JCan+v3C3Abt6fAxmlGCAJWnWAhsoGyIKaXSCJAUoEeyUltGyAqis4QG2IFmiMFh1AVbIltYLE14FCyFYlJgLRdSITJNolGtiRKRGq7ZzqQE4jooBtI2oFO4BUkAVK84EMsrrmBhIHKGMjUkV1VIphXCGqW5zO6W1pFggITklaQK4G0CKzs0KuaMkCGSE53lARrZlU6OB8dG+TXUFbGfyBoGFG6V8zykPjCLFcB87c/OkNWoPh8hI6MBbQofJa3UdysGtbX3FZJh36YUg1GJySeqzYkr6i53KrBeXbjFYnBjQa6wBofHozmhCHoVZZHTN1QP4HkDima09Dx0whrm7+BBKyE0yc1rQ+i43ofHRBtW4tDHHaEMYwzrym7cXn1ar2AxKvKXLteWuLSODg1ZNsYgRfUc0TWz831xQcR4GYkZweBxmBBHEmRz0x/Bm0AY6garpBofHfpgdfO47HebdbNizn98cdil5adjdy+wE=);lineShape=1;" parent="1" vertex="1">
                    <mxGeometry x="99.37428798935562" y="105.69874498651484" width="0.19195593436930403" height="0.192544790962175" as="geometry"/>
                </mxCell>
                <mxCell id="185" value="" style="shape=stencil(nZfLctswDEW/RlsMSRB8rNP0PzITp/bUtTOO08ffF6pGsQg6V3Z3ioNDEsAFCA788LZ9et0Mwb2dT8fvm1+75/N24C9DCLvDdnPanfVr4MeBH16Op8230/H98Dz9/fo0Wo5fP44/xxV+T5w4KjxSwf2ZfnEk9d8PXyf7/e6wtK9US2PP5NPn9tlTksY+E4P1c6WSG3vPFN3nQIkUagsUChkAuoNvgBBJgAtVbIjYUxEAFOLYApUy2qESt05HXcJDILdZkEQlQqC2PiQhXzDQhjUHqsBp7xw51xK6BsjcFaLIfMwbD1U1EziwFqgUA0xdcRZIKBNCXCyQgfyqOt0BKExF9R87AKQupzmzHxVxifRVIlVy/RYgrilY/SmAEiGFnHRhAokQsTWkgACFS5zluQAYHSnNYV8AqCSSt3JVwAEfktZkaIFCFYgpM2WxAOo0RY+U7gKybd8rR6p8pSCQ0zXfGdaLcm5M3FjCHYCkUVMXViy+GmYXb5S39q3cHQkVUC6U2h3WalQvUu6cQG0gxdnHGxuNXu3Rd2ECrUxrtO+uqFlqjZZuB9SO/wsw6sM3hAKmk63cQSNgBpqVsEZKd92kCkg7Dazc1Qpwm+lxGkA7aJ9pjzTOGyisgcRMfVgasc7jyHJmAj5EJmkTN05lYFDkTNJONDr3McgDqw+tlvzHzXoV0MlW2rBmisAF76yUmAKw76YfB5uSI98N6kDYnrI1j6A0VdXemMMhmko15ugV4CM5exoHlve1f5WgSyfI3G0X9lgLZhzB66vYcrc+UnPo7T0qF72horFHWtbyijb+SMp3v/JW7fXj8qR82e3304t0+X/7BNWfpucrP/4F);lineShape=1;" parent="1" vertex="1">
                    <mxGeometry x="144.17899496804824" y="98.26810752548099" width="0.1691602653456621" height="6.578300675156288" as="geometry"/>
                </mxCell>
                <mxCell id="186" value="" style="shape=stencil(7VjLbhsxDPwaXwlKpF7nNP2PAHFqo2kcOE4ff18aCyUW5Z0itx5y22w4K5GcGdHayM3L7u55u4n8cjoevm9/7e9Pu4182cS4f9ptj/uTPW3kdiM3D4fj9tvx8Pp0v/z9fHeOPD/9OPw8f+H3gmuNOJxRkf8sbzKF5cXXJf5x/3QRXwNJHOJjpFzXAVkpyQBQppzXAUmI8wBIkaqsA6RRGQE5k7Z1QCykZQCURrmsA0IlbgOgMUUGgEhNR0Dua14HBMppBFQKEQDYJ22AqusAy3Dss3VewQKVYvbxFRAjU+UhPjATgxolEvYLNFAioZp8fAG0iJTUxwvqGenUAURsY/HI61aogf0wBfXxDL/Prj6mTMBqY+QozJZgvuwb1hRSNFMZNVATJJyErqk3HVdSBDDRjDtKBQOUsgPYJhEgU2oeIKCmUrtVXQDQlszb5hUqWEFjb+pF0oh2KhSnsqKkDVBG4qXW3WkN4JSTAwW0JTsBxhxyhNTTQLGOAMsKmItZvGYPqGAFKd3c3gBKDOxOTCzTluCpM1dJumWu0TvwVCVkeKHX5KIPMQEAU3NVYpx08Ekbl5DJWw46mp6xFSpOvYuZHpBLWh9a8ABFZTXXrR4ggK3GpRlQMFvL5EtoBdODX6GSgBxMcd5mWp+aVgGOrTYPAC4ZgCdNN8ClDwOCna7j+VntDcjhc+T5HHn+85HHzjW3f+m/llYI5AhaCzwS5t8VxSYURAjLeD50AKVNxq4F2uAKSSmMOZjBRgAopspRZZZVAUZhNclj1wKckGr1rAs9p+vxzZ8gNpOB/bTQR8D3+ACa1iZ3x6I3jiX/fQYFPXNeXDwaE0xTiV18RfFX6plQvtPsZUMAytfqP/ZX+pXBiq1PsleKgBC2gBs3E0XgQh+94vh3vD2836c87B8fl+uYy//7+xd7tdzdyO1f);lineShape=1;" parent="1" vertex="1">
                    <mxGeometry x="143.4250178101047" y="98.96397477757009" width="0.7598077556416378" height="1.270505322275951" as="geometry"/>
                </mxCell>
                <mxCell id="187" value="" style="shape=stencil(rVfbTtwwEP2avI7GHl+fKfwHEgsbsd1Fy0LL3+M0dYjHm4Mq9S1x5nhuZ46dQW5e9/cvu8Hy6+V8et79Gh8u+0F+DNaOx/3uPF7K0yC3g9w8ns67p/Pp7fgwv7/cT5bT08/T+7TD7xnnKIUJZPljXmBy6c/C3Wx+GI8rcxPIcmMfSdy2ffmcXGNvImW/DRBPyTQAG6AH50lsA5i2AADvKcQG4CIxCCmU/VoPPpEJ24DoiVsPIVEGgOR0VRPDkHIm34aUAwULAbn1kCNZ4MFwiaBDoM4VF6pMOVEQCJC2TGXFIkCiaDQgALZOEbMGwBwKE6QDZAAIZJIG/CXwdYAn5zXAoc45yl1ZU4SAIBpgUUiuUmfVaf9NSKqsgRIqq68prgDCuKytbJQtMgbkpAERJR218E0AIBsTmWMXEqJGrrq1StohD4U53cQxmIfrMwqzLmxWE5TIYYDv6Mq4TLkDeMSNdG2C8FArwV/VYYsc/cwl1DpfZWWdBJq5TvGnMv1PQCxK1/I1Wdi5yDXi5aQ25ECVwvJ5ObWYIqCfN1Wtl4O0BAla7VgPqZShAjmI0a22pUrgILVCXt0eGJ68xtaIFzIZ2AdTpXTJmQSkzJpIQhlMD5PNytzB3bnlhIUi2amFreXdMDdqzqBAsqaPqZeaDXN1MWS4u6lk/zIX0Carx2tJZsM8ZmWOBEX07auYg92dnhOukrdh/k9X8m/Ny8PX7f9xPBzmn4f1d/23UJbmPw25/QQ=);lineShape=1;" parent="1" vertex="1">
                    <mxGeometry x="144.26675124843894" y="97.91648271049911" width="1.4208019410840862" height="1.7860443487180446" as="geometry"/>
                </mxCell>
                <mxCell id="188" value="" style="shape=stencil(lVhbctswDDyNfjEkSILkd5reIzNxak9dO+O4r9sXGlWqCNqr+k+WsSQei5eG8PSxf3nfDew+rpfz193Pw+t1P4RPA/PhtN9dDld9GsLzEJ7ezpfdl8v5++l1+v3+MkqOT9/OP8YTfk047xw5N8LY/f77imR68XkCHA+nFaBWqtzIV0oM5Z2051cKEQAKxfYCFvIZADLl2gBCJE4Q4FuVYiCPbBZKoQEknq26DUhUfQMQRwV5KRG3NkihhG9wrUo5kfcAEK1KxVFFXookbRyKYC8FSqllhqOIAMq01mg9ogIbilLDAIQq4FIJJKUFKB2B0TnbSK8S5DZC/2Z7RQFGiJ/pvwAKhXAfoFwz3BjpBawe2dzyuzLVch8Q1O1tDSh1vvMmgJVMrZtKhEb7ZAOh7ENkcpRMAlUYBj2t5d6YP8DkruqpPEoflTf5mUlA0Bbmr+Q98KizERChAmLsKUUrL6DAKIfEyieQCEqY3J0P7A1z01jrD+pXnKO/8g8D/SOF3v/w/Gjs1fiinKHQ8UEAH4LtgiM/gf6Bglh5lPRsS6PKJ5RgXbzqXMnuyHMnj2q1s/mr8h7Y6+YOvPJnhvliqqjKM2j6zrY/WaaAe/pkK4/87yib+iOwW2pRZysvoP5wZ+9WPuYu3xOwN1Ds9M/An2G2buUfB89/TN53U522WgEKcbYZUHjO0dsayRzQ1bySACB2M1dZZtvbjTje6KsoCMJzzVwAEXYlHSZMGdJWj8p6FhtnBaBBU9tuzhYQQSFVJ+bUGQ3cqkOaoaq6NaOBX3u3CRyebxQg5gYHA6cAo1Jexud7k2k/HmyNsgbgYP6rE7kFJI9tYCotIC49+t44Hrq1aGN+ry29dfFCM9dI5jandbWDm1qyU8jG7qgrTdt1NnbTZLuOtjm0EyU7JeiWhlaiZDdNB5usbifMRh41NZU3PHWwqOoia8oF3lVUvpRH5JX06RF9imXQhr3VUnTDn1pIrD9hvKpdUzAfHv4Y8h8Affj37eXtcDxOn27W/9tvNfpq+s4Tnv8A);lineShape=1;" parent="1" vertex="1">
                    <mxGeometry x="142.9102638997564" y="107.76581371425317" width="1.794629544323373" height="2.6801408164408174" as="geometry"/>
                </mxCell>
                <mxCell id="189" value="" style="shape=stencil(lZbdUttADIWfxrdnpNX+XlN4D2YIjYc0YUKg5e3R1mOIlkSd3vnv88pHR8c7yc3L9v55MwV6OR0PT5vf88NpO8mPKYR5v90c55MeTXI7yc3j4bj5eTy87h+W8+f7/mQ/+nV462/4s3CNUEKnAr0vV2JCan+v3C3Abt6fAxmlGCAJWnWAhsoGyIKaXSCJAUoEeyUltGyAqis4QG2IFmiMFh1AVbIltYLE14FCyFYlJgLRdSITJNolGtiRKRGq7ZzqQE4jooBtI2oFO4BUkAVK84EMsrrmBhIHKGMjUkV1VIphXCGqW5zO6W1pFggITklaQK4G0CKzs0KuaMkCGSE53lARrZlU6OB8dG+TXUFbGfyBoGFG6V8zykPjCLFcB87c/OkNWoPh8hI6MBbQofJa3UdysGtbX3FZJh36YUg1GJySeqzYkr6i53KrBeXbjFYnBjQa6wBofHozmhCHoVZZHTN1QP4HkDima09Dx0whrm7+BBKyE0yc1rQ+i43ofHRBtW4tDHHaEMYwzrym7cXn1ar2AxKvKXLteWuLSODg1ZNsYgRfUc0TWz831xQcR4GYkZweBxmBBHEmRz0x/Bm0AY6garpBofHfpgdfO47HebdbNizn98cdil5adjdy+wE=);lineShape=1;" parent="1" vertex="1">
                    <mxGeometry x="144.13520722540045" y="106.57813579042707" width="0.19195593436930403" height="0.192544790962175" as="geometry"/>
                </mxCell>
                <mxCell id="190" value="s1=abc&amp;nbsp; s2=cac" style="text;html=1;align=center;verticalAlign=middle;resizable=0;points=[];autosize=1;strokeColor=none;fillColor=none;" parent="1" vertex="1">
                    <mxGeometry x="20.950000000000003" y="110.45" width="110" height="30" as="geometry"/>
                </mxCell>
                <mxCell id="191" value="s1=abc&amp;nbsp; s2=cac" style="text;html=1;align=center;verticalAlign=middle;resizable=0;points=[];autosize=1;strokeColor=none;fillColor=none;" parent="1" vertex="1">
                    <mxGeometry x="120" y="110.45" width="110" height="30" as="geometry"/>
                </mxCell>
                <mxCell id="192" value="" style="shape=stencil(lVpJcls3FDwNtyjMw9px7uEqyxEriuSSlen2aYQFkGh8NpOdTb3+mN7Qr4FT+PTj+cv3p5O3Pz7e3359+vP89eP5FH46eX9+fX56P3/gX6fw+RQ+fXt7f/rl/e3316+X/3//0i37v357+6N/4a8LrjXTfEd5+/flF2tS+/eHny/2L+fXW/tqSlnsnWlR2BdT3GIfTPTCPpu22keTgrBPpoXFPpmq5h9NjYt90fMJPP9mnLL3Jq32zuoJORPWA3DeZCsA1jg6gWhcvQ+omPG6RS6ZnASgju9NQDG2CEAxvq2AaoI4tZpNokU3E7MAJFPWEeCnUa0hjWOaAKenFE1cHcN744Vn12Dyeg5wba/OwZtCI8wxjwFuGwEHp0aww5cnoBjn7gNKNY1GqGPMYwCixa7hbMfZHwMw4/XgAhKGWEMJI1wmACEo4qF4Y9MKSCaoEew4pgmAe4sRcjVp3aWAX8TB5cxriFaPkDjiopNpKYexxAnwI5EfA9yIrwlAYhURlxCQlIiz8QqAJLCmmViNFbuUkIppSs1UEdPJm7Bua3LSW/E9KiYJ1Ud4aywmre6dkvFqBPx5db6UR0gdAwIn4wRfEouGI/h1DRm+JE464ODWEXD2QZwDvJ9KYvbSNUJm18hBngMC0q4Hl6OMaYR8W88h68wXPNcHxKCqoshClUYow7uOAZZ9CWnBiYICgIsMqAIAZkHZOzeZZvzGxXpq0wDXGKCSMcoHZb7iBh86BsD713goXm4rAIH4WJBcAyWQF436IAIIAAqgEof/HgPiYEcTkGQiA8BtgCwCCEQh06LzmOQ9AK8hj7p6DPDs3qjciiQCEBMDVMT5reyCTMg1uG1bp//eAwRaQzNBnbTlsgtAUxFnRzUYADCopNZgOZGBoznhGqC1ROEAUIsGwK+LBm1U3gqmndcqCmKqvNVVrkCdyYqTBvmPtIZoglpDHgE5AbMAHAMSZw0AqppS2taQZcShRfK0S0X2lS6MbmECqmw40LVR9kbfpcquc9wp9s5OLdpy1gBAcY3GdR29ZhGbhD5xdb3mdY/FqRvNsuw2OBbaA2Y/CsG0jzLDbE0l7Is44zx41LSfbO6Yf5pY2b4oNsnpqGXZgkbuS2Cv+PAuTRTZ+ATO2LBvKttt662yKYF3bfbKP+1gN9Nep2vLxLbbi/23m7JidRtmucr2AeQCSGOAvdJ67HYATToQ7Lf5KOFmru7GXpUz2G8bqhzIbgmiyZbQMt2EvcpwlmWkbi9SqOU+5KE9Z9xH88n7eqU/UCnu+ynPN2/rTSLA7KjTt/4g958LxiN/I7bf/V/GS9zt5f6EdX/+Q0BuAaP6FctE/Cpv3wuAbQFV228BryrYYUDKA9u/rzLu0fyDnI/bHNRr+20/lb1jDoQKIBtSY8mhi24vtwDQXQ1IHAV81kLFQcV2SpxhuQiMIIsKlrb1Jqkh4Gsbo8nCHzJfDcBeMbI8+OANI8uSwYWNwan5V2Pp+94kJWBz1wrG2sT+t41BOJmgQaEDOfTMYfdIOlGCqlMu2gCqkVWrPmg0KEegM1EsCAASotD7KBqE3ocUEwCs7q4SNUtJ3myg4aM4q/pmw5Vt0VpBBCA1BqjK0bvcNXTQRwdFXuvw/NtOXZ1DYzbXtQANIAn+gdoAQF3TRZkt3T15wm8CiOpodkbRNRmlmDiuOACoDNNLAk1JN94AsIhTBk29J0SxTJRHWr4HoKwHgPKlrr6tvlSS1Oz97GtvFUQldUW+O+kapRohbvpe0K6RmHuVoOW6ZBoBvCSnvf2mg3N6SoWlLgAUuwCgkgpq9UlXvtPNbdzB3pPgKWvkGeX3AHSHlau+bLGsguYiS3pwXOP67aK+CkmBAUp9C2FwlglIg0ccA7Y3FFm/QAiZeWcO45djwJbus5eiZmh8gZqtZPLRsnunJn0pes5Lqcq8FBPXuJRlTMfCGmWK0ltj434zedl/4c/E55OWrzEBKooYU0lY19vPCdDpHrtOU8K+KZEyOxYVYhws8xgwRckJ8PpuPW5PkKzUyfpVI71x0r6EHEF1OlSZZsrWSCKkFHUojjkfgla18qgGpHWEWfWOAWl7CeLkonsZpyc8utku282G1zdMddOnvL4VqI4V7H5ZqPoZz4oTCrGiDmCppEH2mzn1lCpuu+Rk/1A3du+1t4LLk4zaZQT1DClziHbqq9aQ+U2e0y1N3Qo7Ogr50Gl/hail+zpdbQKCvIfrVyu0aC/JCTpbfmWnyUnbb5hMEeGAVp7UtjLk4WP7rYub9xfH9pl5QxzhdGxfeP5etqH98mCNTief/LWtubeSxnQt1LK9epm6VU+r97ON47mxV/vT+EnKw+/XxPbq5WvjNzJWdvXdnr+vav9Var3aq+x7o+XeAJQucQRQ98rX656rvSJU3Z5PWL4l/r9voR/a4x/Xh9ffzi8vl3fbt3/nh9r46fLIO3z+Bw==);lineShape=1;" parent="1" vertex="1">
                    <mxGeometry x="98.465118596813" y="103.89620639024375" width="15.90066748451806" height="12.626921180882018" as="geometry"/>
                </mxCell>
                <mxCell id="193" value="" style="shape=stencil(lVjZctswDPwav2II8H5O0//ITJzGUzfOOOn194XqoSKC0tp587ErEQQW187fvT0/vO534t7ez6fv+9+Hx/fnnf+yEzm8PO/Ph3f9tPP3O3/3dDrvv51PP18eL99fHybk9OnH6df0hD8XHidKZWKJ+3v5RYjl/w9fL/jj4WWJj5R9h08UPMAHKrnDM1N2kCCGEKkGQPAU+xOJoxIBQShzT1AbCiAwldoRvJAgo5lcb4PPVBgQHEnqCMGTq9uESqF/QSjkwCWVducNH4UKwGeq/Z3GTD5t4xPV/oaSkAMGJ+Le3qQuAPhIPnb47GBQBIoGHykCvKfc44sjBiEhVPv7L4ESeL6QN/gCVSAU+vusGoNAlmHARxJ4/7lXfU3kkCo1QIMloIBQGdeBwECVKtoq1oSArrRYkdX5FtZ9HFtamAke5q4Q2h3OBPUjIKioorGBKQC3JTW610F10M+pNjctCDEDIaubqiUEQCiaeOJAAEaXarU2EUDs1To4Tgkg+JTgRwJQpxKSt4SECcVEK0M9KMEkgMnTUEBu8BzDFDy9wpxJWmncIlhRC0xKdfSctLy/RTC1uV4pU2W4Jk+MYqPYdmR6A3JEacG5sCGDPKMEGYyG0Vda3lo4rqJgWiOg4rNyJCZGfhiNds33t16ra13TrY67KmobGg6m75XgU41iydnw1lyJRW0FxK3N+oRGE4rvMQ0I9tyYaAQ7YkxlArvblWQ5Z/Rb07GHI8CnCVOFSAMBdat64pEAPJfn7nFBkCt1NFiCB0dKvHKkBN6gvUAyhNBkvtVt2EqNezifhkqtxR41rWXQaIbBJ9z8OhMKNFpHNXtLFb5B+0ruw3shwo3OdXxDAaEhQ9NXYCJzQ6bUNhS4bS1lVPh8c/6isxZ8fjZ4nVVASuLWDs6TT8VB0f6d8aFN+BuTEvdRqpMYA38FK7QUW5O8gTdJW5WHnh/tbB4TRWBvsvuLiDN2bqV7nrQzvM/SxqIZL7hXtQLwGWYurTh9vHktUWjb4drf87YjwrLJbAuIxiCDvpN11O9DSNMAXI9ohzbshNC2YFrx9G+I0Ac6fBo8jiHFm/WIgz3kuNRyMEdMabEYPPKx4r0YvEONi0qqWjyyd5iEFY8cllrT/oFHs7zivTd4uCxIdm52cHCZlpb2/KgjV3zun89tn7SJN1WJ8pXzfGqJehWvHz42tk+H4/Gy8F3+bze8+tNlO+zv/wE=);lineShape=1;" parent="1" vertex="1">
                    <mxGeometry x="97.93559265789483" y="114.53434830189761" width="4.13306914019157" height="2.8289674301346475" as="geometry"/>
                </mxCell>
                <mxCell id="194" value="" style="shape=stencil(lVrbchU3EPwav6qkmdHtmZD/oAoTXCGYMuT295mNS2LV2tMH3uyzau3cpzXaB33z9eO7L48PEr9+e3n+/fHvp/ffPj7oLw8iT58/Pr48ffO/HvTtg7758Pzy+NvL85+f37/+/+XdsfL464/nv44d/nnFxaD9AEn8d/wQ6/8//Pq6/NPT59PyFJLA8p5uL5eQdFkuQfPt5RqiLcs1FLu93IKmZXkOSmTPobdleQ2ZCNNCXGVPcSh/bRo35bp/ktALAbi6cQVkak1/3PIKaKEzb7XQwP4SItHB/dtW/7qRqYMt1FWkw6pEJH9sK0DjMMM1oIdWV4BHFTGrThUnwEJkUaehr1bSHCqJO3+cywqoIRGltYQOSrdgRGl/nOANnQarP5Y1liyGQqzkj9Oaa5ZCJSL5Y8gHk1CISA7oa3qa0tDw/eqaQGYhKwHM8jAB7hmmg+8HIpWQWYWZFWUCKgeUIGClxgEVPW2dW6lhCc6RRqvvJ1AmPUNIaPh+BgClwZc9clalcw6JVA3fD4Ivl1A6AdgItQloQYnSvp+sgBJp5csVa2txrZgOPdgarUVpc/P94urpYqPwXANkBMIEFNrgfD9I0VJHeb4G5GAgUqeh4QKAlWqkfigtyBqtNYVCUtQFKGvwVQmNAFwAqK3V6zmJJd9PVqVrpg3F98ugg0cX8UO1IfEE1KDsDSXElYXVRgvZsR9YqVOz+n7g6eb9gQRfnf1mAhIlY8d+q5Wax28jgDQEmAANxt7g+61Wajai6xqgm9JGGdn3/SYgc6UNqUObDeAakDGnHVCZlQr2h+a+Z0r7fhugMR3qKFsT0GiZcQAQ6dZpbfX9SkcAIyf+GDKuR1pb/TGwyp4oI/PHtvqhyyie14CtGPsvjBl3DRV00FE8rwGGfMl/acSsvQxaOwGZlvteR1eegDKEvAY414A3VOq43jcdvE0ys/aRkCdAZmbto7ifAKzypRjxmOUIxnQvX8Fa0AHIG4Ak9QHYROrMc32k8BlAmtyh4hquJzvcROwysRTqyL4PAIum6aizmUhl6n3LuU6p7iWA1e8DsLmaUd1jP0WA8Ywo2xuMB3jdMkJ5MLVNpHuAXSTuuD2+7U58t82sbBRymaT3Ks2mRL0D2GKj3QEIAhhf/77fGcDNVFcdfiRJd5l4HSi7TDwjfhJQNzN512AilVEbT01FWM7lrfj5OYhZybacyzwjdLDtU+ulSSqDz5+aO82IFAR0ENq2nNHAqd23YM3dOZOA0pGT3TbY9gkgjIp67994H5sAOQBOvPeIYgkGRLENnnaLTkMpa5X2IAeoIIAxS2f4kHH3CLthJTsoPNNBcVTR+BTLz0EwaD6EZJ5Oo7yfTlqsMLXtVsABbKDjp0WFc5BQpf08CvngQtJDuMcSKB3H5cI1IGM1diEZw/dTe4b7gTpo2q25gMIx30sbs5LgfMaFZGOvGjH4DiFJeJeOjjuEZPOZim20CjVrKXjMdyFZGy0ZPV0m6boGKE5PjiESG3vJUPE0J2vsDRFvOY5BGJsm9k0HHbcSt6aJQHVdSCGOywWrhgvJPJ1tXCCcJqKMTGfBtutCJlIEcsLpSc7UcTnibV82mnHWcHriQt4ZlsP40YVkZrWCB63M7zct43nUeMtyQIKLl8aVNowl14q+QbHcW6Ek0QSnJy4kfUNCzudCUivF7aZGx6TgEqAdg8+FZCRRGx45jPcH3WiocU9rwUsLbZTea8Yy4+9kcwTVcYEwAXxurAkrnxrNONmO4Cq0oUjFAadGesUmhrEkbQT8NSBhF5VMJ0CpbQChIqWMZ/bET6NJxtBgAgpl98dF/+q4pGO+eN2ntxdESu7zRqR5foaI3zmwSi8Y2Ea5WxqcZdqfTh0jThsSbZ0Rbzb4tUPEkWakl6ERr/ojZc7bkCHSucfFcuWyJ1jOjrURyWCkjHlWs9NyqmpCYdg3EPPdp+XUMoJ2Zx1pnit/dDkU2kg76k9+wnR3uf/x/WupD0+fPr1+bHV+jl9X+U+vX2bp2/8A);lineShape=1;" parent="1" vertex="1">
                    <mxGeometry x="117.79715580356483" y="102.92895759795962" width="17.875241485853415" height="12.275050993032854" as="geometry"/>
                </mxCell>
                <mxCell id="195" value="" style="shape=stencil(lVhJchsxDHyNrijuy9lJ/uEqy7EqjuWSne336YnCiQBq2vFNC0ASSzcb3MWbl4fb5/0uuJfX0/HL/sfh7vVhFz/sQjg8PexPh1d82sWPu3hzfzztP5+O357uzt+fbxfL5dPX4/dlhZ9nv9ykp8UruF/nX5zU+OeHT2f7x8PThX0JEryyr+ITsc+y/Hdh74M0RxyqhKgdimTm0CVn5bCEQI5UEYLTDkl6IQ5Jmj5SaNLYDlWi3iEGKSSG2qU07VDE5W2HFsTptEYUkjkkSV05JC+JHKlVccYhSm/EoUvVR0ooHHHowbZG6qP21x2SFO2QvTRSuF5GTlaHJIFkqaOuOuhcpLIduoVPRhrqtoN3TpzuDUCqe3qmrhEHTDUWRBGvm6k0ySyvQXLVmHYDU1u9kYp2CLRyzdk0AVOOBF2jFA25iqBJXpGTqoMGCFkhMnhL9wZA2Ei7pmaZDyAMxCF2CzmAkFFf9OJ0HZDoSHYIUbJOK0DIMAoq7XqHpfadtesgidUhU9rwI8LVvlOqBAlFa08jGLR4aU8CcFLqdB6yvpNYrH0hBODET+ePJF432n61b6MkW/bB2jNSdbarYf+XZbfi1T3aK2UjXK3e2lfaD25an92E6Ic62RNm8fZqXs7DICN+yqcj9QoSJ/tI6hWmfDaphErD6JaL/mF6Klhu7yvLbOSnT3ik95Pkqf87xa85z8UFt9VAfdqAFBgENAGeqTsAYFo/UQC7uQD0/Ob6XgpMAWMBgAai8cZpfXZTusHflwCg8b7PHtkzDRephMIV4w1DoIQkALR0nW49Bpk4cXTLtGSQxk2DGDd3IiBI1aJg0QYEZVCJ2ciVSoOGXPFGEOUxlWwNLV3HAInkmRx3tg4VWCVBtzKIbZWNnR4JdTXci9ktMZ0Z7YSwqDZyJChZozOhldl0Coegd8B8W5hWTlYfoJSJ3Jd9IuwcuXwHAegsYWgJBHDo/qKDhvIshPHQ/UY2pkw1Bbo/6yxhtIt8PDWyMfEBAd1fNGtHtAabmPM0McfR8Ft4aGaHlfmvO0zKKKBZ2ESxau/VwdNngpJslnx96y2lay72aci96zSzateVyAYVbtGSmUACX3+iAE/vtsXevNVQcXRtfSa+5vPzxynYm2cUR+9+2Pdo7NkYi5nR0AvATTgY9uZpimsj2Dd7fmrf7EvWG+dp4yXtIl6W/1W7/mc+3/mY+LY9Pvx7ubw/PD6eHz4v/7cvnfjp/EoaP/4G);lineShape=1;" parent="1" vertex="1">
                    <mxGeometry x="133.93985457335708" y="113.39096612454111" width="3.3406476141693" height="3.3310541374872518" as="geometry"/>
                </mxCell>
                <mxCell id="196" value="" style="shape=stencil(lVfLctswDPwaXTEkSPBxTtP/yEycWlPXzjhum/x9oWqUmmBnJd1kGSvisViAQ3h4Oz69HgZ2b7fr5fvh9/h8Ow7hy8A8no+H63jTpyE8DuHh5XI9fLtefp6f59+vT5Pl9PTj8mv6wvuM886RcxOM3cf8ylEqf198nQGn8XwHqIViay8UK7DPxKGx946KAECiUFuAkGcAEMqlAWgIGZ0gFGILyBQjBDjfAEKk6gAgWpciU0FZjZTaE8STx4DYZkkqZY8Bbd1SpoqyFG2WspAkCODWpcLEOEucWkCmEjCg5VLVExA1FNCmVUspwCVPqfWoVgogSZF8tfYeMMl7Em4BBVaBP3lzBygggpDJZQtAxBCm1LmUQEcrb0rtTgBlK94SY4oB9ZunyDatDpE7d3WumHqFnFhAREwKVLIFJAAoqhkdNVDhstYhWkAFaRWtQxv0nZj/n61MPu9CqDCGLk/IKf8pjBvDTuTDnrz6pV02Fo6X0zcyo5B0ZUPU88r9rn0QuQMv02xj+8RslXutQZlq7E4AMeS8iNZGkSnFTp8VGVPZLV2DIqHU74WuG5AS7wbo1mBCwKNB7Y0A4Nmj9q0/K8NNlhJtnJ5iR9XKeFb7XfNfv2Y2ErxgiF3bVjYYWbK3cUVSYWm/v7KDRZuflSUvWn9WtshgN7aVNZUtf1b2YG/rhffsnWu8Tlgx5oLJHIx5AFzzTFKMPQPu98E6mEvVUM7G3qHaBqrWHzT2JJGz8SJ7baUuP8ifrPrpd8Sr0hHt91E+p73X5gfVS8VT9tBh961xA0Af/l1SX8bTab7j3v9vL7X6ar4Qh8c/);lineShape=1;" parent="1" vertex="1">
                    <mxGeometry x="58.79008210458434" y="130.54200012587054" width="0.08641750525759757" height="6.308274505968291" as="geometry"/>
                </mxCell>
                <mxCell id="197" value="" style="shape=stencil(rVfLbhsxDPwaXwmJEvU4p+l/BIhTG03jwHFff19uDa1NrneSAr2t1zNakRyKo026e9s9vG43HN5Ox8PX7c/942m3SZ82zPuX3fa4P+nTJt1v0t3T4bj9cjx8f3k8/359mJDT07fDj2mFX2dey9TCxOLw+/yGE+Xy983nM+F5/3JFqJEiW0KnXNcJ0ihbQmrjmzcJuVOyW8qFSlwn6HpSDUGEpK8TuFK3XyhCPa0TYiWJhlALzFIMPktNiMGWNMJk8J0pCviAULY7aoUSILAWWmwInTqoW9II7ZZqIEZ10zLYrGrpE0hSCePvudC4bpVJbAwpUgLKaIm6JcQy8naT0IVCswSKIATFu/YJlEEVuta5OHxA66vwmscDofY2Pn/BJ1Dk3il2F2/IEF/Z4ZGIFN/t+onCO3gnCWJUr04lW80RN4gPdv1CEe2nja694Ctav1K2eqgUsB6yX78jvFARh8+gY3oe5bnkpyL9ZBJ2+X8Hn1xHwqNa8dnqmceLNXzz+kTnruZHrB7CSNha/pPvR3Tsan25OnwAZ6LqJ3o8M8R3v5+K6tv96IujIVb7K7n8F7B+DHN8lwI3JAg9IOyGVIF4Q2wFIWM2/xd8awu7EuGc1MFeXMDzbL49xRYtIBGeQcL+jNYlBA1W1YwVda1QdbywXK2OuXO7zM2PJW0kNPfU3wTXlwF3wkJH0+hEXxim8oMhlOFNZrx2MqhCTEOXc1J19IHWVCEnu6PJvyBbKn52qLMVEEKeMzITAjzd1eays9bqGkG3FXXeNmjNcwOExn6eqfFMIEvquNyW4mypbhPyGJDXBBD0dGOpiy2BjlbnXRYxNERQLdlDUl2jYEJ1X6jQZirB2SLtwIyOsbrwpXrrQoUrfvBPzhQ4HSUUR4jQyiohulHO4+K2Vgfn3pXQ36n0P91NP0DQh8tV+Gn//Hy+SV//76/O+up87U73fwA=);lineShape=1;" parent="1" vertex="1">
                    <mxGeometry x="57.47793023844437" y="130.71731761241682" width="1.410831807033519" height="1.1309420061004385" as="geometry"/>
                </mxCell>
                <mxCell id="198" value="" style="shape=stencil(lZdLctswDIZPoy2Gb4DrNL1HZuLUnrp2xnHb5PaFqlI2IenvZCdL+Ei8AQ/x4W3/9Lobgnu7Xs7fd78Pz9f9EL8MIRxO+93lcNWnIT4O8eHlfNl9u5x/np6n369Po+T49OP8azzhfeISeT9CwX1MLxx59/fF10n8eDjdiftMHDr5SD5uywehUDp5H0jKNhALce0A1ajKNpCYXOw1clTADVlV6k1OgTKwoQhJD+TclFwFuJKkDmBHjreBWin3N1S9IUOguh4olAHgnWpgCKaU4BUsPSAUQWooEPrI6RuHjBDKxQIlAICpiAUqskGTKS4AkEzqdgkWYHRDJpcsEEAy1URp4daMjNYKNcDshk3AxKHAdFUgm9TIVFHg1GixQMCAcA8kYlCjddEFRiVRHHgRaQWQ0ULFW6CiwFWK0Rr9r2q3ANM21KoAusB6jXpco2LcJORQMtWV7BMEyEpBJBQ5bgV2BwjqfdyaxDwhbn7YSg6/0Elw+oWFTgkXaUnWTYxr7nMAL0qII+yuJZHrQ51rG93rYy62CTKPOU0/EGqdgtwXaUywHcfQMmEe1VpCoOb0c+i95LlFZr0ioh2kAtuGKtQnRmndef14O04yPN3bVp9bR1gVd22pmP3f/Lsh7tmIo0Vs0So0fYAnXWsLc6hawm6Ih17cw96oC5cz4jCsbWW87ZwMTvd2FjiKIC1DGxQ3cQeUibat4+bzyX35v+L6cFvNXw7H47TZ33+3q7y+mv4GxMc/);lineShape=1;" parent="1" vertex="1">
                    <mxGeometry x="58.96618747318789" y="130.5416931475251" width="1.317377961881833" height="1.4074925362855475" as="geometry"/>
                </mxCell>
                <mxCell id="199" value="" style="shape=stencil(rVfbbtswDP0avxLUjZKeu+4/CjRdgmVJkWa3vx89V6lFO2cJsDfF4RGvh6SG8PC2fXrdDJ7fzqfj183P3fN5O4RPg/e7w3Zz2p31NITHITy8HE+bL6fj98Pz9Pv1aZQcT9+OP8Ybfk04x0zMI8zz7+mTp1j+fvg8Afa7wwxQKznp5F0kjgBQKKVegZAXAEgksQOERBwAwFHpXYiJfL4OKJnEdYAk5BIAsNUgGTqdPVXfAXKm5K8DJFLKHaCoSUADtyw1eY2zBwo0zX0WaqYIsuAomPuFMrg/UghWnkEdaVWY+zXtDOwJlJ0FBBAgtyjUEQA8GF3IFpBAVagPuS58Bj4ER1Us4L0S1wHBckezhpxWQDAmFXLYpLgAFBSlQmyiVCkCH3yguAAgDU4t7gGzJrWO8JSjVVERPVfkBXSYQFKtvEMuEDsbVES2RQ/WNGcQU6ZsykJaZV2x3y3I7AE586JZpBaxdX9dC/cMEFHGLmU8JycA6FSyKVANiJza3oIFoLJTJvCCnO9kusY1b7KscfuvgEjST5GSWttcb8KLKOnYQV04cauDy2DTjgRGpw5KoyElqoA6wq07zIYzg1oV7Xm9Bg1DAZmWy+C4ccFQgKHbP1YYHc5mlOAdSeWlj6puKEhebGE4OKmkkPT2MCztrPRkIx+RfGqj/kMe7SK52m0H9+sSycd75IvlMran+pb/2/wdW0m9I55K29r3R5yvcUIu6gHw/u6l/AaAHj7eAC+7/X56Qsz/t28G/TS9N8LjHw==);lineShape=1;" parent="1" vertex="1">
                    <mxGeometry x="58.79855498795837" y="140.5642809792316" width="0.2566038199679393" height="1.8380140595097305" as="geometry"/>
                </mxCell>
                <mxCell id="200" value="" style="shape=stencil(lZbdUttADIWfxrdnpNX+XlN4D2YIjYc0YUKg5e3R1mOIlkSd3vnv88pHR8c7yc3L9v55MwV6OR0PT5vf88NpO8mPKYR5v90c55MeTXI7yc3j4bj5eTy87h+W8+f7/mQ/+nV462/4s3CNUEKnAr0vV2JCan+v3C3Abt6fAxmlGCAJWnWAhsoGyIKaXSCJAUoEeyUltGyAqis4QG2IFmiMFh1AVbIltYLE14FCyFYlJgLRdSITJNolGtiRKRGq7ZzqQE4jooBtI2oFO4BUkAVK84EMsrrmBhIHKGMjUkV1VIphXCGqW5zO6W1pFggITklaQK4G0CKzs0KuaMkCGSE53lARrZlU6OB8dG+TXUFbGfyBoGFG6V8zykPjCLFcB87c/OkNWoPh8hI6MBbQofJa3UdysGtbX3FZJh36YUg1GJySeqzYkr6i53KrBeXbjFYnBjQa6wBofHozmhCHoVZZHTN1QP4HkDima09Dx0whrm7+BBKyE0yc1rQ+i43ofHRBtW4tDHHaEMYwzrym7cXn1ar2AxKvKXLteWuLSODg1ZNsYgRfUc0TWz831xQcR4GYkZweBxmBBHEmRz0x/Bm0AY6garpBofHfpgdfO47HebdbNizn98cdil5adjdy+wE=);lineShape=1;" parent="1" vertex="1">
                    <mxGeometry x="59.18620419507485" y="138.58790700643374" width="0.19195593436930403" height="0.192544790962175" as="geometry"/>
                </mxCell>
                <mxCell id="203" value="" style="shape=stencil(7VhLblsxDDyNt4T+otZpe48AcRqjaRw46e/2pWro5Yl8HiPLAtk5DseiyOGQ4i7evDzcPu93wb28no7f9r8Od68Pu/hpF8Lh6WF/OrzKp138vIs398fT/uvp+OPp7vz382237J++H3/2X/h9xrVGtXZUcH/O3zgq8d8XX872j4enlT1Xcnmyj+MHNu1ro5gm+0o5APtMIUz2XhxyAOCI4wxIVNtlQKlUZo+8xABcuSRqZQKETMUDQCT2c4w8tQwBUQEYuxTJ8QRImTgBQKA2A7L8BMhDB8xhLY4cyEMHzHcohWIBAD/yujAjUAQuZaakqCSpBCfkRHk+gQMFQNbsKMyX5gIByZ6AuSR59TOXWqAKuCTMyXN9tjwqahMQEvFcoK3CApKCd/OlRRMcOMEz5aQBmQGgUmUNqMAlXygblxhESUqeqwY0dEIgbgYAuCQqVGd6e4cLwrD1GkCoZsLaEPkoeGMPghQomSsz4Ko3VJWsgfp0o3pX9oh4SzRW9gnc1xRna7ASPAXlP48Ib5faaEyLfaEGGskSjcU+jd51qdAUI5qQCpWyp+Q1ABWaXEGHaDlzG5A1qwUA1UVqvxkASHLXr2IASPCSoZEAAC1iGTFZXxrkrWuw04CCiLE04xUAyZEAonGpgcTFSl7lQaoPuZT1GNYWum8DpPqdBsBMSzEWAwB5EP3S9XPlhGg0GN9B6oGNSx4oWJ9lDZeQpG5omGQaN89mMo3mZ1Fh3TyFraimpbW9qx5C1XPVtYpzGwUEazpSygYA5lthazMuIV2SeihGZpDyScXZTFfkEm9EqQH1fjdACkjN6NIfUJR6Q1dDjMgCAnjTQRme8DG5fUxu/8PkFsfDccVrBv43MyfVoVCXWOrUAXmk5JJqF3VCwI8q1oonD0M4YyQtwv3pifWIZ9L1xy0gRZKH5nzp/nxGAKPa/YEOopQqhRlwZQXQAWpngAutA2YmXVljCCDOLl1ZlAggzXm4sooRgFqU9GUPOqHp6pEpHIlwNisAj0U4J90M+0oM3CGznjFENDPaP4XhwNtWL+ElnVKYODrRtgIHvVdx8Pc56q2hSA4IKSetGI48ss/jJfhm78ATg6vuasuSZdu+Dcqs7MF9RX2c+X1kn3RHwP40I5BuDDPb9qIkrOMJGoLoeTP5QvZN93A3XlgXer5pUUJoIF3vXYNft5cPbzv3+8Pj43llv/6/3tHLV+f9fvz8Fw==);lineShape=1;" parent="1" vertex="1">
                    <mxGeometry x="108.69023676140415" y="131.15749776000644" width="0.48732685831360756" height="8.366353786069784" as="geometry"/>
                </mxCell>
                <mxCell id="204" value="" style="shape=stencil(7VhJchsxDHyNriiS4AKeHecfrrIcq+JYLlnZfh8wCidDzEwrvuXgmzxGk1gbAHd88/p497LfBfd6Ph0/778f7s+PO/6wC+Hw/Lg/Hc76a8e3O755OJ72n07Hr8/3l79f7ppk+/Xl+K2d8OOCC4Wqa6jgfv75whT595ePF8DT4XkOCORHACdKaRvgM0UZALGQ8wAQqIYBkCKlug2oxGWQz4HYbcurQnGUF0phWz5aA4qeD/SJ5MbzC/cvq/JMyVv5BBy08I/Kl4LkeXG+AP94Kgv5DOV9tvIe+MdRrtafKL6OmEd5TwLi5ciZ8x1VkKEq76y8w+enMX8qOeB/R8HIC3lB8mnMt1yIgXyy+ZkKCSjh2r0xFWSF+ni9YASwUMgg4TzxWAGt5lBGF5tCeqeAkDF3CpliRgmVmFAdOUJTCFgQE4XRp1OSrIfAUx7llSZBCiXNgNFDSkFAnxyJxxB4zQkA0BQ2Bly5oSSqY9VETw4ARE0eQ5AYlrFk22qyehkErXqrUilQpVopj8xYU+8NWwCjUs0UENW5BVnUAiO9coV0/tg0wluAYCP8mNv6BfUPPS+zBVRgddN49OvMD+uIYnusXlFQD8+2qSmAkRGZEls3wSkh2zaoShYUuWxLSL9cscEarSyGAUUswCOjCwUT6giHLwVItICAALKwIUKu1zAZJm4qYUCsC6NRu6q9m80AFXmpWt5QR8sVwMiuLTUQM2kyL5Iv4xt4UQ+Mkk/6iDMDoKFNAWFU6R9qdEkDMF2VfcUCErohU47WTaitvxkgYkMtDs4ywpZn2vAPIlfETmMpQzrWYbaONsTYa2q9t5eeCdN4FXq2rAN0QDc7m4f8nZLtQZ4xYDGCChyvdFwqYxhyn1fW5Z1VqPR5aH18SzYvvO8D3TrA9cliAlSYSLq0maWHp7VjfRJQ3hurJwY446rLTUXrvJQRUfala/Ipw+nnfU19X1P/5zU12J6pS41HJERl1EeXJvSss2ixjcWAf5bvTFrBiFS8tlhD1B7OqFoy2Wxt0ie+LRZyxQJQzYfpZWy2FyKj1ateLABFWQHiLMAhgE7BwQLQThWKnSCbDcjoycSZl9AO1h452QJgN1hEWuke7QoK4JFcGn0gG8Qu9MpPGbBvU8k0/dALcNPot73sXgfoj78PyQ+Hp6fLO/T8//bhWT9dHq359hc=);lineShape=1;" parent="1" vertex="1">
                    <mxGeometry x="108.22541974504713" y="130.99399102720338" width="2.16176376293677" height="1.3948417734370704" as="geometry"/>
                </mxCell>
                <mxCell id="205" value="" style="shape=stencil(nVdJchsxDHyNriiSIEHw7Dj/cJXlSBVFcslylt8Hk6mRRVBq27nN0k3sTXLFdy+bh+f1KoWX0/Hwff1r+3jarPjLKqXtfrM+bk/2tOL7Fd89HY7rb8fD6/5xfn9+mJDT04/Dz2mF3zNPIzWeWCn8mb9EYvn34euM3233PV5ShxcSBfhCWvr1C3EBhEalN2AWEt8mNPOoj4AzpQYITNo6Qs4UAyCYA71LJVOugKBUegtiBJDV1jyhMhUQdAyBQugYVpkKCtHqUtczQamCQlheW1+5KXERVO4c45lgNkEh6lA5y0MFURdq1eMV4Jli9PiSQVYpDOvHdBtvNXAZUhKwfqBYPT6iKlOOPqEC2ogX6xf4BPpUruADGIRoAWtPEFLQdNE8Cp7QQEajeLkwl2CK2pWmQ7NpSY3NExpoayOo61Jd6nKLwAMBWbAYqqtDgyIcqxekaXCQhUxhsNCgvizyc5btN8W5PswUZLAA8EytebwAOYpDrzbY24GS+CIo8GfQU8MzxKsbhQrVMS3WPyiOhcqwfgDxnlvsctLQLCfK2RMUOGT7tqbBI6SmnyWI/R5iyIBQCyVHYMqgrTV4RbVNUIAeafJtatssaiMjlD6t006O6mYi3xfazgoFDEJtFIbTCCTI4sDleQfty/a7j8FOVAxk3jZy7dNqWwsSMKu09hasWdDOLLxsxB87dkryvYePtbZ+aA4fQCMZ3o1boAr6SIpXbOtEUDOx4c0Ojw7BYuOvDh9wxQZ/oLqzP5W/gy9U5TP+VC+POF4bArc/4Xza4KvHo3pN1xx3bYH98B/XqHfw9vB2Z3va7nbzle/yv7/j2af5fsj3fwE=);lineShape=1;" parent="1" vertex="1">
                    <mxGeometry x="108.98301867974186" y="143.02932717739725" width="0.45214516464449206" height="3.163399634383412" as="geometry"/>
                </mxCell>
                <mxCell id="206" value="" style="shape=stencil(lZbdUttADIWfxrdnpNX+XlN4D2YIjYc0YUKg5e3R1mOIlkSd3vnv88pHR8c7yc3L9v55MwV6OR0PT5vf88NpO8mPKYR5v90c55MeTXI7yc3j4bj5eTy87h+W8+f7/mQ/+nV462/4s3CNUEKnAr0vV2JCan+v3C3Abt6fAxmlGCAJWnWAhsoGyIKaXSCJAUoEeyUltGyAqis4QG2IFmiMFh1AVbIltYLE14FCyFYlJgLRdSITJNolGtiRKRGq7ZzqQE4jooBtI2oFO4BUkAVK84EMsrrmBhIHKGMjUkV1VIphXCGqW5zO6W1pFggITklaQK4G0CKzs0KuaMkCGSE53lARrZlU6OB8dG+TXUFbGfyBoGFG6V8zykPjCLFcB87c/OkNWoPh8hI6MBbQofJa3UdysGtbX3FZJh36YUg1GJySeqzYkr6i53KrBeXbjFYnBjQa6wBofHozmhCHoVZZHTN1QP4HkDima09Dx0whrm7+BBKyE0yc1rQ+i43ofHRBtW4tDHHaEMYwzrym7cXn1ar2AxKvKXLteWuLSODg1ZNsYgRfUc0TWz831xQcR4GYkZweBxmBBHEmRz0x/Bm0AY6garpBofHfpgdfO47HebdbNizn98cdil5adjdy+wE=);lineShape=1;" parent="1" vertex="1">
                    <mxGeometry x="109.04757751404551" y="141.22607009982593" width="0.19195593436930403" height="0.192544790962175" as="geometry"/>
                </mxCell>
                <mxCell id="207" value="" style="shape=stencil(lZZNbuMwDIVP4y0hkpIsrdvOPQo0nRiTJkWa6c/th4Yh1KKTN+jOUfSJIvlIcdC7t/3j626Q8HY5n/7sPqany37Q+0FkOu535+liX4M+DHr3fDrvfp9Pf49Py+/Xx3nn/PVyep9P+Fw4rhR1piR8LSupLfxa9h+m42q/jFRLt18ylXAb0ErcG4hCmW8DsVLi/kZMUm4DWSiGDshKFfhQkwdKopQAMNKYemAkrgCopLEHbAVY4BAo9HeqTAWEyUzk3AORFAGF1AGZMsic/S195uyIKABQSs6Hii0Ein1cV3G4Sljc48ZEApkokfK4cQJZkCaFVZjSCABT5yYRSK8lNHWuUj0igFsU12oCiShK4gDTawaA6b/3YV6JACi+bcyBRupjSuKBCJy2IMbqr4R8sCINrkgtcchCodo3GvMKApVKfyUTcAXSmIG+WVqJRNQ3ysZCakfcdLoPq61AwMLq1FpJ0JW4pWkFVKQl6zPVA6iTzVLb9Bnkw4+BmFt9NWC0EgUFpJFK37+zdWMAiBL3FlIgBm2GQ6uvBihTBRaC95kDfOS27wlsrMEXjwkLnu66amqv/HVvfTgV9mD1krPQgMcz+U4RqACB2mM+uu2CM+VSi58olvZcrM4H4uTYquPb2wDKhTdiFtgXufhZRNvkcH3/DyfC/++3j+/x83k6HJbpdf2/H1dtaRl19eEf);lineShape=1;" parent="1" vertex="1">
                    <mxGeometry x="108.20058300407163" y="145.39191198424433" width="0.5449888474432201" height="0.6684946796974861" as="geometry"/>
                </mxCell>
                <mxCell id="208" value="" style="shape=stencil(lVdbbhsxDDzN/hLUW/pO03sEiFMv6tqB475uX24XiiVqPYb/1jJHfJOjyT197F/ed5Plj8v59H33e3697Cf3ZbJ2Pu535/kiX5N7ntzT2+m8+3Y+/Ty+rr/fXxbJ5evH6ddyw58VZwyZuKAs/11PmJL9f/B1lT/Mx1aeqeRO3lH2QN5TCp18Ice35a2p6qu8iZQMACQKqQNYW082AS5oixwTx9sA76n0JrlMLtwGBE/BdQAfa9Q2AdFRMB0gBAogqsmQ7wFyRQZOp0zcm7RcAXzIjmzpAXIF8CEnKn0e5IoIwlqk0HoNOZMBGoqlzH0pGSqgNIon35tUApkCAKXe9wkoZECUFkDQAIc1eKcBEfmQ630NICENUmpeA4oDgEC2BxiWhgA9WtwQV1GBbDJD5grOHJO3g9egmHLZMAlNAQHwmDnQcgIwQyIM8EEARTmd68mtKHHRgIQyZyl6DYhgeEtDuKwBKEpSTGbUgHxI1eLWB1zfZTAJTbJrITR5QIOpqeY21cimUgdXW0ygNhYfswYkBEjkBw0ZdVCgPMwNtFIk1dxruNvVttZ/qwI5wXXzt06A8pOO0MVRagXf7LlhDHis4UGArw3TrAiL1pwdJr6FYc2s57GsOaRB9qzqOVmkGWhIrm7yZlVb4HT83LMNGUBdHQ2FXkP0lU9sMyCnJ5MQGkQrhWNFRZlSJabbLM4PPDRX1rXNE4MuPqF9FjFX6dHeByGWCZABodIKINQ1g0x7spoae+AB66xh5j1MPUzseXwHBOAs6wRzXS3bsSGvjUGxt5recu3r7WKo1XsVZ3C71ywPD8ao04TF5T2iA4mMyfo1gl0dtt+dIpYs2umBPJmxalAZPPx8vCsvH9e36tt8OKxP3fZ//baVo/Vd7J7/AQ==);lineShape=1;" parent="1" vertex="1">
                    <mxGeometry x="203.09787121553978" y="130.5420047850428" width="0.7741335135451386" height="5.94179603943907" as="geometry"/>
                </mxCell>
                <mxCell id="209" value="" style="shape=stencil(7VnLbhsxDPwaXwnqLZ3T9j8CJGmMpnHgpK+/72wd2RblnaBADz3ktnE4K4nkDEntJlw9318/3W68Pr/sd19uf2xvXu434cPG++3j/e1++4KnTfi4CVd3u/3t5/3u2+PN4e+n68Vyefq6+7684ecBF6uEsKC8/nr9RXL988Ong/3D9vHc3ktJg73zonEdELJkHQDei2MALz4OgKAS0jrAF/HjClGlFAJwUvMASF5SWAe4LKEOgBw5wEluA6Ck7reLgCJ1jEJNkvy6fRLvBvsWqFOjqLEvkh0JgpQxBg15kpl9bNa+sSCLG7OoNYnkvH7aT+MhFt+sfSP2yIjRP05VVBkgTAeoZAGV5q19IjxTSdP7WYBVfLEByGT/ON2Y0UiIRgJ89MaZ/auL1+xNwPIb+3FmP0kaIYyTNu6n1jcI4AzBtFPuon2WOO6nIKVIglYrKRkpS/wJhTAqBw1qTFLCJNSBUsBBI8YtBa4proiOpMGplK2AlDQApSRA1OIYNcd1dNEtk0bimEyUTqpTNSuEZQG8H9+PvGKyCBdlY6/EHtUyje/3EoiDUI1NzMACwrKEtB5pj7wqLK3V6parXbovA7JVXlCDZRF4ksctIe2UxKCAuKP2IrEDAdRgkyIp5VottmdJRQIRC2itjoCilJyLmI/yXlwXkDVANStwfTmrR0dEoH5dKl6yACapS0k1h4jUrwCEMXLoclgVR00qU1tU2QrVtnYli7JAFNttYoXGtlSmUCcqSUsdm7zENAMAQzkAmIgBYGo5AudZ4Kb2FMnEGLScwazgaDsIL7kpv5W7NZstaV9zNdITIBFhAqAWC6ikw1iytdozeLal1rP/DMB6pFOPeRYHVn4WgOFDkMxXqFPyJRY4tNXmDGgLWHrX6QypV4A1QJwpynNpFgFW5JZO01tA/pcADFtxrCiok5WVIO10OVaU2Pu5y0UuWV2KuXewlwFqK3uoPfaXC3W0/WHgjEvVltFlKiOBS87OMJiLmZdwRJN8DqM/OXR0PftP7Z4n9mjHTNz4EBOCDdux37psr71NOI2FtPxg/fnEbEfo70xVRxdOLzumSXiJGltBbUvs3xiFMTia+5fSbxvWbkeKye1E2ys0/QYA9mQG8BJHMiz3LyTzECZbTSLV+jqNh+hBWVs83aeoRBK29/uU9/uU//o+ZVKJlqg0+ukCEhWTTaqWMCCYo4SsU2fkGeODVa3s6IZcs7cdsVGAj53hZ7rYyJags3b452MnypNpB6HFrKWNamt+pc0ddNm0j9pHvrUCbrLouOCafWrGXolLY7FZzUUC9tHuh11Qwd7cEipNojgNIUrrEuwNaxyd7OI0/zral8K+jazBXMffb1TRU5WO1eZDoKICezP7xn4DuGb/dx+X3rTHw+lL1t324eHwIez8//bLF346fDULH38D);lineShape=1;" parent="1" vertex="1">
                    <mxGeometry x="202.19907209684442" y="130.5408761302879" width="2.3747191869890703" height="1.6317599206386426" as="geometry"/>
                </mxCell>
                <mxCell id="210" value="" style="shape=stencil(lVjZchoxEPwaXqckzeh6dpz/cJVxoELAhXGOv89ssMhqhHvhbb3uFnNPa1f88LZ5el2vgns7HQ/f17+2z6fNir+sQtjuN+vj9qRPK35c8cPL4bj+djy875/Pf78+Tcjp6cfh53TC7zPPO0fOTbTg/ny8Il/+vfh6Juy2+xmhVqoG74gxoXBHCI7EQ0IuPSGTZEyQjsCRUsUE3xFEKGIfPs5rhMiUEySE3ukUKCJCId8TsqOETErNgAshU0ZOi81DYSoBELyNUilUQeJKptQTKpMDPpRAPvaERCKfE7L60Gda45YAISUKuSdcyvEqIWabh1mHXGVItmHSn4ggTFwoOOsEqo1QW1AuhNzcuk7wLewXQoRhclT6PJQKi89REIsPEG9mjFYSKj1HXiyeQYS0Vfpe0FKswF9P0Vl8AjnW3s0Wz6DX2PbmhAf+SrN2hhdgTxriqfaD8xMVP8QHFJBaO+QL+avWhiG/IF95yG8lBi2TWkPN8BngI8V+XFetQIAXkmTxaAkyhQEfYP14P9gD4q8rOFh/Czj/slBneIH95Yb+qrh/o8WjEaf2DPgFf/t8aX1mHM8Bj/YGt+kx70ewBaTN4zke1LNO12E+RHB+ujJPClpjd+LVAVugDAuUPVVDEMrAA1YZ2JeorpgaQUjLsCYT3AG6iZ35BZy0JDbLEwFUdfbEg/xIwAdVWDLsVQ/qugRbSDXAQVdU/xiRVmAnT40+qDooNH0L4kw3Im2gFqfeaVWmEclx3X59WCfti4SmtGF7q7pWQh/WJf0uduEs3RCU0G/ApTuI2BG5dMvhNnFvvUepWjcEfFHjtuIb3rWb22cemCuLqirQbopP0eCRRtBWMbIX70zFF3s+2iF1GJJYt0/Dwd+DL3YeLdhTbN8s+DtcGRfiWcf4w3zVdnm7rR7u/jJwA0Ef/n+IeNnudufvGPP/2w8X+ur80YMf/wI=);lineShape=1;" parent="1" vertex="1">
                    <mxGeometry x="202.74005106116346" y="139.33589884664823" width="1.4115656802684102" height="3.6294036161533776" as="geometry"/>
                </mxCell>
                <mxCell id="211" value="" style="shape=stencil(lZbdUttADIWfxrdnpNX+XlN4D2YIjYc0YUKg5e3R1mOIlkSd3vnv88pHR8c7yc3L9v55MwV6OR0PT5vf88NpO8mPKYR5v90c55MeTXI7yc3j4bj5eTy87h+W8+f7/mQ/+nV462/4s3CNUEKnAr0vV2JCan+v3C3Abt6fAxmlGCAJWnWAhsoGyIKaXSCJAUoEeyUltGyAqis4QG2IFmiMFh1AVbIltYLE14FCyFYlJgLRdSITJNolGtiRKRGq7ZzqQE4jooBtI2oFO4BUkAVK84EMsrrmBhIHKGMjUkV1VIphXCGqW5zO6W1pFggITklaQK4G0CKzs0KuaMkCGSE53lARrZlU6OB8dG+TXUFbGfyBoGFG6V8zykPjCLFcB87c/OkNWoPh8hI6MBbQofJa3UdysGtbX3FZJh36YUg1GJySeqzYkr6i53KrBeXbjFYnBjQa6wBofHozmhCHoVZZHTN1QP4HkDima09Dx0whrm7+BBKyE0yc1rQ+i43ofHRBtW4tDHHaEMYwzrym7cXn1ar2AxKvKXLteWuLSODg1ZNsYgRfUc0TWz831xQcR4GYkZweBxmBBHEmRz0x/Bm0AY6garpBofHfpgdfO47HebdbNizn98cdil5adjdy+wE=);lineShape=1;" parent="1" vertex="1">
                    <mxGeometry x="203.75780495619722" y="138.06027904692755" width="0.1919559343692693" height="0.192544790962175" as="geometry"/>
                </mxCell>
                <mxCell id="212" value="" style="shape=stencil(nVjbchshDP0av2oAgYDnNP2PzMRpPE3jjOPe/r7aujQrYR83fVuvdVbXIwk2fPP6ePey3aTwejzsP2+/7+6Pjxv+sElp9/y4PeyO+rTh2w3fPOwP20+H/dfn+9Pvl7tFcnn6sv+2fOHHCcdMpS+oFH6e3gSS+vvFx5P80+7Zyodi5Jl6B/KJRIx8JUlAPlNjIx8DZQRoFJMFMFVgUc7E1qJYqbXLgBLH3wOQEkWgoXTqVkMSquEyQBolq4EjMTCp6ves0ywU8mVAK5SiAeQAne7Rm5TL0HkeIMRWQ1ENBQAaZVtJpVAHUeqd2AIkUogQUG0tiVBEJnVqlgxV84BNcpnWzBSsoVsNLUJADIFCsAihhFRUKtkAeqDCAJBH6fwFZIqgmPR7wdaGJv9PHM5XX500NAjgMgE0+cAkBXinO0VQG1xHca5NAqnO0ReTAhAhsnJUPECASSVRnjQU0IuLtr4JIKjPsCf14gMwSSrxpKEBk0QZJD4PAXWyMCxeZxqZ1Ck3DyigNJTzEj2gIkAanF8BGur34km90BxPlGSrdUXz88VU/BhdVAAnlvaeJifQHK3eJgUIaBtKuTR5DSd1oVgnjoIw6Uxz7fhK21Cnz9Q30KC7gM+cMgiEVWdaiR5QUKq1Wdf3AHSm+Uy38eZSfc9doGEGpYkQaI4qR8tUfAmUxrsBOvlTmnxATge/PHSBHJU8FqrVkAsIUEejW49RQFF1mq0PVwb1AnCTHe8CCnC1tGwbIEoLwGq4ss8oIMwbE8pDH3RZ72SgCUjzm+uy9SGADLqs90qUuDi2nfXmiihafC1pH+lgyOlk7zas2qki6nyN2LYZ3e8zCGvS5m5NWk4QwIcUxxxfnVESAOghqU+nINRbq3dBv4DWeyaxaVvOcSCoGnKbNXxODH7fw8fQaYnGp1w11R+KC2iQcVTwmzijMeWbXRgvLkQ+iRNHm63GuWUnj46GMVOtXh70iNj8ZoHltRBreYc9Wuns7Uf+KlfY24/CqdQTL4+yxTzU/1sx/MeNyhV5fXi7vnnYPT2dbn/W//vrHn11uiri218=);lineShape=1;" parent="1" vertex="1">
                    <mxGeometry x="165.19618534065904" y="130.71788387765966" width="0.2572476343415585" height="6.394265630255566" as="geometry"/>
                </mxCell>
                <mxCell id="213" value="" style="shape=stencil(lVfJctswDP0aXTHgTpzT9D8yE6f21LUzjrv9faF6aIug/DK+URKesDxsnMLTx/blfTN5/jifjt83v3ev5+0Uvkze7w7bzWl31tMUnqfw9HY8bb6djj8Pr5fn95dZcj79OP6a//DnghOhHGaU57+XN55K/v/i60V+vzss5GulUjp5FyiX+4BSKMZeQSIPNGRpnxsgBAr1PiCpC9IBYiBGACaXOkAKFMN9QGRKvdM5UAI+BCapHaAE8nIfoFHPPaB68sAkF6n6DiBMDHgQqj3PkslFQDT5njbHqoCBRRrDPqqSqAAa1IWYLQAR7ZIlWgEO0OAKsRsAKKq1sbQAIN6cNIsXgAzC6jX3yiM8KCCJBRTgwwwwJhUKn5iULEBQlNRpA6gUPQ7rAEBdxmWSYgHQJI36oKEi4mKzeAHIyKSwAkB9zGkjjTasBUXJD/VQyGFANumdKeESdUO2CkgNjRIP9QA1JNu85wJykGnTWucSRYBCdfDBoygJcRx8QBqEZGhkApieK44HHoBJCjBDd2Yal2gYcwkRJyv14MF4eBhwHQZXeSEHMkOrwWSSTjC0aLS/XQei1ifOvNo7UJkqimkk32soDgJ0DSk9IHvImq4hRkPyLRfXFxMNUu9DdK37r+9K3jbW4FoY1rcxtvXpQ9O5ToOz65t2HcSzqIu9SQ6OXJU3DYDheJNgRzRTRPZEO90Y7gy39nOTZ2RPbj16IY/sKTaxufXYdflKbP/vwZI0zz1rf0LyYucat/Z3T94skg4vbTx0ClxmqkDsjSSAdv3oDeZzeT3crktvu/3+cttafrfXK311uZqF538=);lineShape=1;" parent="1" vertex="1">
                    <mxGeometry x="164.1581696857038" y="129.8382761048872" width="1.0364341697888575" height="2.218269341495646" as="geometry"/>
                </mxCell>
                <mxCell id="214" value="" style="shape=stencil(lVdJcttADHyNrijMYNaz4/zDVZYjVRTLJSvb7wNGGYYAxU7lRlFoDpYGGrOTh/fD09t+F/n9ejl/3n8/Pl8PO/mwi/H4ethfjld92snjTh5ezpf9p8v56+vz7ffb02Q5PX05f5u+8OOGY0p1AkX+eXvR9U36/ebjzf50fF3YNyrd2BehAuxDoZgMQBpNP7cAMVK1HqmPPQBAJbaAEEnqNkCEOBhAIi7AvpPYEJiYt+1TodCsQ5RBxFlIrD+dAgi4sE9p6LAGpVKKtgZxpOAuoGZiC0iZOgi5CUUxgNypgpz2Tmx51GaibAFysYBKsUNAs7Royl3gUuC5rIteiCBNekS3UfdAFftUbBBdYDMowOW1JxKUV43Rcq/nkektABcPEOSSkimvTsgAUEb7LmKAlSuUus9SQC6tZozWoYAJ0FcdqpWGWSojJwsyZUTXMjpyQdeATqgjxEVD/HFyC1AtW1umgtjaVjFkHEPzhVNAx/ROqxjQ2FBA7T6tARVOO84WrvVB+E2A07dAEZ/g5KfPgrQFEMfWNKbnVlrdYFIAzFIbHi9bFAEqlVWLRgzg5l3KmK3/B2hhSNq8NzQoclWzbhsopzEL74tcHsyZNYuhBOXmO051F+0BOYwQl7oLACqaxU7vIGOVuA9gX+kQxn52fzXJq90nwbRqiMUFHYaw3gdkLyi6AjLoOM1JtoCUsO5GCpatlWHQydtPfAfck0GD2b5RBTlSSXbc1rmGUkQ1e3vUz3EIwVwzxgtl8FoyDSmguNpr4u2RlLDf6SepAP6w34cn8YLfd72v46hBe7+HJUrY3sUrcCNhX4BpXYDfT6ttAd2R/n2n0oe/F7KX4+l0u88t//cXOH11u/zJ4y8=);lineShape=1;" parent="1" vertex="1">
                    <mxGeometry x="165.0154475070405" y="129.9978487748996" width="2.0795251282893576" height="0.8110524984900302" as="geometry"/>
                </mxCell>
                <mxCell id="215" value="" style="shape=stencil(lVfLctswDPwaXTEkHgR1TtP/yEyc2lPXzjhOH39fqKomIhRD1o2WsSSABRZkRw9v+6fXXYfp7Xo5f9/9Ojxf9x196RAPp/3ucrjaqqPHjh5ezpfdt8v5/fQ8/n59GiyH1Y/zz2GH3yMupwQpDTBMf/5/gp7/ffg6Ao6H0wzQV2Bnj8A1ACggNQAkUA0ABahvAISQKQAIaG0AbDFELgkQNwCxE/oQkHIDKAgSZYm9S4pAkUsMpT2hImDkEgO3WTJmsAQAC7F4QMXbgCrA2AJ6oHwboAy9eoCm24BiNCUPiIqPFaQNela/nyKIQMgfUQMirPxx4ZMEROQ87TcD5ICIAiKehxKUt0zdMrNPUf9AcbTplIPPA9CJpBkgBQHYCdl5VECDSmKEmj0gah/RBQkxQBNU2eKSdRdtCrpPU//emVZrUKd7a7wR8LIwgqBrhbxo0KjytIL2HhDVdinAxQOi7jEd9dNhrUEtKQufIg2wfkiLqCOVyQyykKVQx6Cy5yESSgHJ3j5S4u32bh6ujAYBbBO0MntMttv9V4abjaq2KFamJ3t/VsYz+VG4Mv/RC+TKBSND2XSD2XhDyr6Nc7i7yTs58xSptXHT6lCCIkFyFtGakAX7W65RnX0OmoVp4vLDPup3KVN499kX9fmJ/TGN47wh3qrAfv8on4Ost/mJ+bLeli3lsPlCfgfAFh/3/5fD8Tg+H+b/+/eCfRrfGvT4Fw==);lineShape=1;" parent="1" vertex="1">
                    <mxGeometry x="165.37206909244816" y="140.74292226923885" width="0.08641750525759757" height="2.2066986165215985" as="geometry"/>
                </mxCell>
                <mxCell id="216" value="" style="shape=stencil(lZbdUttADIWfxrdnpNX+XlN4D2YIjYc0YUKg5e3R1mOIlkSd3vnv88pHR8c7yc3L9v55MwV6OR0PT5vf88NpO8mPKYR5v90c55MeTXI7yc3j4bj5eTy87h+W8+f7/mQ/+nV462/4s3CNUEKnAr0vV2JCan+v3C3Abt6fAxmlGCAJWnWAhsoGyIKaXSCJAUoEeyUltGyAqis4QG2IFmiMFh1AVbIltYLE14FCyFYlJgLRdSITJNolGtiRKRGq7ZzqQE4jooBtI2oFO4BUkAVK84EMsrrmBhIHKGMjUkV1VIphXCGqW5zO6W1pFggITklaQK4G0CKzs0KuaMkCGSE53lARrZlU6OB8dG+TXUFbGfyBoGFG6V8zykPjCLFcB87c/OkNWoPh8hI6MBbQofJa3UdysGtbX3FZJh36YUg1GJySeqzYkr6i53KrBeXbjFYnBjQa6wBofHozmhCHoVZZHTN1QP4HkDima09Dx0whrm7+BBKyE0yc1rQ+i43ofHRBtW4tDHHaEMYwzrym7cXn1ar2AxKvKXLteWuLSODg1ZNsYgRfUc0TWz831xQcR4GYkZweBxmBBHEmRz0x/Bm0AY6garpBofHfpgdfO47HebdbNizn98cdil5adjdy+wE=);lineShape=1;" parent="1" vertex="1">
                    <mxGeometry x="165.2405585642602" y="138.8517279749452" width="0.19195593436930403" height="0.192544790962175" as="geometry"/>
                </mxCell>
                <mxCell id="217" value="" style="shape=stencil(lVjbchoxDP0aXjWy5etzmv5HZkIKUwoZQm9/X20Zh5XNHuBtWc6xdTuyvCt5+ti8vK9Xnj9Ox8P39e/t62mzki8r77f7zfq4PenTSp5X8vR2OK6/HQ8/96/n3+8vE3J6+nH4Na3w58wriThNLM9/z2+YfP7/4usZv9vuZ/jqKUaDd5QRPlKx+EDOAXwmYYOPVAvAF6pi8IUErV8p2fWdI4c2qFRsgFygiDyuVDtCoSCYUA3Be8qA4JiJrRNew3YjSjYLonlEYUoU7A5SWqEs1YXLNs9C1S8TtPA6QlSvgEm5UvCWoEsAk7JWsnU6efIgSol7LSR1ui4TgpoUDCELJeC0aPUVSyiUAiA4ErtDEWiSyitZp0smjqCYKmVnCJUpgLC6SNHmoUoz8jpBKFsftClURPCUbGmoRDJDgvieUBBhCOtEQAKiMuAriGqmOnhQQdpi38VmGr9eGC2C8w2AAyrPOuBBj+EWjnmAgMNMbrAngypS7wZ8Al2VKbkej7qwnkqD/RHGMwwVFECNRpIhwQF1r/bvnfhKEh+xx/GVikMOq2YcDwRQQZMqpSeglCkhDjugWUFVmYcdCmpFTPJQVZfWne9UTerxt2QZWgjv1L2/4jHqK458GiIEHOA2DM1TAOwZBosbnfdRvCPu4hPhlOCHNiRtPlyQWb8+N2Ev1SjbDE/HJXKgUO4IeiCDkptMsinTIx/pTBIVu4MOFajVhdzGy/nYgnpX7pvpNBgBQkqUbTeaRi/gtFocrDAD1sE03I3jI8iDRj3ZHQQ7rfOmt2G9MQJrIXh7RN0YsidCN5X7NvksEVzXXvBNQX3orxb4LqKEK7cdkIei1zVbGnqdQhaFNrN/lhIc4otvy82ug2iOKv2x5mBZZN/EeLnOwmPZ9Q2G2yi5tL6LHR4pR/GdmLlde5aEU/r1HfI3tsvrBY+m/Zz6WZxbA1yKf+jjidpj4TE+EO/G+CB7VPYy4JEAPvUxiydaP7aeMMMjvTz4+eQ2Xh8u32retrvd+VPP/P/+246+On8Xkud/);lineShape=1;" parent="1" vertex="1">
                    <mxGeometry x="69.60293061015597" y="149.12570829730672" width="0.8015756826451363" height="17.03027756436087" as="geometry"/>
                </mxCell>
                <mxCell id="218" value="" style="shape=stencil(lZfbbtswDIafxrcERep43XXvUaDpYixLijQ7vf3kGUosOv6D3jkyP0skf1LMoE8f+5f33SD8cTmfvu9+j6+X/aBfBpHxuN+dx0t9GvR50Ke303n37Xz6eXydf7+/TJbT04/Tr+kLf2YuUuYJEv47LzBp/L/wdTY/jMeF+fRaOvtALm/bK1PMnb1zxGkb8Ew59kAh4W0gOEr9iaSQgiNFIdUO8I7UbQNJKPneZ08KjpSVSuiAmKkAp0uxWSiRot8GHDOxIRJ5kLi6RUo9kElAmCrg+jDVFQZhqt9z0QIB7RBtmCpQBAChBeWqjVsc7hM1UastMnJCSVZeK0pdVVOxcU3ICUfF2cwVkOsKmIqogEM+yMqHCAVegWJ8qJFWGFYOFnAICO0AV8BTxtqIugIKAFL73vJIKHG5aW3pNC6IGFZhxUAxR0qwWU7aXGmJkZbKPfGhKGUKxulCHkkjNfUvCwhlOhKbhv+4Rm1nqoFDgFJYAQFVkKzElFvr2QJ4BQiuoM8BKdpEJEcCfIiBpE91iJTQveitvn29lsAN4T2FvkZVyAMxqdpbS6Sl8v7w4NtNftVGgM21vja90jE54HRtxuamJg/E6shbc1RuTMkMDuRBOXNL6DWerZFvmJsbXWGzYKs4eXAYM7e5lrwN8xyMuQNScBT7PDFspUJBjTmap7SNETdzOELakRP3n2DbD5bYJwfmh+b14Tabv42HwzzaL9/bWb4uzf8D9Pkf);lineShape=1;" parent="1" vertex="1">
                    <mxGeometry x="67.7221659530558" y="163.86059553504296" width="1.276944958377351" height="2.0242162857781287" as="geometry"/>
                </mxCell>
                <mxCell id="219" value="" style="shape=stencil(lVbZctswDPwavWIIELye0/Q/MhOn1tS1M47T4+8LVSPHhKzt5I2mFxSwWBxDfHjbP73uBglvl/Pp++7X+HzZD/HLIDIe97vzeLHTEB+H+PByOu++nU/vx+f59+vThJxOP04/pxd+z3atUq6TlYQ/802iLP8uvs74w3i8wddMsXV4VpK4bVCUNHUGotTatkE2B3qDGKnmbYOkVLgzUPsCcEmFWu5jLiTApcgUepdKWJy8a8CVuHQGNZEGEAOl0OFbowDwFrJ6fEIRUGWPRxTJPTx4n6lGjy8gZ2F57QYvEB97lZpuE8QHx09ZRLKFd/7nhYEtf9z7adHUVrwrvCjis/T6aZZxmK8SPV4r0oPXj1ICZa++Sxi+Av+TL3qLVwGfxl71/DPwP5M4fZalRDfwvMI36H9x9VihnhMF8XpWyCev6gXxGYn7fHEIsEEIcVp9oCDByQqvgNBAKXmCcMGweDzy/xrdTcIYvi8On+FYCn5mTAKFBfw5PMelvq8TgGEHnSTaSyIXWAKxekpThENJTQF901VextT9orGg3SQOuMqaZ8l4Q7KuspIFbFvWdZxMbQ4DUg3v+kqAg96SWprDo4BNZFk9HqjaRKzeHwYqtSKR4vCK8c3z05A/zfvDpIifa5e6Jhhq9KZLfRigvWNaM/rVLOIErxSnsO9Oa4ZfdwMogc+ux//H2+FjF38ZD4d5lb/93+/udjXv/fHxLw==);lineShape=1;" parent="1" vertex="1">
                    <mxGeometry x="69.69583065907409" y="164.3285630452072" width="1.6517076430586644" height="1.8540609842639335" as="geometry"/>
                </mxCell>
                <mxCell id="220" value="s1=abc&amp;nbsp; s2=cac" style="text;html=1;align=center;verticalAlign=middle;resizable=0;points=[];autosize=1;strokeColor=none;fillColor=none;" parent="1" vertex="1">
                    <mxGeometry x="20.950000000000003" y="160" width="110" height="30" as="geometry"/>
                </mxCell>
                <mxCell id="221" value="" style="shape=stencil(lVjZctswDPwav2IIErye0/Q/MhOn9tS1M457/X3BauSKoL2u3hxlQQFYHEttwtPH7uV9u/Hu43I+fd3+3L9edpvwaeP9/rjbnvcX/bUJz5vw9HY6b7+cT9+Pr9Pf7y8N2X59O/1oJ/ya7Konrs3Ku9/TE0c+/X3wecIf9sclXqhyh2eqGeATxf58ISkAn0mkwydKAvCFQu7wlWIA+Eoh9v4H8g4aZGOgLkZoYDLkPQX8hlp6g0wJvIGdI+c6ixBIUNSFiu8NNE2Itki1p0H0CQqCiVNnEDVqf9+gyFw3V4MCmc6alD7oJFRAKaVK3AedHVWQ11htreZEud43kEqup7poOwGXQqHYU10SdMkrcX3QLdEgrdqObAyEImhojiQ9cdqCDGqJeR4QV4NCGQStxWrwlRKoPUfRWXwELKg/ZcCjFM11ucCjkRQo8oAHGRXKYQ0+UpHBf9BqWpMjHpyfb8QLG20eoAt8BgWR7URVfGHofx3wgN9o52kbmKBnZH77Eg/OD7brF/P1TgHJUKAVFBBTGAirgABtgAFfYMO4oQHQ2Bq2R8ODeB2FIaEJNJib070sUBCvKohhQAgkjFc2ZFjZkDL4j/xJJHlNvDpfB3wCDZNvDCDE11WfLPGgPtfihbwZKLq5QX5Uopn6zOSQvhFyhjCZU3xv6dmRyPMRtyuI7Y7RPYxaTNgOobbpAWeqfkxRNC0BXEpsu6apFcSys7Q1PYTmdLYisCku8IYSrEsalUdEqxDoO1lVIxrtSlMadSm6fni7PB4pX29L44G4VoPUp/WRfPeWh3ZBwDGY+duuIKCW6lW2Lu44IISi66XPqt6hgENKmxX7UICUbIW1RgTmnUp97v1380T+bzy6kyreDBg3X2rv4Y3iclDxlmEh6AYFw0JniR/w6Pw807/Ag3pQvtjGi/SK1sOQT3R+HRQ79l/xZcCjyyXbhYbzXweBgPld/U3jIV5//PuA8rY/HKbvL8v/2w8u+mj6WBOe/wA=);lineShape=1;" parent="1" vertex="1">
                    <mxGeometry x="51.766428647822465" y="178.83261849457517" width="0.8594404916780779" height="11.914464582364626" as="geometry"/>
                </mxCell>
                <mxCell id="222" value="" style="shape=stencil(lVjZbhsxDPwavxK6j+c0/Y8AcRqjaRw47vX3na2hzZLrHSNvzoYjieIMD+3i3fvzw9t+F9z7+XT8vv99eDw/7+KXXQiH1+f96XDGr12838W7p+Np/+10/Pn6ePn77WGynH79OP6aVvhzwYUoLk+o4P5evnTp5f+Hrxf7l8Prwt53aUHZ+yiZAZr4qAFFSiKAIrErQHBSAwEkydqFkKWxHYIUDYhBQiUAHCBpAG4pbgOaNO1zapLIiYp0r+xzlUjss/ii7EsRRxyIkpqyr0kqCVqQqM/Tgniyfhi7z/Y4P1k/S9cBaF4yCXEXp0lXM7VHhE0ASh1XtkU6cyJEIJAdwMmmrzSV8eU6IEnSPkTsSWIcqlUavpROguyka+FArCwKMUozAE+VhhNXzbsshfgMlTStGz+Ud9U+RfHa3olzxB5BbWZ9FoMMnhodSCHrgwMmZj7T7FjggIkZshnZoXSbHWMTR1gB4gcTAtwRORKUZe60eJ67EGQthTp7dV2cfqXmKJ1ki95HAZhrThl63QI0U6SgTkIkAHq1gEqY4d3MtBnRqHj6XAEWgM6uqVvx4Esi3MC/c7CAyu81JAuggWgrH/rIIVsAG7m5H9gCmGI+OU0CAUDwFuD4DkZy+JK40xZQRx7cPFK0gMjY12zaAL87i3QbaXQByPxIlt9FEhdEWO2Q2A59dHULQPWc3t3ekuf07skCWDa+rlFW1fvcyy4A9UaiWQniRqIpK7oWfqS41ihPG870z45XxQ8flyLlbEp15QSL9acBTrL2GlUmEpG2PJLvsuMjeaN226KXJJEB0PxoH9AdsEEGHaTZIcEr4gPqbNU7YC7ohEy52LbeN1oXsxen2YdJhaVj9KhFZ6Y8Pmw1ZEmLOlIm4Ua6VmiiZRfNjmngGs0ZMVviYfpkox4Gu6w3QIvI8h5GjWSGSYiHUBsNntcuo+tlHRyGpax9SHMTuDVBm3E1Q21sXF0NxGgz2435Vh+ptrHEdfGMUjCHLVOfsy3qrfNHg1WJ9pTXq8KA+ZOdx0nSQpu6ZOKvt20PskcmpIh2fkYyYp3bfHtzhDPt0csoGYvhk2UWpBHD0TbGiC1CmIYEw2Vg/fNaZ5Em+ImjZjSsNMSY0M0OkD7rwibZmOnWiWdK9rYiFPoIAyEblhY6J02vKt3YOxJk2Jdi7dmjTbCsKEN21+3j4PyHPWucp4iaEkurU1gVj0pf2WBvEmMdk+imvV6/3VzfNCFUlNP5TR815qstezOad/rQ+dmn19v2+PHxzvt0eHm5PBMv/2/fhfHp8qYc7/8B);lineShape=1;" parent="1" vertex="1">
                    <mxGeometry x="51.43524366157794" y="178.22967180577" width="3.2702515792676703" height="1.7371587959305963" as="geometry"/>
                </mxCell>
                <mxCell id="223" value="" style="shape=stencil(lVjZctswDPwav2JI8H5O0//ITJzaU9fOOE6Pvy9YD2URlFf1myxhTWGxuLRxTx+7l/fths3H5Xz6vv21f73sNu7Lhnl/3G3P+4tcbdzzxj29nc7bb+fT5/H1+vv9pVrWqx+nn/Uffl9xloldRbH5c71jiOO/G1+v9of9cWYvj7Pt7C2VDOwjce7sPUUL7AsZ7uwjFXff3snxqX8fQwYc4DzZ3mHrqAQACFR8D8gUgcsuUiwdQHy2DACpvXEDOEO2QIDyoZ6JXkkAKgqOAmIpEZsOEAw5FAcB9D4E8eohQHTkEUu5kTgBCvTBT2/cACmQAbQKJ7Z3OhsMSFqsWdQNnA6sXylnCgiQdXoWEby5D4iBuBdf8ZTSfUBiyr28i0QGxCEVirEH5JYhi4AcmjYnQKEEnM6JHGtAAPIWQC4a4IHTWapM1AAHAMVQshrAQBqFKaYBAAprDZN7CBAXaHVAGhKmkVbotJA4sIRotUbyxWhEQDQVygNNCSS1PDZDqDOQq6g5BQ0o6ISgO0oFIJqm/nFrQRMPy4gph+dHIJpMq6VzAEohKSuD1xl0OUmhMPCaUFYn3dgFEEEgBBAHHwJgSXyIQ855RKvRHaIKHGmDF+TKKNSezEArA1olScdCw6CUiVzz6AOIgzy2fmAJA8ZiGZAPkzbnkcZ14zFA8rrLrWVQzC2HZ0egVh2nMXXW5tBAEzw5FTlPGdRjGQZYacPCuuGtrsc1a9EUF7QPddwAr+RYqy8bOIly0UktI5NF43rSJ6wMZTLOK7mujH0jYGWwrICe1pXRVQDmoeG4AtS8jsdvDk05/zngCyD0hYmntWUZ4PXOUZcUdIKMff0JdQ0CapXFL+gu14rh8jCQyPeACDdF6yn0JHnoQWlT6kRR23EWzae19rbnolFmGGREQ/DfrdXmoHwJl0mZMxCc1aXItJxYDlWr/zdzA1x1rc/PzFFh1KvkSqXWwsTmsuRpVw3q4G17mpkjTQ5jvIHlzdo20szskYYf/Jqybi8Xt083b/vD4frlZ/5cf+qRW9fPRO75Lw==);lineShape=1;" parent="1" vertex="1">
                    <mxGeometry x="102.75205392531348" y="179.96698563937093" width="0.5574040108070432" height="9.505446580480706" as="geometry"/>
                </mxCell>
                <mxCell id="224" value="" style="shape=stencil(7VjLctswDPwaXTEkQRLkOU3/IzNxak/dOOM4ffx9oaqURcjaTm495OYoWBEgdpegBr573T+87IbgXi/n09fdj8PjZT/wpyGEw/N+dz5c9NfA9wPfPZ3Ouy/n09vz4/T3y8MYOf76dvo+vuHnhKuFMo+o4H5NTyIF/+fB5yn+eHhexJdM3Md7R0m2AZIo1h5QqJZtQBaqrgOERCVsA1IhTh2AI/m6DYiVXOhrZoqghqgl9iklJg9qYCYnHSAHElBDyOT7lCRQ5W2Ar8S+AxRdAaTktcS+cdVRRgBH0jeuJpIMAN6mpORyCa8QLSCDFSoVk1GFbShUnI3PDnCVEtv4gqhKPhstOHJggUgidoEKCl73rLY33KYRhWjjI2LRKr7AfFQHwcYzUJruhmmYQArNu7eId/D9Nv9MMUKK/tXIQgQFbai6YZ9RibDDrAX2AInEYIWkZtSnlFWXyIGVAr3dqXsJkJmWWKsFBAQIlHohRzUjUENVv+UVAPRhdBJnU/IoJeVBtIAEmDFaj6lBWwkcWAGG2wqoKKViD4WoVQGxaQ21V3/M8NhRMluANLJsbWsOFpAAl7RxLlmAIECwjqQAaNlKvlVKSA9K71ztLhWwQilNwQsAOv4VYGxeG4dcUgGyogYqWmuIhnwMfVV3Ka3oHYHNVH9D0w4pbpbLUqJID6lt4nIFpIe8Ip/WgFaQJpflLmFNR2f7IGiXtNP9AT12GimuWLtXLgWsaTN7jmxFNbwXoONw7KmRtZWgD/o+M1WJtKo2h1UzSgrcJT12ixkDIpzQPybDj8nwP58MVzc8pTQjlTVrmzVT2w1ui9HmSCgqCnT9Eksh8e2Q2BpVDSB7OFOxt4adfEty6xps3VEBoGl60Tb+q2uiW21aneUj0ZHOcvuWMAstt+8Nt4Vc2nwzbysFNFKp1/Xx84Otg9ncMBzcUx2oqn2/R+d4bD29xiNf0WPcENU1t988xbPNBxmv3KgXT81i80HT3dWm5gbD8XH0ZeO88Cay8OWZclBm4wJ9QowbVomNBvCE/c4Pcv+O1x/Xr39Ph+Nx+ni4/L/9WqiPpi+NfP8b);lineShape=1;" parent="1" vertex="1">
                    <mxGeometry x="101.94121532903364" y="179.8248690538034" width="0.6682339758152991" height="1.3979764777295014" as="geometry"/>
                </mxCell>
                <mxCell id="225" value="" style="shape=stencil(lVfbctpADP0av2r2Lu1zmv5HZkIKUxoyhN7+vqKeBa9sH+DN2Oeg25FWO8Snz+3Lx2YI7vN0PHzf/N69nrZD/DKEsHvfbo67kz4N8XmIT2+H4+bb8fDz/XX8/fFyRp6ffhx+nf/hz8hzVORMCu7v+MILxfD/zdcRv9+9T/BM3vV4T0nW8fpZSkfIFArAM8XaG6AY1/H6OXCHd+QRvlBIBu/cOj5qeMn4UyrAF5LY4Qu5vI5PgbJJaGglWSYI5T5gjYBBRnOi4jtC1BQBC8VR7kuQNEcMCEyujzkrASSJI3HvUq4kwCVxTTSXrFYqoMxSiPuycaXg1wm12rTWQgU0ghKMsKv2BlK2uyhtwmAQtZqoxiehBKJWAvfdrG8cJqRoCRkRhOrMgoCozx73MUzysMxgqtmaqMgntiaUUJBP3NQ5IUBxaFNnWwgkPyXwTBwVdMSCBR2EYG4sxFCwmLjN6QkhpofqoKPsRqlnFmClpeVkQvDIpWqHsRISmEwLDVFaT93bctwGw91dLRQeGxxCgqPOhlAp4rnhkyUwilrVPG85ZEHIh4cI3IbpvS4xBTcL+gbBP0KQRKGffaK7CpAr67TuCRzaMrFM8O1AuJxaetqDpi6p1fVyLoZ2Ui6f7UzSB637RAEWsobY1yGG1ubL60a2ag2RKpB3rHaSeV25gIWYKPcxeAflfV1friuWAI/0s+/HTG6VX27pasWd4Sj2GkCPF9yeVMyJmMkBGUVKfX5CaA6u4M1AUjwakqrJZPFoxQ3N2wkeLaC+af7O//f2ZLvh/+wKcyM/rlXzgvetIit4IwfFoyvG7EDQN2inmuFVgKjDZv4oHl2RZvHqFQ9tCo9eCW/j9eF6/3zb7ffj9XX63d5X9dV4143P/wA=);lineShape=1;" parent="1" vertex="1">
                    <mxGeometry x="103.17285574083161" y="179.2606556141347" width="1.9281813324278538" height="1.561277432541073" as="geometry"/>
                </mxCell>
                <mxCell id="226" value="" style="shape=stencil(nVnJctswDP0aXzEkwQU8p+l/ZCZO42kaZxx3+/tC9VAWQeml7s2xHySsD0t2fPf+/PC23wX3fj4dv+5/Hh7Pzzv+tAvh8Pq8Px3O+mnH9zu+ezqe9l9Ox++vj5e/3x4m5PTp2/HH9IRfF7laqaZJKrjfl28cpfL3i88X/Mvhtcc73+EDeQ/whXLu8JHYAXwmjh0+U0D4SLF0eKGM9PdUpcN7TwUIiJDUXiARZyCQmsKzQKUIXCTOqhSYKm8LFHWJERAqwEnFU+idykwJvCFncr0NLMQCBBwV7sPM5Ou2QEqUepViIQFxSK5p3ARSoAhsiIlKn9kpkwAvRW8Dp1ZVEGnO7edZIJGLQCC0uM4C0mK/KhCqDVwJMNIhkfSpocnigQ1avtLbUOZ3rgs48qbgPPSSL1Ylia3G1wUGG0RJAUTax2biLFBgAfnQEmEWUKMTEPDN602gOmIkoPXQB06JB/Ie1Z5Wq/IqyIwhMSrD1FNWDBYviJTI9ZmqRJtAlAtFo09qJLVOGIN/EqwE/dXgc2ssG3jXF782ogD4KNrar5iO2FJwFYqoMFv0F3hUNa55e8bPjXoDH9OAB/Zq+vb54J1rnL8hEPxtCvkBjxzqWvou8AU6yHQoxWdQ887OLYqP0EE2gSps+2ovWzyiFPXngEcFP/PNEo8TQgY8Trg66B8QPg/PZ0AoIyFW2L5di/4CjwbTtecXqE8e7BWoTx7yrUL/xOH5iOBcy64bCnIwuEIH+REPn++GAKDxaa3A0CS+VsBoJnVDR6qQcdXe4fmoA7ihA1S4edyK93ZY1A4ABy07K06rFCh4tjON4hFBxPa0RUdFBZYGQkmww+QhPxMcmfIwAUVYwIXSgMcTkM1/hhOZrlTG3kAJTmRWHw/19yOjOxLAKDqEcv8GwS1Vx9zYN3ldZlFP9Wxt1kEakbSO6obldPsVNBcXm0XC2IY6qOTbxr+10JiDQBG44IfBhpJab1sXkGbiYilDrVLXPrPr6tqHZg9dLFNvdNbpG9Wya71rsbpGEGldjrl/gy7HiB11/TY7VvJwx9IF3+yJuuCjASoPHTAGGAddts1Ow/Oquc4YzgaO8dJUhk1UY48iLfPxbHHKiSBwugoXc12StulsnaOimRMibOPKQuZuMvEICNxEo4ZmYJ+qyXo1tZLduggaImZsgFjKUF4FMbiOBdeLJhp8J7y9gHqkz0D0DibRhK8Wjy6m89i0wGN9itX/g+dLuE1/GfQHTDGNldH6E5TAdS6+4gPqOW6YHOdl9t8F0EF2TSNE1/9xQ/8Arx+uB/unw8vL5d6//N0e+PWryz8H+P4P);lineShape=1;" parent="1" vertex="1">
                    <mxGeometry x="156.85355474900734" y="147.0524794659154" width="22.255423166131266" height="19.991389039775328" as="geometry"/>
                </mxCell>
                <mxCell id="227" value="" style="shape=stencil(rVjZctpAEPwaXqf2np1nx/kPVxnHVIhxYTvH32cUsqCdhQal8iZQtzTbc2sV796eH17Xq+De3ve7r+sfm8f351X8tAph8/K83m/e9WoV71fx7mm3X3/Z7z5eHg+/Xx8m5HT1bfd9esLPA887CnliBffr7z+U6p8/Ph/w281Lj/fS4SulgvGlf36mFDAhdoTgiP1lglDlHs8UGeFz6PAxUUwIb+xJqhDA16bfEV+p5Mt4Ju6fnzMV8PxCkjp8CeSBPplqb09RewA+Eff6cKIE7I/Evf58VPgCPvTPr4lcRPho8KoYsCdZvDgY0YWc7/GBCrC/Wn1E3wjs94GkzxjRDBBAkMGiQhHkmB6BkyUwOHLMJH1SCpNzQNPSXDQjwKArFEYCyMpSbB1SQgBvYBWRBwLwg4aZ9YMSUOJXym6JSUqQOhCAH0QoeUtAoaEE62mmCoJVCWJkrVAl71yLhBmjoHqqrzAEgbGht0uyhAyiT28HtgRGMtUmyowgoGYoIQ4mCfIc266jhApydHJssQRUhk/5MiMEdAYeykbFsXGOADvnaBJjWcdDM2XkuFFWxs15dBy3/nJraFypAmPwccvaW8NbGxYOb5tAlRxqEGdzFPXcs2VAcFLbQiMUl5Uywacei6UaiaurLcfSKvr/IZzpELhsnOlB0jrrxS63qM6c6aP4DGkYZ2bRcnEYWCSTjht5ked8tSP3lCNAV+9bLZ2HK3jDcT6alw1w5kDVHDlRBungBns8RSDRkJ9XZlbdeXpFa4Q915H0gurM7dAWZl3MEaZ/JGd2jAqrqk7wZsdQD8Idw+ipOw+qLroR9fbrTpXAFFPsjqE7W4Txk/vE150Qnbe0aJztnGjQ44U7reL7815Zmrl5/7alfGj8eOcfnu7JQ2NCb7yDwxq3k53gaATmJtwJjqYi7aTZwFFrPYbVDA7qyDBMYLiMyiBjdCq2tsMBkGpaIKR31q3YT9OXIhOUMAz+4cvSFbxenD5jPW2228NXsPl9+9lL/zp8Mov3vwE=);lineShape=1;" parent="1" vertex="1">
                    <mxGeometry x="156.950284566101" y="162.76209925914137" width="4.544325080296403" height="4.929576383485414" as="geometry"/>
                </mxCell>
                <mxCell id="228" value="" style="shape=stencil(tVnLchw3DPyavaJAggTJs+P8h6ssRVtRJJcsx/bfG5MtUktwptc65CbNoocE0HjOST58ffj05e4U+evry/Pfd9/Pn18fTvLHKcbz08Pdy/nV/jrJx5N8uH9+ufvr5fnb0+fL/18+bZLbX/88/7u94ccFxxTrBor8sz/g9t+DPy/ij+enSbzFSTyQhGPxSMyTeCQFbxfiMIkL1XwsnijN4plSPBZXCm0SLyR6LF5J0iTeSMFlAve7DtNEigwAQlpmQCYuAKBUZn1D7SrtAxq1GWDuSgBg9g6zzmbjggBKMutgZgtAaTNink+QQBFRIlLWGZAwIHevDkCBlLaf66yDmKcroB1TmM2ajOeIp7H7dQASpEYy3s9hlhQDTOmZfKn20NsHLFxKjQoInlSozYkiG5cAW+19wQGEohwDMpPM8Zkz1MEuoLPSWamiEyI1d0KlCtJXtgwjE0C5v2IfkKnNV1IhAVzKxdNbM8x5ufmErRXGg4YekCPtMYxpXbJwEZjk7cY8W6lkKoAaOgJyAIytwEpqXJoDqFrdAieU0H8eAEvGQIdNxVmHKtDTpmKcdaiZFJCvFJ9bK85LZXBzAGqP8v2CxZ1qA9AoIUDo4TJKHOOSKD6mm7ELKF2XADIAosZmRHdCxFdS35EYoKErWYGaQ7QJLIqbEWc/tEScjgFmRBUPUJDIzCZ1TgLN2AWSsd2YowegmLYLuABqCnultwsMQOlpYR+gnt4GyBjgkrEBGgIUHw9ttGj7gOpzqz0p6ITmOwF7EtEJbSHfSM+HAPUAFNMboHkAiunA7HtuQ2TUVu4iCuJr873AZjlsWFcWW8O+XjrX7QlQYrvAbNgrtQ4R6xEohswoi+8aZkeRxUzY2WV1BD5BF3YoCuu9EzK20qqDvNdK8l4/RGylupAJNZabmxalI6gpu3QVbNY1IFB6PYhSoMQ+Qm9osZCjvDc51RuAJf21G65zI+9vRGn8vxG1h8C195BlC5WFH6iV22qdi6KKfae9H74CQMrmpaspPRAPO4LgAQFl2LiwQykjZ1tX48yacQ5nytUDYMPb/KhvWlXg6Vr9LGQAVOCtu/SdmcDdwNa/Rg8IIBNYh+w2KGbojACyOC7AKLUu37M19FcczhHOSgz3TDaplFlp8wya52wW4vlKNgtVoLRNW253Z55BY0EZu4YBSHC/YRNjmD1d8RxhM6nXgXsV2AeoD6DNbgiQfN0qCvOSRp9eCx5it23GrIOZAZ2QWyfz1fahIUChNOtgZkANRx6DzACkvl442tG4UV8DKYjpbFaaJxXTCm2y8liaDkCBE2PmnlSuNlko3afm57ks3fdH2zg3uZtWASidtM8AA8DdM0cbxThfKVW4u0/ie1E7syJA8ORLCSotS0OTIqxxUnwvmhg2r5J753m1O0YFRSIlt87GO8s4+sIBiBig/kqxwlS5fUSZqREzHMRD8xEXb3y40L7NGB1WhdNckN4oDABeVwT2U0eIvdXcL1merPYGQRtIYpfsYb1Ky861d1v7Luj1eNCuNzb72vp5RuDswL7YBpjj2X97YFh0uK+2rsSBa9knLobz5zLDMOx1dsSxZdzimuHeeufuEb89O3G0+mTfwTP8uMe+sI7bHYmrFwchyz2gf1vckwCV4Hd/Q74hbn+8fa6+Pz8+Xr52X//uP2/bo8uncfn4Cw==);lineShape=1;" parent="1" vertex="1">
                    <mxGeometry x="186.44293236253856" y="147.2023208099213" width="42.42620716907799" height="16.938192971333265" as="geometry"/>
                </mxCell>
                <mxCell id="229" value="" style="shape=stencil(lVjbchoxDP0aXjWW735O0//ITEhhSiFDSC9/X20ZL0hmD+UNdo/WknUkHXsVnj42L+/rlXcfp+Ph+/rX9vW0WYUvK++3+836uD3Jr1V4XoWnt8Nx/e14+Ny/nv+/v0zI6dePw8/pC7/PdrFS8pOVd3/OTxz5+O/B1zN+t91f4ZOnGhQ+UnAAX8hlha8UwPezLF8UnpkSMojEegFOFBkYiANVGzSqYIXiKTdlIDF7DwwkZh2DBJ3askFlinpTg4cx1ERJBx0yhQQMWn89GzQqIOgmQetdiuISSHRLlJ02iFQCMCjUWBtkaiCG1ihrqsZGHmwrO0dO+yT0zcinahORMjGOmrVPqfUnS4lomkzZk8/AQApOJyJnciCGEqho9hUHXcqBvN6lEmGNJrYulUq1LBtER0mzrwZY1L7ZkquVHIiB5bVeQQgcwS7Nn5vxUkCg4rgzbcZLIoFDjpppMhcyLhjk8tgCYXAog2IQDgzfD2CDxNuo8bVnfQnvLD5gvPFH+gHcHx8sPgLOuf72Cs+Aco6K7qhCiAbqksnVAQ/2k+3UafNkXMDnaPGoKLnPsCs8avBMbcivhwUw4gvI1+iPNEbAB4k3WXwC+eUb/K8P5WvuxEt8GOvxIb7JgIX8t3xuFIH/Y720XqH/XY8JTFfXh8oV3kG87SelC4ClfjXwHwlN6YfZ4u/0z4fwxY6kFqCQZTHQAcgoR4LIz3yfDSJkUBxSUIVUeA4HM+kTrEmRGmbIlLkslrQE610S8VGwWmEt6mTNhAyaHdypdpl3W3EF26hTgpNe+nIcRCCqfDEwrUh0JhSmcRCmBccgzdFo5QSHk6gf0+1EjQd0oojDAaHCcTZRTa8QElS+JVu2BiYGLgnVsjbwuZ8lb7NVGoQuIC+aDuRBhKzTMUyyELiUhhLlCMW4nAacprecTpG2lhI1bC39uHq7B5R+7pt3tYvzJbzXeA+pKngj6zxkapxFzQXv0fezPRowPFtPeJMyWMyTP+Z6AB6GJF7WlTbr7MX9rAaPVKzgExv8nfwaPjjs/3BOwacIwQ/+OxTvg9c/9/Hy43LX9Lbd7c5XVdfv7d2UPDrfa4Xnvw==);lineShape=1;" parent="1" vertex="1">
                    <mxGeometry x="224.56717409286279" y="161.2653822138626" width="6.758166787052592" height="4.287549180189139" as="geometry"/>
                </mxCell>
                <mxCell id="230" value="s1=abc&amp;nbsp; s2=cac" style="text;html=1;align=center;verticalAlign=middle;resizable=0;points=[];autosize=1;strokeColor=none;fillColor=none;" parent="1" vertex="1">
                    <mxGeometry x="112.98" y="160.75" width="110" height="30" as="geometry"/>
                </mxCell>
                <mxCell id="231" value="s1=abc&amp;nbsp; s2=cac" style="text;html=1;align=center;verticalAlign=middle;resizable=0;points=[];autosize=1;strokeColor=none;fillColor=none;" parent="1" vertex="1">
                    <mxGeometry x="204.57" y="160" width="110" height="30" as="geometry"/>
                </mxCell>
                <mxCell id="232" value="" style="shape=stencil(pVjLctswDPwaXzEkQfFxTtP/yEyc2lPXzjhOH39fsIocg7BW9vSmSLsRCCyAlVf88LZ5el2vgns7HQ/f17+2z6fNir+sQtjuN+vj9iRXK35c8cPL4bj+djy875/Hv1+fGrJd/Tj8bP/h98jzzpFzjRbcn/GWo4H/3fg6Enbb/QWhMgWv8HJjmMcXecwKnyikeXxOlHU8hYoHeIk/K7wPFPI8ITFFHZBPlMI8YUhUdETBUwJHGFyfopCJQY6iPNZnYKYMzhAT+agI0VFBhIGGqgmFooOEj4gnwjBQxW8IOiRJNEdI8EURpJRISY2gQxKtfJxqlqBDKoEYaLsRtDRKnko5SwiKUP29hEgZaKkRtJZqpQFlialyT8io0tLvoScU0A8slTaECgjSwckZQgEEPynn3KKfY+oqw8drMQG5ZqrJHBpoiXt1t6yCI0hSDT6Bsrle263M4MCBvEkpo6lHweBRs8kQdYbggVB9mTRwSQCt0EK6iyAz0Rtlo5BYQjJFgBOGyZk3oKzGOOn4xrIJoZvDC7qInop5AxIe5ykntyrbUTUTBrWO9ELWIS12Z5osxY0DQJ7agQEmTKRkjoBGmCdvqoBmpBzvriH8/3i8FSwerx2DX9hrxhMuLE6DX9jMFo9Xv+D1qFjwFoLX9V0wL25yjDe6I0dZx9PsFxqOVLT+m79DW38aIpcGEuTfn93fpUVFBJkSnWvGFZOmZ2uzwRukh2Pv45GlFVfRbbSEnRRT0RuTMb72PeAoghE0mJ5xxMj0B4qxwyNJy1dFt/HPFuD6Ane9r5MAQfwp9Ro6N9F1QxT6GY1nehZTV3o8yH8RTRs8aOFidoCbBHJ9ZUTi0OOBoGvuTanUC+Frb5NFP+C8d39Y30CQi8/v+Jftbjf+DHD5vP/ul1vjbwb8+Bc=);lineShape=1;" parent="1" vertex="1">
                    <mxGeometry x="150.2466141007846" y="181.28732076505955" width="0.1937068914626987" height="9.761879099624707" as="geometry"/>
                </mxCell>
                <mxCell id="233" value="" style="shape=stencil(lVbZbttADPwavRLL5V58TtP/CBCnFurageNef18KghQvgx00b7I8s+Ixw+UkD2/Hp9fDFMPb7Xr5fvg9P9+Ok3yZYpzPx8N1vtnTJI+TPLxcrodv18vP8/P6+/VpQS5PPy6/lhP+rDwtxLKwYvi7vuFMcX3zdSWc5vMdoRWKrScUqmVMqJlUO0JMlPKYUCpp7QgSKYcxITfi2BESUwY5JPtCT8iRBHxBjMAdoSTiNiZEpRA6gpWBGRB8zqrU0hjPVPuiaqOmY3zYTtvxlQTEEyj2FVKTBehy8PmqZQTx7OIPVIAoAtVeda1RBg2w+vQNM90qOD9S6+vfMsRb+7PHlwo0Sin6eBj0t2wC3vHWrwhcRuLqYwoE9ak+X2Vo+7p1c8cLZeR6Kn38pp8G4i/ekaZPNFWsO05vShE4OFFpHq+gX0LS65PDLvGBgLh8CAgK1M1dSxgb2AVkBVVwvkXrzheqQHBhk8udIBIcENkZQKGAmMQZrFIC+EjJ4e3iAfFYds5geWv5QECBPV7RJfNJvCmu9QEVoYYSED/ishAjSQtpP9NTgC3Laav4fhPbEEVDKG131u4ChVd3jZuGd4KNFWAzK2LqczDVAdub6F0K2JW23rjzDQ/iMRO6OR3gNWO3rrCPH7jYhkLo44lUUTxKuS9ogtfAMtWc6mC+d1NtX1SgrN/Xkn1ObMYb4X2DeSvxqKLNLaQRDkYjuJJyooA0VD+svOZVRPjsjvwfBHt4X8lf5tNp3ejv//crvL1a1395/Ac=);lineShape=1;" parent="1" vertex="1">
                    <mxGeometry x="148.94966261556254" y="181.7807134872742" width="1.3997749838469593" height="0.7742223982298498" as="geometry"/>
                </mxCell>
                <mxCell id="234" value="" style="shape=stencil(lVfLbhsxDPwaXwmRelHnNP2PAHFqo24cOE4ff1+6221MrneC3tYyRxKHw5G0yXevu4eX7UbS6/l0/Lr9sX887zb500Zk/7zbnvZn+9rk+02+ezqetl9Ox7fnx+n3y8Ml8vL17fj9MsPPCVdpjAtI0q9pIFGVPwOfp/DD/vkqnAvl5OIrJV6PF6HWXDwLdQUAJfEbYqVS1gG5UM8OYFv6u+ZNQGGqHmBTcAYAJRUHKEKjrgNqo+KTrgJZapm0OkBjEgDoTCkABgmoW9d5vhnQ20z0TcDQyNLIVEDhxqCsHmBaAXUwgPpKjzrztgYIWh2NGpCGAVr3gE4dJz1CDooBfQEYM2+3AY16j4CBcjBOxgLQAaCQtAhoQEtWV5GY9ABaGjIL4YpW1A8GYC8+o0HxCuzlbTQ0RKtQDSwVqjjp4n3MRiqqdFkkjU3Adhx8yQANFa7PHnEF6AigxBpzENwPnCNLCQN6i3VIwAQ4JUqB1/bRnoK5Gg8FacOMLmhDsTEp5RIbIqMVOvGi5RT36PA5XPGwpqa2aFJYa1PnIglGWd8EAIF3iYXQRApWaJWqt7JuTQWatGo0GpsC5VATdZ+DnawZ0Grncui5YmICTWon//A5ZJ0lv3Y9Yb+lnKgBWoVJfaUlQzvmRsPbgF2A0OWBU7wLMMOkOarVzBjNT9xCuAClpqiKfzJZCQ8eVmAfLOwl0wCCWFCTIZUpOoWdQ3Az6tVmvEMiq997wjfh2aTew5FrmfXnEJ7QLTjyjg3LGjVuhsHs//mq+DDcPt4fME/7w2F6/1z/Hx88NjQ9lvL9bw==);lineShape=1;" parent="1" vertex="1">
                    <mxGeometry x="150.83835740757974" y="180.77789627636034" width="1.4067984529654052" height="1.519441656322209" as="geometry"/>
                </mxCell>
                <mxCell id="235" value="" style="shape=stencil(pVdJcttADHwNryjMYNaz4/zDVZYjVhTJJctZfh8wDBUOSDelyo0iuzVYG5hOHt72T6+7zvPb5Xz6uvvRP1/2nXzqvO+P+925v+hTJ4+dPLyczrsv59P78Xn8/fo0IIenb6fvwz/8HHm1UuGB5fnX+IYphz8vPo/4Q3+c4XMk5xp8oJQ/xidPtcU7ppQ+JsREVVpChCdEptie4B0VQAiZcuuyr+Q8ICQKoSFIJkaESCW2QdKwVUiIqSFEIY8JwTeE5MghpyNJ60MqJAwJfw2YCDlQFkxofShMoWBCa1KJm4TW6VIpY6d9WxpVpnK/lVApIKcDsVhCcoDA0+cZIQOnRRO3IFTggy+UyoIATtB2MbXkmInBES7Y2hiOAE1diIPFoxaVFZ8zaLi1oMaI8KaQFC/AHj/11gyP+jmRX+AZqKrzxCZnZZLBdUKdEjQjoIiqSXIXQWQRI2yS1JVWQE4HmVT3xqhqd9oo4bRpdy5bAdVFcFQXiUOFp4PAR0uAYWWqd7WO9kJpZXWzOxMlXhwBBOD69UaFWYsqkjBnB8OGRvJKmpEI/z8eTwXFt0WxMXYUbwYhnmts1XFjcLJttI3JrPhWHTdGP1tt2dgteFqGblxemFxr/8Z2dI3GfP0C9bOYZ8N+B/BiV+BhgQTCpRrStvCwoSJ11/S0IjHswGiEL+ZHwIuRymBbcQxlLjqbMQ0xsCfqlhMN3qMdvlj7NeXAniR2wb620Dq+WkVhWBB6aZFq8cDfohVk7Uf7fsmTezM8ElzdJ+ylyyF8sh3PsIF1UudFflGB8qLlearx9QPuvDVu4/Xh3xX1pT8cxhvu/Lu90uqr8Tosj78B);lineShape=1;" parent="1" vertex="1">
                    <mxGeometry x="195.21973988941863" y="182.3939120522636" width="0.19370483801259075" height="7.657320075829046" as="geometry"/>
                </mxCell>
                <mxCell id="236" value="" style="shape=stencil(lVjLbhsxDPwaXwlKFPU4p+1/BIjTGE3jwElff1+qhhKLuztubmsvZ0VySGqkndy8PNw+73eRX15Px2/7X4e714edfNrFeHh62J8Or/a0k887ubk/nvZfT8cfT3fn38+33bI/fT/+7F/4fcZFpRo6KvKf8z9CWv798eVs/3h4urQPVOpkH5QkbwNCodImQGwkCgBKPAOkURIACNRmlzRQAIBKZQ45y0jCqr1Skcm+ZIpp214o8WRfMzUQcSSe/W+JtG3b29dm/2sjBv4EphZnQIABGAWpzBEbAGQoMvEMyEwKKIjJ51SZEspRo5wnQIqUEAnJV4UUUrBCYqqzS5KJQWWnQsx+BRSDCuWZhxQoV0A0U55bwdYsDACF2syDKoW4DSjWvHPQ1gsohhopLEojgCzVSnXmoVSKYMI0Gw9z0LVQBEEbIFcPUOCSAZxL5iRjl1rzgPwxgEWFY6jFA9qVoOd+aDzytpnW4gEFNJABWDwAulR9tRqgIh7qiksZVKsBAnsALA3rB/FpzcilMjz+z9naV3DDvlLCMbD6aq2g4wwQF/0AmTYe2AMCmN4GaMkDGAHaiktozBhAFwC0p/d+kEWWcHm7ydd5QLqE2Y/vTvWVJaIHFJymMue1lytuubRsCAwI6gEVDSabxosOgnmtKy4VXN8fA3RiHQ8BBm2v3WAqaay5vsmlMSTeNrlMBQDstWNaKylwSdv43oUEjaD6NI6sv+3sOlTjutjIXrSadhCgHey1m5UmcBjwIOpnZcI7u9jrtIgB1JIJ1+SEusDBZIcNx4OpE6Ts7bAhs0tFhgxcB0RPXE1DEW2cHZzWaBEWq/pJ2Tc9MO1NNs80X8ypDYCbYg0LuOD33IpJkyE4L5oNBZy9CMhxFOL6vPB7T7pyPJSxNV2o7gyKyA4zjrJYYOeEhZ7sa6LDjPgNF58/e07nHDE8BthhiZOzRzVq9hKdPaLA7LM4e1RyZt+8P0gj9Sbw9vA0qaTs7BX5o2ODebdHQrXfeTiCoaAy++btG8q/evUfr/nv8ilDI276/6E7m6v29vB+QXR/eHw83y9dvvcXSvbX+TJKPv8F);lineShape=1;" parent="1" vertex="1">
                    <mxGeometry x="193.75257144564642" y="181.88753148123178" width="4.080628794407735" height="2.2457761393825146" as="geometry"/>
                </mxCell>
                <mxCell id="237" value="" style="shape=stencil(lVjLctswDPwaXTEkQfBxTtP/yEyc2lPXzjhOH39fsBq5IqhskpujcEkusABWmvjuZf/wvJuCe7lezt93vw6P1/3EX6YQDqf97nK46q+J7ye+ezpfdt8u59fT4/z380Nb2X79OP9sO/yecd45cq7BgvszP3Ik9d+DrzPgeDitANUT5259oCpvry+VKnfrM0Wwv64vpVvvPeUAAbm/kM+UIgBk8rFnIOQSADDFHsAMOeREuXaAGEgAh1QsacGkk6MoHUCfJPc2QPcrfZr1zATyFnmJyS1vAsPKkULPoXjyIEqsQutPKEIxA4An6TkUjRvDK8XQAepti21AId9rqTLMQ4yU+zxUIQEchMn7HpApgCglVU4vvlooF6BWR7WP0qrGt49QbSR7REJ3UhLBAsQDQKIwABioLzsqA+sAEqElF6sFeNSXNK5lAKC2USiOANQp2eq7cUCATOwsIIIr1boBSCBKDSAWUEDi9EpxAFSgPiVt+oye6UGNlpuaV4CA8qDzxg8A3I1LGACAQ/bLjdcA1I2THRCNNKo4pjCGFZBuJTqILwN5a9sY6wE1piTWBzTxIQ5KcZQ3GKM5krAFeHAl7WQyRAmWaNqqaXBCDRukAwhr1UY2cGBU02WjkQmIkipn7BoZN4HPAXhLraimg2Z6CCvyfMEvTWU15CIoIB8Xqa3GaAKJU4dnbsSLC9zmTMVUg1/EuLneLfzWTgPEdDDRzcqACN1cxdorgf29lvPoxkDj1hR4YxDxaNAk517Z6ihRw1Cv5HqvpB4TuYYo1mY0V4w8a7DTqvluIFQR2+mbswdpkGKj9M67g2Rbzu+8ncgw0zOmUKy1ClB42rZTz8DB/dPQIh00YqoaIzwHp3ObndmsR8JuQ8Huj97Fst6H7XoQ/2bzbHyQF9YRkqpdjwySW8rwY/ev0VaNg/ZIB06x+UJWpM0buz+j/YfXc7ckfLsRffZ7wQcA+uP/54mnw/E4f91Y/99+ztBH86cQvv8L);lineShape=1;" parent="1" vertex="1">
                    <mxGeometry x="249.05479767497405" y="180.5828975320016" width="0.28624976083485876" height="9.30723389445144" as="geometry"/>
                </mxCell>
                <mxCell id="238" value="" style="shape=stencil(7VnJbhsxDP0aXwlRCyWd0/Q/AsRpjKZx4KTb35eqobFFeZ5boIcecvPyOOLyuIizCTevj3cv2413r2+H/eft99392+MmfNh4v3t+3B52b/ppE2434eZhf9h+Ouy/Pt8fv7/cNWT79GX/rT3hx1HOBxJpUt79PP4SKZffP3w84p92z+d4R4EHPAcqfl2AhSQMAj5RRAKBQhkEglAWIMDk62hCJAdsKJT8gE+BPDhAiEcLxJPjdXy0Bkih6tbxarAb8DkQR4R3o705UUggZlTE4ivEpzTihSLQx5N3Fp8zCBgVtvgKns+dL+d4xCByYdInrOMdSbX4APTXFJj8XyCes8V74H9HLo742COyhp/4UwA/FZ8s3kH9bXx9Z/if8Uf57wE+Uhz9KaFn9EV87tm65K/GC8SXNWAjgWIhBg7VEpRHhoYKNWJVaQxZcFSAQOOQqYqapcinoZe0pe6mbtVlAa2y4wkFklT/9iNLY6fV5SLEPQcXhXpZvYyXzvkTPgN85B6iJcowBFFsF2h9AWRB8sSmk1VYdlOhOIbAV9hnJFmTo5Ya4FPNKx5PUCVRZc+ld8az1HHAhhJtN9YzK7ChOpucxZMAlWqlOBpdEwlQSQWyEZDuhjWBGq0Aoja7qULW3P2wesTopqrBB5FrRhgBzI3mpkkAcaM9L1kB1AVVYxnddOaHNQlTxfQINNupF0uxAhHkXHO7t369ckLMVsCBMtAEjJsyrJP6dzInCCUUOTXakCnB8UU15mgFIjpBB9RgBTw+wWYEnjA0TGE6IWH2mWtCMxrzu1TrVkFxUDYbgQynsCYwUQN19aYSW4EC5n4VSFM+RHwCT/lQcOCy6erXczRke0TFKWf9Wjvj/41AKd3GpUVoAQc5qh3E0FUHbsS+nO2NR6Tz8bKAs1Ug4SuPts043SE9MDqJ7bzBd79dFpgaqY50qKWoAtkMNAlGWocLc+/RwTejEU7IjdU4Q7aqhYatGfpIZ2Aen19gRuvjxGQDQ4vbSDgGgQu8ybSrybSMgNuLaZoJeLfASv2xO0QPWyJ7WygT47rX6+6Cr5Da2ZZ6yX3fcJmodtuhEyIq3O/biPdtxP+8jWA7o2rvQPqHzpaz/EIbUbHTnVb6jLqf5ZvedFF71SJu7iJaguC6I9oM1pxAfYDzPIXAK5vGwDRwXLL0bx456iAlTquEE/7K802MXa/Ca23A7Drw0KV4mfBXljXR6g8i1jbA9vkZ+T/YWzzD3YhfVvQnPCpxije7HXznb3hD0V6UVvUZ/RP7pLBq71+9pLiK1w+nNyIPu6en4wuV8//tGxT96fj2Jdz+Ag==);lineShape=1;" parent="1" vertex="1">
                    <mxGeometry x="248.39867709002766" y="180.27227535048502" width="3.554156987870854" height="1.8948059988999941" as="geometry"/>
                </mxCell>
                <mxCell id="239" value="" style="shape=stencil(lVhJchsxDHyNriiQ4Hp2nH+4ynKkimK5ZDvL7wNGoTMER63oNh6zha0BNGcjd6+7h5ftxvPr2+n4dftj//i228injff75932tH/Tp43cb+Tu6Xjafjkd358fz3+/PLST7enb8Xv7hZ9nnHMk3FCef53fMIXw58Xn8/nD/nl5PpIbzwdiB85XEj+cL+TBee+ouuG8epiBQ2o/xRGQSBAgUxgBarPUywBh8mUEFAoI4EnGGCRSEQAQcmlMqmALQnHManQUQFoVkPIIqL2QlwBZBkBK5CMGjGnNngpyKVCsI6BQQoBIeYyhfKRhHZDJjXUoWvsCABNZK/c0rAKC79z8AAgJKFxQB8YYaoQWooY4prVmSiDoxFMMhUoGgNKZswAwAOTQQ/wAJIogrUUbyASttQfk07pWk1YdU8ClUqgaamiWQB1KpZAsIIKpoUQIk4UA6lCnQaYAQQDp7F8APAhamRNuA2Q7u6+5VCjKTUHXFUAEU8MxE08+ZcANNVGqBRRgQgHebKDSbV6KmqMFOBS10t9ZgEcWgp2VDQCmQPUTv/Eabf0Sphgwv+egGQC0g/zEvoqaWnt04kYGhWsWZjKBpm4xFAv42+YXszRxSRCXhNhbgAejTytdbutR5dI0mASzdaWpkUu17/FlWnHHzZMs4Y6rc4tesXAbIE4ryOFKe+KRS60HEb2TVSdamQqGQFtyZlEXuIKSejy6tBiG61qArYhrtQRkUhVpZqWugALSpIopjWTSTBekmLzVZBUrV1+tNm4SC1hQuc7T4o3oBhGtJmsyEd8g4ghoQhRMYy99Q/2n1FVAGpv6iphWgGHfFbmugDAOpnYhAHRVAI9BK1nQFPCe3MjvdqlBMbAtnF6bkFx3Kk8MwPWVsQ4IVle2qx8gn3NWMekbNGeUB4ZKcBYHG0CARZukD0Oesh1hDCvMdkRy77z13BAncxxJGGcnNkOJpBdc6zsD7gTLZoYfGbTjrTNojuauhBbH0WS3pOGeqvVVY8Ug99gvKGAKlgUedYmbWSPo92/9wHP1vD78+5r0tD8czh+jlv+3X5/01fnLldz/Bg==);lineShape=1;" parent="1" vertex="1">
                    <mxGeometry x="287.7768323353088" y="179.8786349309857" width="0.8711895318251803" height="10.055358338763316" as="geometry"/>
                </mxCell>
                <mxCell id="240" value="" style="shape=stencil(7VjLctswDPwaXzEgQRLEOU3/IzNxak9TO+O4r78vVFepCUXbyamX3GQZS+KxC0LcyM3z7u5pu8n8fD4dP2+/7+/Pu4182OS8P+y2p/3ZnzZyu5Gbh+Np++l0/Hq4v/x+upssp6cvx2/TCj8uODPiNqEy/7y8aVTK7xcfL/aP+8OVfVfKMtinTq2vA5Sp5gEglQoAVJn/ngE1U9Z1QMlUbAxBqLd1QPaYdQCoUpN1QFKqI6AbJbBDYrIxS9ZI6jrAqJXRvlNJoAyko0NTHQ1UgZSjfeN1+xZr4PYG/KmUx/UTMzHYQBYJMuqgyJl0Yf+HV69XgJrFhBpgHc+MubLP0D6HBCkVUOCXbFwRomL7EG+lBuJlkuB/mTO2Ym/Bf68IymeNMu4CGeQUCpRT3wHJ2DWYRt03WALNVEfRiJIAkroDOgYtDSZVndYtAjLQvTbqsgCAMmufPb52CaRVLbYiDxplqTOVEEOfxboG6KN0xCiD3jIBxhgK4+bl4hkLV9Ls5FrQ4dDxni+ocErGEYD6lxdOxrQWoYQKVxZBCzE4OJ18YtGlCvTg9F5mqaMYElWOdegoSynu4JVWvEM4FpxLkK05ngvOVgjwLC0EBGPwNlcjQFAd2iuKyyhopV4iALV6Z2uyGDSDGCY9pAhAh+GkOI51QPReatqpgdg6dY2x0k6+hOpgsXs7vRlr+m2AWiM1GsOgpZCN1PBuqyAGH0rKuIOPeQI6n4cwbvA+tb1PbaP9/53achx4LFNCHzo8H3ovCnDVgYTmFKcL7+AdNBYXZRvnSFcxo7GwximvdErApeYhhgkpwflFe2RFKlTQhGQx6ARjNo7DRYKyt8VB7t/QQMZeVLVgn5A/JWYIq95JXGtcH9m3KEuGdwouWs4xP2h9bwox/0g1U9cc18/z2bNmH2QmVAHjrrrmC0chYHJoLFiFbeWtlzT/tveHvzdCD/vHx8uF0vX/8QbJX11un+T2Fw==);lineShape=1;" parent="1" vertex="1">
                    <mxGeometry x="286.6773241696076" y="179.9706787851081" width="1.0051705120858017" height="1.3996538820131572" as="geometry"/>
                </mxCell>
                <mxCell id="241" value="" style="shape=stencil(lZfZbttADEW/Rq8EZx8+p+l/BIhTG3XjwHG3vy9VYWJx5LlG3myJR+JyyaGm8PC+f3rbTZ7fL+fT993vw/NlP4Uvk/eH1/3ufLjoryk8TuHh5XTefTuffr4+L//fnmbL+deP06/5CX8WzlMuM+T573KBybn/F74u5sfD68pcKDlj7kn82NwVit7YV0o8tveBcjD2LpAAf4IjZwENQAQAQtV6pDHlOAaiENsMzY/IYyBVKskASXNax0CuxNkAWQEQQ8kkNujCxOANNZGwLQNTCKDMQsFmSRJ5UGgFygaoIAYFxGZJMhUgjRkQCxRKIGgFqs2S1KbGERCrBYRcAkDduKRaQi6pA9wDUgBQqGxcugO4rUuoDrndXgcN5K1AiJu0ggZSwNkGUiczqnQm32UpN3WNgNhVOsGpoUAvDZU3iqFQsC0qsVVmBEjpgYTqUNvtFQC19KHNVQyM1Cot6ysgY0A2dUAN5FjHUEcU8jiI/hUVt5wG4XpA8CRzXeX0DENA3aTpw8lhqW2PrvIwVNOmq+sdvcYeCGgMfBaogZJNU42w1kXVaQe+XkEnRE5UrMCzvgEEnVRstoVSbH1++6TWKWG7OkZitAuUXkwBA7q9dF3tE+xq7yjZOjjdDkDQLt1YgBIqXD+YKlS3+mOrlto6NDDnbpVp8dw057ZJXc3RMsn9khGbCAfmzjZmgLvnZhYFqE817/ZCuKlyP1Yc7GBuUr+aow2Pqdinc1vTB2XqDn0mD57utjs/g7z7/vzG0+2TXxR3zfXH9ePl5XA8Lt8+6/v9x45eWj6UwuM/);lineShape=1;" parent="1" vertex="1">
                    <mxGeometry x="288.68192591679485" y="179.27462285899358" width="2.367253630392841" height="1.6775540955947243" as="geometry"/>
                </mxCell>
                <mxCell id="242" value="" style="shape=stencil(lVjZchpBDPwaXlWae/TsOP/hKuNAhRgXxjn+PtpQuyANtMMbLK1hdbVas0oP75unt/Uq8vvxsP++/rV9Pm5W6csqxu3rZn3YHvXTKj2u0sPL/rD+dth/vD6fvr89Tcjp04/9z+mE3yc7Eephsor85/SEqdd/D76e8Lvt6yW+UxCDDyQR4AtJNvhEpQN8psgGn6k3gI8UosFXyuD8rv4Wg++UwPm9UbLnB6YSgEGm0qxBJCnAIFBzES1U5LZBE2IbotCpgBy06nOmSSvA6ZYodmtQ5v+8bsAUbJY1rB0Y1ErNlUWiAOqu6s/JGnRikOgilFwhJUoJGBSKthOy+pCBAZNYg5Ipg7DmSsk6XZkiSFwOVG2x1kIN1FJqxDZKbXnJ6waRsi2NpsUHoqR5DTasWo6oH7Tfu62lnoiB00FI7D/0SgycDtVTRu9UQWloQ3brtPDMUtdJhsRGVVlHUP9QtBSgrIYqKVO1dSHaHqAZoi9twQTA868LfvHoBj6PeMBIPHIkQ75g32rTH4CAsid5WYrkBp6LxyM6UvzwPqiC2DOw4gsoUfZtqfgME8bi8Qk0mcane3wEBafxH86PMD558Bfjy4iH71OG908wPr5hNJ6woGvz+AIa7Bq+wgaoQ312mK8y1CeiaY1/va9fkj3/PxpyCKjABgijAzABPAQUMSLPI+IC33DDjA0JEzaen2FBjO+fYMOP8Ynw/PvwwatqaZ9MGN/wdfboutwaJl6eFd6NCVnc+XGegbdGcHEVzZAhVBN3a6DKHM0klRHFhqgXqPSnxcTJiAhzrGO+Ou3U4a6iYoutDy1jdVb9LtEY8qIKRjcIVDAGJEmLX4dUN1dQeCp6sxO9CS6AqonbIKsToKLS/T6U4/zkeq1Gz74qg9E01uUjWqc1MxVtK0tMLtabCOiuxVluLAYZDnxV3W4fUkoQkActNTdCQoOSSNfM5PbSjPfSPFfOxSKLEqcyXRypQk7q4qdag0NWgo+RBg1dJejmYd8nzyx766rCcVKE7z9RriXJgDly0SjnqxZGVy3iZTvDxWnSKP4qB838aaSyxwM2mvDi8SieMrPhGR/w+eLjE1A9LBrojI9oIvCgEpRN7zUoOKLSHb5+4nF2+Ibx3Z+PmPHuy71P8frhfJP4st3tTheRl7/7m0d9dLq1TI9/AQ==);lineShape=1;" parent="1" vertex="1">
                    <mxGeometry x="136.67133282379297" y="196.25662330214448" width="29.958851496762183" height="24.971780897190737" as="geometry"/>
                </mxCell>
                <mxCell id="243" value="" style="shape=stencil(lVjbUhsxDP2avGpsyzc9U/ofzBBKppQwAXr5+8pNvVnL7MnwFpZz1rZ0jiztjm9eH+9e9rvgXt9Ox+/7X4f7t8cdf9mFcHh+3J8Ob/prx7c7vnk4nvbfTsf35/vz3y93Ddl+/Tj+bG/4feaFRF4aK7g//5+QxH8Pvp7xT4fnNd5TTQPeO8phm+Ar1TAShLIDhEy5jjvK5BgQInk3EJjxCp5SGQhRn9RtglDII14oAnyx+FTI5W186qt3fGaYhEhhxBdHAUSIKY4BKokKyFmgOmqiOirgvEx+jGeNVEECYt/tgi8kfhufKY4SEkcRxEcFNr5fVNQJKijEkRBJCgiQIzdGVBIJOLEeQdgSioCQRmubtiWQ48jEhqBpR6Lz1mfioSqSkDdpE6pghZxtlFqeQR5KIDfmoeYu9Y8Ji25WyisgSlWjZM7AlEDiaiU/RqkG6H2plMyWsDmVIGEigDyIEE8rMNqS+iFaQgF+U0I1hvbd4lsEEUu4soJMYQ14hRotARlICaaoaqZhHsQWgSYNnDi7Jb13gB+UECfxobtTCS5bAqNDFyrJEhxaoVBKNqzw0KWrf5VpQeIr/X0rQsRbKpMf5EqUJj8kTOBiCVB8tV9/awKoGqolWzVcN+2mWieLJizv6m1Y3RXHTZ5GUfJuuuRUGw7XGZkIGVsuTx71OK48GSKCG6UV12IJGbUOnyXoBZHMlhJs3vR9ZbrkUPdTavf8QtBLCayg16gVk8BqrBd1Mr2D7y3jViuQTf/DPTMfExblrPqfAPSt7Uwe86B1wQO5crK1srkWHLq1ZGNYVV2o/2lzy0hYWeRjhgYl2iU8HBxMO6OHRo6Lvbiv0oCkpLe4qfYC2yVn36/adqBQzhXDQaU6a4WibS8a9WxTnJfRbGswGTOWQx9fN+JZR5Wm1DuhjcHEFLxY+4pbg+S4/+igHnRSNfc5B1gg/TQa6pkSyIBO26a46MCOUuxlagCwzYLNsd7mIGVhGdUueDSba46DN3hUWBRvap2KFuNrtng06cXeGazwoKq0/LDBexSfxSEXPCrVYXHsBY8sr3jz8cL3sW8LzxYP85Ws4PRqAJZseDb4hPT22Q9aV/H64/L17OHw9HT++Lb+v/3apo/OX+r49i8=);lineShape=1;" parent="1" vertex="1">
                    <mxGeometry x="135.949256227268" y="216.03769255287307" width="8.102298748326575" height="5.899731718088856" as="geometry"/>
                </mxCell>
                <mxCell id="244" value="" style="shape=stencil(lVjbUhsxDP2avGrku/1M6X8wQyiZUsIE6OXvq52Ml0hen8BbsqtjWfej3YWb18e7l/3O8+vb6fhz/+dw//a4C9923h+eH/enw5v82oXbXbh5OJ72P07H9+f78/+Xu0Vy+fXr+Hs54e8Zx5T8AvL8rz/w5wffz+JPh+cLcUeRlbinmOfinpJT4pFqnIsHSkWJZyo8F0/k9N0buToXL+T13Z0nF+byjVrQ8qmbs+2bQD5pQKNQAKCQM94UDwCDxf0mWmJUBeESBwZ9peApAA1BAtw0IFNNACCvtZei6zo3AVGcrq8UE2Xg1ihxMxoaZWB08sRaQwowS1OmHDWgEIPAZaamNciTDNyaIzWtIYeeXduASskA5EqgdIqjolMjS/6CK5VISdtQpFobAEi26mIuCdZPaT2ZV0CBcaiul/sKaLAB1EBFe0mOqOBKNVkNckQDyVcLZZ18ckQDqVGbbXlyRAOBa1IuWQMaVdDGWhjanutu2AZEKvpKckQERrdsS1SOaKDiWrE2yBEetdZKUbt1OQK4tYlPdF+SJ7B5S/ZnC/CgLy2AQUMA9eCYidki0hUV1QJQfrdhBC1+QKGW14PVMPvkAmUAAKvlddY2XPhhihjc1LCbzJT7MGsGiIMRBSdHjBaQUM1tASKqiK0reZzgaQi1w17KzgIYe6kMcWBsQxkqAs2gJUyD0e5Kfg9u9VcAQwUFcKVJkV5RMVidr1R1soCCS6gORqAhtADGCsLpajr+Z4p0qDk05xYvDqGr2OovAio508sqbvnCkEzkMnZTGoZK6t1tNknjMBgd8pIf+rHH2efsStC4k9MZ3zBLR62YM62DdgXkTh1nnMn0vhopIwok7ELnd8XMUkibcWtlSBTLYHSpkG+UdYm54K5X2HEwZDdAgiL82xhdJHDAaGH4RoMwfMRdZYewDD/CKSc7iWHHeV3fZ3uQYWWyByEqmlxnIysgwiknuxxrGxJ3ndsAZxlQzHDwyj5qxuLHwjnbeL0u0VBgxclObfagEHrjmW3tXlecr3BbdMNO7WO/5DbAW7LruS8Jk08bZqsRlYgcZzvYRSPioZKYpu1BAicbje7D6z4x+apk+vzaoTbF2aaQhAtMW7ZfDxhOc7YZzXCEDHSEKQFTN8SxqcNlAkiDDVM9FHf2MijJ2G6RDPnpqvtCHIbJNysOaorthsqQ+3JvMp+9u2n+DJnKFz+6XhWXHx/fdx8OT0/nz8OX7+33YHl0/pYcbv8D);lineShape=1;" parent="1" vertex="1">
                    <mxGeometry x="171.9882569980001" y="196.25659202790217" width="39.61192635198719" height="22.77605186820465" as="geometry"/>
                </mxCell>
                <mxCell id="245" value="" style="shape=stencil(rVhdb9swDPw1eSUkUhKl5677HwWaLsGypkjbffz70QvkWnR8w4C9JfadJZJH8eyd3L0eHl72Ow6vb5fz1/2P4+PbYSefdszH58P+cnyzXzu538nd0/my/3I5vz8/Xv+/PEzI6de38/fpCT+vvCKUZGJx+HW9Einxnwufr/jT8XmJrxTziGdqbZugiZQHAjNVRGhUdCTYFUComeJIEKWctwktUB1jTpkSWKFlKmkgZBx0q6R1JLS+5k1CDIFCGBglUytwiTRGrZEU7SlRKiOhUKkgr0ptLHUNVIA27LaMpa5CBURtO26OUCgAgqk1t5GgUEw5k4yVq40yWCEVqmPQLZIAMUn1YmpYGxIpuBUSZVBpThTiSDBpBCCm4gvXlAQEzaQO32AIVjZd4RXhWTxe0zZ+ltkCj/YfKI6qmPoPZHTVa4aPEeKLz2eC+xeHN1WBxrHzqHq8AHzselkKAnQy9+wt8BVpumdj+XwQr1CNfv+MmoxEPV5B/lcjZNIzxPuWVKjP1OfLQg/o3Ep99YU+GdRLSFf6L2A/smr4BvPPvr8W42RDQGnVwBUK2he4UQKCC6sEVTjMbLfJ43HD+wQpFfh8Th4fYEN6QZSesY18usFn+ADw3O8uG/I/4uPcrzNBoCWaWt5FwP1QvS1RK4E7s2Iv4m2CdoUtJjHSkHmyOp7S06wHos5pNevxnCzcT/GZkIgBQUP3xjPBWg952UrsTFqDW5q87Khs1W4XtrxsHrOkgq2p9A3MhNBN1ab5dc7UphMonNmZNsZQYlfXbcLKT1gpFbS/CYHHOiQbyGAg1NWBJw02tK4ayGybghgsiereWhJ0/GZldUxrnMfibXlXP0UYngGGd3Xjbks28WPZIjQJefZYH3hklO0NyPnegK178+8rplNQY8M3j0cmpNjj2OFRp32IeIFHp0v0riXAmWCnEVe/f1Avw+sqPwhvR7zHNxTvv34Z+Cvefnx8hng6nk7XrxjL+/6zhV26fvKQ+98=);lineShape=1;" parent="1" vertex="1">
                    <mxGeometry x="208.39424059752048" y="215.56320105345696" width="4.974699621941247" height="5.797820391940517" as="geometry"/>
                </mxCell>
                <mxCell id="246" value="s1=abc&amp;nbsp; s2=cac" style="text;html=1;align=center;verticalAlign=middle;resizable=0;points=[];autosize=1;strokeColor=none;fillColor=none;" parent="1" vertex="1">
                    <mxGeometry x="67.72" y="219.03" width="110" height="30" as="geometry"/>
                </mxCell>
                <mxCell id="248" value="s1=abc&amp;nbsp; s2=cac" style="text;html=1;align=center;verticalAlign=middle;resizable=0;points=[];autosize=1;strokeColor=none;fillColor=none;" parent="1" vertex="1">
                    <mxGeometry x="167.09" y="219.03" width="110" height="30" as="geometry"/>
                </mxCell>
                <mxCell id="249" value="" style="shape=stencil(rVrLbhw3EPyavTZINtkkz47zHwYsR0IUyZCVxP779ETgWCzO1CBAbtIsi9uP6ufsTT98u//09e6WwrfXl+ff7/5++Px6f9Nfbik9PN3fvTy8+l83/XjTD1+eX+5+e3n+8+nz2/9fP20nt7/+eP5ru+H7Gy5I0g2Uwo/xILR/H/z6dvzx4Wk63sJ0PIrq+fEoZT6eJNfz40miTcdVNJwfV4nz7VkKESaLzrebhHh+vEjr0/EqlQhTxdp0vIsRVbvUWZgYpRdiSbdNmgFZshFAXr6hSmAA1wB826UTjZ0MlmfvJmmZAFTaTDY3ck0EUCUCoFGrapA8e0GdgkRpdZHiDMiU0epGnK2kRh2XPaBmHbSPqDgG7EbcaR2pWXMRLTNAB3ePAVXKzCW/ohM/5C46m9WvqESkEqTPweNXZJJXiieG2Q8lSmQAHczZAUk6oUbJ0uEbPEKIlYqNTLgDjLK1VMylpdGU4R/nmUsWpDCROoaoJSmEfH4fcMmyGKG33xdmx5nRiDNF8lmjOvwUYM+rgSYyKyO+dkCSRPxgdUTwDlBKb5e4zlaqRYyUBpc4gkieqYjSNQ437YBG/eAq9pnetQ/+HgPyKJUD0OJInseAggWrJVFiJVcxzCI1pYnMVUwzl5oXaMIlV7HMfmjcDy1gEmhGWwC3CaT7VmmL0ZZk3NooxMcAz0sFASx7t71p2QGeKhmgDKq9A7B07wAQqXvXR/zgRkwBASx7O8AiAirzw8KlHmkz5oBcEKAcAOneAcbM2kYW2gHecrFv6FgfHMDqgwMqAJS2w25EAyt5lDNAxNzaiySitEvcwKw2CsAxIGNudQCjtwvQQAfeOvjHyKVG00x39hsCGvFD7ws12rjiFFAQ0C8A4Ok+ZpXj3jsEbCsdkUjIHSNYHd2E6ggw0jxsAENAIxGxARQBnaSB7b7FTp3Rr2M6vgbURenO6NeXZNmv2FQXpenk54CIgHyhQ0IAK1qHIrGi1ZdpdCM41wH2AFsIXQCWEGoX1OgLgDsOyddo17cBKlopXMTDwqVE4uEkRrnn1q9g3fShEvUiCywRxLqHvi8B3kcQyUyrq9/Z4f9C+AS7JA5jQpWl9jbaT3uhSwv/AiNsWkKijivOinUB19locs7aARgiXCtjzeuaaTJvy/rC1yzhomkCgM8EvC3DPKB0TNn687XLYt2uLcU68X7aFrMmugN1AKwp3ZXUrGXxQxzrjtMWPyOAkc+HCNh7bWRhOqjYMkSwqG4JC6kDEkk0PmpBTdnIQujtw5zN8eC+Z4W0dlTaPVPJN2wD6TJfVjZUG3ZAja9PtqF6LtVuaKa0j+0oUqJmrQm7XTc0C9Ea0Uq1cysFnGvcbmzUsiY2i1T5osw8McI2pFB6W0Glq9JdhWXcJFS+BzZFkYwXFItYqV0rZlYL2JQZJ1/Zu8IdoJR8Zdm3uJAsgErFdwr+nZUBCnYbfkVjG86M+xa/ovG1LkywfkVgIiUcSLcnTKSAmzV/wqrotvyedci8183LrsKfsMYyF3Rc5vGQE3Yz/oRlb13axBzoNkSXKqqNLgZ02XtpocuN7VXN7AdNdFue6iDCACQ+jiYdZN4BNrqPY0DAjsyvYGNQrJhmEq/T20s5eMfWxq7tGJAGc3ZA4QMB1vWotJlZti0xUKOWZYHK302NJcaeh0fvdEyKsQTcY5Mm4YSMyJRyUXS2Dc+nYWxHdufSUr6UzUhXb2Fx7HincHZc4TgjWkBDBjrkLXMqX98eHGd7/QNhMinei6qBbsIWQwZKsYAvuAKtLwFLZBib67PjhsdJeAdctF/d/h9/rHFx3P/4+buQLw+Pj28/K3n/Of6OxB+9/QZFP/4D);lineShape=1;" parent="1" vertex="1">
                    <mxGeometry x="299.29005015914106" y="189.0420285376686" width="71.28531399878518" height="17.396646794049268" as="geometry"/>
                </mxCell>
                <mxCell id="250" value="" style="shape=stencil(lVjZctswDPwav2J4k3hO0//ITJzaU9fOOO7194WrAW1C0iZ5k+UFSSyupTbx4W339LrdBPd2OZ++b3/vny+7TfyyCWF/3G3P+4s8beLjJj68nM7bb+fTz+Pz9Pv16Yq8Pv04/bqu8Geyy8R8NQru7/TCk0v/X3yd4If98Q7uE9UR78i5dXxI8/U9wEdPacQH8h7gG+URHymA9VMhrgM+k+d1fM56XMVXSnkdXwLlOOCZIli/MJU08uOplHWDWiiG0SAqxYsGLVDzo4EsAULcWBnvBgw55URl9FmCVsGRWIJWRgPMqnc9y3qYI/kAt0gjr1GYBluIE25MJEmVVAFNVROnZ5KkHuC1NutDZmLgQ5EdRl5LoQx2kGQtY3LXqF4tV0OiZLJb0hWVW9TkVIOWyYF0lUwwBuy0QpaPZPsLs1b48omIncUz8CDovz25He5gnjjZDRrqkDaPBJ8AQ04zv+MbtYbwrlm8x/ixX7DUGgiAo2DWL1QBP45atHgH6kba2xgAzvpmJWA5W3wEfEYtkQ/ipQSaxaOEyxTqzF/QWPICPwXwU+zAucYL8N93v88HeJ7CFt8AP3m2PmtrXeEzeItvIN960/xoQQYKxW6A2qjX8N/hUcI5O80Ej5qoI18toQmcZzbKJMAFFrA3ARANAwvYFlhRxtb4Mf5mqrDBfRLPSkefGdJRQAVE8dgMGdkTiTqnBPYxluHszt4aiA7zgFORdXUMmrxBiqUGu4MM54bkhLPCMbFK4WWDbAdTinDQtK7iuiRqUFvLpC4z0cXIB9F1Y+qJrmvIh6Rh6gYJilnRUDzSKu0Adfc60x+SjgwMRGIFc2GR8gTlLCLOKBafYYPMYbZDxB01WVp9r8HlAiqzmaOCe7mjsm0ZjSJIbunZzV6KkASRC4fRIEIyoLRSNOX8zgQ0DR4LHJEDRiSr4lnTB9mcnQE3M4FcYFFGvW3frqNIXAZ7W8ywbQVbXgkWy0xqRaiEgja021W9QWaSaQ7w5p3IG10A72/ZppiHQ++Tnz3ehcvD7QvLy/5wmD7Q3P9vv8jIq+lrTnz8Bw==);lineShape=1;" parent="1" vertex="1">
                    <mxGeometry x="368.51001114408143" y="204.3128885593282" width="3.685304084042354" height="4.822744799391303" as="geometry"/>
                </mxCell>
                <mxCell id="251" value="" style="shape=stencil(lVrJcls3EPwaXVFYBtvZcf7DVZYjVRTLJSvb36cRBo9E46kV3yhqhgBm7R7gLn34/vDp2/1d9N9fX55/vf/z8fPrw1366S7Gx68P9y+Pr/h0lz7epQ9fnl/uf3l5/v3r58vf3z4NyfHpt+c/xi/8ddHr3ZU+tKL/+/KNd83/+8XPF/mnx6+38s2ltMgHl5qQry5mku9VyBeX/SIfnRUhn11Z95OcV79vfN7kahbyx7+nvLkchXx0tSzy2ZmyZ3DFFvniktqPd9YW+eqSsE/rLoVFvjkzId9cWO3Z54Ln8sW19bzBu6wWgMNIASYQFmrmUl0V4rTZuQIigFZIeoXgGq2gndy8q2uQhiy9Vvu0yaFQnO9CAV5KrNDEoSvybI3rUGdmnCtgA5SYTR662uZphIZSSJxqqC3/BeO5QmQroVhEpYDaQytEF5QfvIurWZH+UYRG6RxLyH91hlJdp/qFAiC2VA6/HgoogWqF7BqdobosSl6xTaFNz5wroOaRQpfBV+LMr6Oohhld5wph2uRQiC6qFfwMhEMhOROHzs01UkDlF4UsI4HWIpCy6yK8MwoZKeAnlEJynQ6NjBNWyrDJWusT/CAclz03Qwsz4E8VrLm+rmBRxpJVrkuWXBOHNpQZUsgzpc4VjM2Kn1AZhw3YmkDYpEogHDFRS4cfhFmvRjwU+tzkuYJ3fjUrPKNQBgKhr2fIwVWxJYRaX8MbwfKOAvkhH1l+rlBmYTwU4Bl1hswJhAzJIuOQkBRLucgOlBKXGSStAjMoKpX80CRaggI7rs++eq4QuO2OSiVCI3lGM6iFKrxRevPqaVRbqdBmnTsUklao3IHQMRSmh0KgLeWJ2s8VijNSKBKRoWcyKq4Tcp0r2KxCh0KbXe8tBb/GElp9V4c+eMUBvIOEDoAi1LIGvhHhPcDOijWAoJqIJcCpsAZfzbLcA7BReAMFKpAIDEl1CcBUNfaBUlezVs0fAJyJXwFcdxGtgOZ13VKLEwWeKySOJRCEJooA6AVlHDiLSiAQGMrpViSJDhsMBe1SK3QXVr+B1lURGSBx64ZAMxU0qZs8EJ2QL1zqQZO7iKM8A/+QzxKnb9ncgQFEoTcX1szpVaLDNE93yDcJGZILawj1LmMuTu9cSbGf9eZUwXM1GgsIB0A+snwQG0Kl2OTVmMQz8oSB1NjGO+ubvDwvMQzIN1Em/Fz9Vl4lPVfGsR9VtyYsuLWPlLe62V/YJ/BUa/hXVQjmR5A3Vah5Kte7nMKEmX438qoR+Jnet/Iy3oj6Q171b39y3iJqtOep4jiv3I/f9mNaPrC8Ao5n+as68UYQRvxI+8Q9f7U9twKnyKyf0P5/52Pb8kvJh63+NNkwAk8tx3lVC2YOOOwpznuWj1Hm+4/Kt70+iPiJ2/6brP+Jh3e9atrBoAkNVTdg3o/J+pmZLI65uRpizWi/ARyqodZNPsj4bxxvAExq1NIZAAGQqf4IBJdoAXBXBSrDvMa4AZVqDjJQKGG+JDHZwLm0QtQ9yZgoAnqrscbA6sQGdJUbbID4RtXAuHHdBUFRVDR0dnQ1TeM8Q8Wa5G0CUpk5U5Ste1xwkZX8/OYtokjzWVBRNZoZ8JUUmpy0jHQm/q0HJ8hnshIIu+p/UOAZQpYFcgy5aQ5i8kZk3HPRWCNqTzfumSVohc4Mv3gJeqHAU7suPZ0Ae9ct5Sa3lALf9kFB1b0UuS7lKs2aElPLXOY3b03teESW5SVNysxVsunelrfZZprx+9aokrpt1pfGaRtr5CAvaVJn/Ji9TCDbGL5pAGnhZCgdhR8sMmS2KudRtl3HGQytxt6ZQYaZrEtWOFpNX9LgiHw5EPV9ReeWBUMr3Am/ptXTcGVWk4rEHSg1yawRzJTT13A8Vyicogh4deeCDKb+gBxUt825M/sdWa5uCDe6gMKj4B4qaaarLD/fPZwrRL7ViRqQlQ2xjocL6qZ2mwuiY0S1pcwvNQYqVdeiha8UR5sUsVS2MoPOrRpK2eazV2xwDos3Xgj0UUVtrduoMmrHjZk1PUTocnoKOMVvI9DjlIIxlwx6xgxISNO4UKUfADqJTQY9TqyN6V7QKVr79qjF5PwLSJvwEhQUYQWWJ3AS9MsFsAVqKGAUKh+aMeEAZ1EQrm0JFLwkuaBIPMWTQ4/BwYigSMrUtjF5kUOG7vnCJcuhYt8u+0z/ftyeFMiGC868ySuSDk4eqb6891aO+kKQd/e9sP31VWWv3Nk0n+xtf3uosOqYMWWWF2k8ZkbG8mr/ne2ph/bXmeyNvLInqkRgeeWvzgnmZZ3rnSupl7c+kKd81O+zbi4xrgrqBdhYgDekwNeQZ4OqqfQ4MMur7vfDj13flceH68vaL49PT5eHubf/55e4+Oryijd9/Ac=);lineShape=1;" parent="1" vertex="1">
                    <mxGeometry x="282.300828516509" y="188.3141471026542" width="17.71241539240186" height="32.37667374298537" as="geometry"/>
                </mxCell>
                <mxCell id="252" value="" style="shape=stencil(lVjLUhtBDPwaX1XSvHUmyX9QhQmuEEwZ8vr7aOOaZUdjN+FmFvXOaKbVau0u3rw83D7vd4FfXk/Hb/tfh7vXh138tAvh8PSwPx1e7dcuft7Fm/vjaf/1dPzxdHf++/l2iVx+fT/+XN7w+4xLVNICCvzn/EAoyL8HX87hj4enTXilqkN4owrClWod355I8/V4EWIeAUo5AkAgHjcUMkmDgBYHQBSKCQAipTICKhWUQ+xH0gEpUsMrtDHppKQBA8YccsbHum6gA4qQFgjQMYdSKVUASBTHm66BEkraiDBeXC39yWVApuKoJySIGoVqGAG2JsqhkbgVGiW+DghMMp6SGpfAPRg387iC2rmBpGPs71sBmRjQOzbS5lfIIIeUqLkVIgmgRhZKwScdwE3n1v+9OdYGRKOkzpwVUEhADpUpjTm0CLdkVEtjxTWmCFYwqiVH79oJf1n4sheBYkmDi9PSr2kDKGBLWn3FGSAD1dDpHpYVwCmpejE2AFINA+SRfEWhCOiqc+uxMjGo6QWgHlDQPUwdqAq8aQME9YCGtrRe00b5AgLUaUuh8/caNZpOAHQPhThPW8JsjWlKGuiSiYrrQMuxohWSp4ZdXEVJmzERDxBkNZLnkpEvI0CmNLGVEaBQcCs0TL7atfp/S7T2+toCkGqY/ZoAyGsYvZP4pCE1dLIOCutBmL1sLPqMZaNNNcqIfepvzgDwIppvclYQgrXyYwCzFtX1LO4nfbkFqS8561lIK2v0em9dEcmGObYwcqNhNS7c2/La2UPv9Zc7uzldZzYy7LvJlMx5h0oZUCNq97UrwOgKkjbDxG7ieOPjZU9mRZr8EgWwL4TeolZAg65PrKrHgjAlEeyNy3hziydDgDB5Y4VCY3NWdNwwe40ATNmxT3oRXgOIq9GVj1dGRaczVnHQ//j+8M6Eol0htiMQjp9nLBifxxNdhjiYr7OgNiWiGU49seNKq8uKRHGacwvYT/Ue2oYVpKml26g1Hvfn7N9vA10F+49+CNA+zl0Mn0axAHVi6lEC2yb7khcojEzBv51huLP+2NOylxOG1kv6hPkWLkitSKMLR448dI+1CYe36ljM/cGV8Oz3DvuLl3LGs68vQYbO5oOfyt4Ntx9vX+XuD4+P54962//7r3j26PwFMH7+Cw==);lineShape=1;" parent="1" vertex="1">
                    <mxGeometry x="281.59900681845374" y="214.4062177744138" width="4.951599658520582" height="6.792262053407634" as="geometry"/>
                </mxCell>
                <mxCell id="253" value="s1=abc&amp;nbsp; s2=cac" style="text;html=1;align=center;verticalAlign=middle;resizable=0;points=[];autosize=1;strokeColor=none;fillColor=none;" parent="1" vertex="1">
                    <mxGeometry x="251.95" y="214.41" width="110" height="30" as="geometry"/>
                </mxCell>
                <mxCell id="254" value="s1=abc&amp;nbsp; s2=cac" style="text;html=1;align=center;verticalAlign=middle;resizable=0;points=[];autosize=1;strokeColor=none;fillColor=none;" parent="1" vertex="1">
                    <mxGeometry x="361.95" y="202.8" width="110" height="30" as="geometry"/>
                </mxCell>
                <mxCell id="255" value="" style="shape=stencil(7VnJbhsxDP0aXwmJ2s9p+h8B4jRG0zhw3O3vS9WQPaLGb8aXAAV6cyZ8I3F/5Gzc3fvzw9t2w+b9eNh/3f7cPR6fN+7Thnn3+rw97I7ya+PuN+7uaX/Yfjnsv78+nv5+e6iS9de3/Y/6hl8nnDWGjKkwNr9Pjwz5+PfB5xPgZfc6ARTW8o5cuC6fA7Hv5CNFC+QtcezkC9l8XT4lsqGTtwwVSE4rYCM5cx0QM+X+hGoiBoBEpleBPWVwpRiJcw8oFBAgUHG9EzzWIVBKPUC0AmYVQCwdwIufHQb0VvKJQsGAXodgKYHIqADuAeczrwJsDygtuFYCIlPyGNDHkrjSLlxJAUp7shKQmMpNV0pypXQToCzFkgJkhikaHXEfGtlTAQkkbiq9H3KCOR1Exb7I5EIJBF9g4l6HYikDs/rcVDwDHEVwJe/J9tFazpVwHmAoKUCEoeEkv/oEKoky8LQAuDdryVTQCZmMOqG0M6+eUDQgAqVdoGA1IIEEckzZaEAGAKmkbjihAB046GitABDe0g1yH3yTpjqLqA0nDkeAcJWWZsY7gejLLeWn8uBGko/D+zPIUG7taeo2IG/JDvIotk07fSLvgQ8GEiORjd/vlLy4BMSppaDuwziIyDstn8D9g2YMIo9aW9H1TuQDur/XLEwAyKBW/D9ogEqwqOAGEwVUXAzZ4YSAypfTHKYaCWSNFBdF3ASQUfmKQ5gyTH1hXYr0SFewIA+cbTaZAFBXYOGSrAEoUiVU03CCQ56OZIbOBgGmVeiVVxrY7YLObuic2KhW88IFr9lGPlaGhR+KC4671FreysC+DCwrU8emoVwvJKdr1WFl+ksDmdEB+YwH9oIrmCSnG3RAJVKSUw+GuAbfDhCSqdhLhDOPAIo6AbedjyFUQ+f8BwmVGun/E6oPJlRScQdCBVcYg49Ti6v5+9thnoqYwQQ9E8o8ZZGLy+ACBzdPorPOZgt1kEKf++SsUycwknR/RRfqXIvS37dEmU7OeCZULGxhNh8BC9N/BfR+WNgvzADwBmMELOxIZgB4CzMDwHueCujTYWGTNAPAu6oZAN6GjYCFfdsMAG/0KqDnAAs7w9o/FQBvJQWQej/UvSeyUibXZ1zdrAKAl77RX6nublHddjrjpLcwCG+xum5W3MwwP+rJCKAqHwxWCRyjF+iITUar+bxbWm+r2RNbSORTUfLo/en8uos8I3khJFbJI/afQlt6XeQN2v+X8T4GvD87vSrEXERKuqIWIg8SuQx7v3PMzsv79rqJPMh76avD+1G9rhQ2K3lGq4iiCaSBH4Ru/uK0AiA/Lh+4nnYvL6fvY9P/6w9i8uj0Mc3d/wE=);lineShape=1;" parent="1" vertex="1">
                    <mxGeometry x="98.3072814585725" y="237.6117823493899" width="0.38231145590445426" height="14.325464538840556" as="geometry"/>
                </mxCell>
                <mxCell id="256" value="" style="shape=stencil(7VnLUtwwEPyavU5JGj3PJPkPqljCVghLAXn9fdrZkrHGdlMck8oNvN3yaB49I/mgV89314/HQ3DPL0/nL8cfp5uXu4N+OIRwerg7Pp1e8NdBPx706vb8dPz8dP72cHP5//F6Qk5/fT1/n1b4eeEFlZQmVnC/Lk+qlPLnwacL/v70sMD7JrUOeJ+kZULI4uJACFECe4OKjm9QJ8ERghNvCFma7hOKuDDg4/zKTXyUPK4f4aO0j1eJ4/pJpZINqLU/RVFif5CaLL6QEASJZcQncSQCwUYM+EDs8ZL9+/B2v7CH+N9Jaav9Noa3+4U/yX6RXsZ+xCsyvMsWHzjejfggmeQD8Ca+Xhq331m8knxQyaP9MUvytF5Ge6KXQvbrvUQdCzKJkhdAI+JoEVTIEQ8hhdK4ZTghkxQKWfxokkdOsJp0NqmrNLIFjb3EZydJDQRfewrMBkkmmhJDL9mOd9RDMUmqBs9EFJLWjEyLJ3iksDNFKZH4Z5KE0Z9oJKSGU+0Zs+gziRCy75o5b4B7NEfbZ2ASc2kuNsToM4kkXYEBY8wihIsVGrZolFd73m4TWhe2ToAbAin9qlaLcqXaUlGaY5xhZCGbrq2vNxdOoCY1tW+oiD0JXMOmR0LDCEJSA4QypkbjggeCKYZWxLMhx600HoxK/Dq9whAqTSYQ8qjCeMIqevq5WkJmJlWpagmN6DwIGlcEFojZJwsCm4xAMI0BBCYzr3FauJX1chBs4CoNNVKnmeyDkfwN3gQu0/Hxdb0FwbPUKH2Li4JgQ3xbiSsI6Y3UcJbARpgp+bIlVOZW5OaqRpU00Db3jwWBTf3bNZoJY8pmE7k3lamsatRxoTFHBTxJzKS6yr75QLZHMJPSwg97DLeyibVqeDGtbEos1u8m+F70M8HRQ2dFRZjpLdKKwM9GLEuVQEJdMR+avui7Gm63agjNmOBZ6cha0PrHOCRepLnZc0AsdOzOSfy4B219StubsdJY1cpnLExxdrCPtC1iizoSfKNyjDnUVBAGe3aYjM2efrzro+w2odguVyQwfLA3JJEqX3R2sk99XNk+OWRbDLWfd7fx8NAoSj7QdoL1/GiQn9vwNkHtBQmesCj72u8rFnnExN5rP3zNhMoHh9URF/2KVGfuh8E5Bo62hn/giidZ/P8rniX+777icfZ2AbLHri9Cj87iSoh1gmg7OFSMiVzp1TfXb6RXrn7VXkOhx//p1tjcX/DWBE0zW8YSbFaDT5PJIXpgA74ajaB9ZqoZ41MpRBPXNRn7qLeNDzanY7+m28On1frMntDH74X9vGsEe4PkScCmLxUWzwIMvNGUTEt46lkWz8beCW9Gxv4pZdceczHSA7673/d8mXkbjz9ePwPdnu7vL1+Rlr/bz0Z4dPnkpB9/Aw==);lineShape=1;" parent="1" vertex="1">
                    <mxGeometry x="97.61507508448949" y="237.22701852911405" width="4.034825582738818" height="2.7432098423393434" as="geometry"/>
                </mxCell>
                <mxCell id="257" value="" style="shape=stencil(rVjLctswDPwaXTEEn+A5Tf8jM3FqT1M74zh9/H2hKlJFKF7Jnd5kCWsCxGIBsgt3r/uHl13n3evlfPq6+3F4vOy78Knz/nDc786Hiz514b4Ld0+n8+7L+fR2fBx+vzz0lv3Tt9P3/h9+DrjgKcce5d2v4Y2jVP68+DzYPx+OrT37xj5ScsCeqbT/X9fsY27sOawBvAEIpQoBJgINIScIcNwA+jUFABzVNuYgxBkCRNpNTeRWAO0KiamitCmgjSEJ5QAAgbh1KcdxzY8BmVKbh+IogG2NnooBJGKwQnLjJk6ASh5kWkN0LUA8Vb4OyJm4tgB9A3apRIquBQgJCFodeKfaVA7KJZA4mcg8AQJFfx2gn3Ob6ZooghhqttSohRjEkJMNulYKIA+6rSFYgAc1nYVqtgAHgi6BnFEZzQNwqciY1zkAuCSBirOAAkRAqmVrvwLKQ6CaLKAiQKGUFrsEXNLPlhp1FM9rAKkWEBFAKIgFIG1VbnpvAYLo7agsgq5ANUTZ2lKDnSMHUq2qIjcitAfGW5xSaeRFCQlWpnd537ixWqRpsQJKnQJkkQlEjlxGLd1Iv8ILvmKCF9WNZQkBcgiPFba1SMsoXBtloHo7nqwIjaprWu4SqmrVjWWRApdm5Jyn+r8ilBxWOQpW8Ljoc0pIkLpU7QikeggB0U5l2klRDDpSlRYgU5v5eKIpFNsYdBrwwCU/jSPzeQPQzzOFVjdUe9DMpLNwbRPXz0yoz1FeDmXAo0i+daif+pBDtuBWxkoeq2vj3Mp2RlwZjNl26ZXJm0dvN472PHJy49mBbT9cOZywnbpXTj/O8gGfrpx1Hx/eFjKBz4aOYjHmETRB5YI1D6AFRtsy3QrzXbLmUBMpBWOPZJrjWKgze/T/YrUB23tv2wD2xyd7TsDxerEjC95OPUCWW7LV3xPcQoZ/uIdYsdeHv5ceT4fn5+HOZP7dXpLoq+GCJdz/Bg==);lineShape=1;" parent="1" vertex="1">
                    <mxGeometry x="149.50443635280152" y="239.35569246077677" width="0.37495293526193857" height="10.579503654052502" as="geometry"/>
                </mxCell>
                <mxCell id="258" value="" style="shape=stencil(lVfZctswDPwavWJIgODxnKb/kZk4taaunXHc6+8LVSNZJKPN5E2WdwHiWIAa5OHt+PR6GNi93a6X74ff4/PtOMiXgXk8Hw/X8WZPgzwO8vByuR6+XS8/z8/z79enCTk9/bj8miz8mXklUwkTi93f+U0g8f9ffJ3xp/G8wWeh4iq8DxTKPiE5yr4isFLWfUJkCrEiSCAf9gnaEYIR3D4hMAlXBFWSuE8Q8yAVIUZi2SdYEoNWhKSUgAcfqdQespJjEDT5OqulkMsg5jYCw0eQIyEtLb6A8zDFVLeFc+SAA08ptQ4ycOCodAcKEC8NPlMGJbPTxhbvgRDcUp4Vn0hAlzriXOMjLIDJptZZUSqog0hDi1dgn5fsbfCMNLBEt8Un1HDc2VdQr0BF2/yg/tFW9FM+0ZSg2PSD1QsIRhdr234AY8uy0fcbzE9s+qEsM2Mn/7nDZxAvU6nxHwmSOwGY4oEA/DIBN3gFCXWknX0HBeO7AqAhvUa3KbCCxWT2uwbCAyK6Fu/heT6H9zZCmxXAMIApgnqEJoES5kxcaywK9CB52aPromRKoCfCWqJ1FfvF5/uqycttY132mGCLN9dtcV89719YXLvsvYP3j/scXAjWuRiftcGju4G1gfoG75D9RNzhgY4NXzo8KLLJStvzCxjUJlvf2kcFmMZCnU9PHuXH5lqLj0g3rlM+4wLYXEsNHt08DJ/qUSpwc0yDXBp8xgX41BX8Y7w93O/7L+PpNH8ubP9vvw/s1fxtIY//AA==);lineShape=1;" parent="1" vertex="1">
                    <mxGeometry x="147.15092347007027" y="240.10254230770738" width="2.102074683239177" height="2.5167040925241815" as="geometry"/>
                </mxCell>
                <mxCell id="259" value="" style="shape=stencil(lVdJchsxDHyNriiS4Iaz4/zDVZYjVRTJJctZfh9MJpwMQU27cpsFTaCxc8cPb4en1/0uuLfb9fJ1/+P4fDvs+NMuhOP5sL8eb/q048cdP7xcrvsv18v7+Xl+f32aJKenb5fv0wk/Z5yjVCZQcL/mDyGR+D9fPs/yp+N5JV/I9/JCNW6L+0jRdfKeimzLT/b4Tt6Rc0A+k4iR97wtz5Fy6OSZGJwfA9Xc2+8oAMLJUTEAIQYOTZVi6iMgJEBDTu13A0TlDHxamHwPUCO5AoBQrD1AKAMNNTWKDZALFUBaZEgj5ZAgoPQcRBMJALxbEmdBMCVAQlVInxqSKGJAMoBCAZGoVA2gUgaB0POk96vqzCC9JVPty2Hlh/uIRDVZFX8z+D4gDjbV5rgtgI11oYRYc0u2VSAqBiTDgVtb2ALYbArkMYdgAK6V7ZZbXR/quqT8FkD6mqu1tc6t3LAaKuxMGiYXLQBmX7UFoRwKMklaXFdF6pEGLblk4yAo+cS2e41MRW6VIZcybGUKcIZD/aioA9sCYmRSGXIJN3y12MsAwDUdhrYRcE2zWNIOcbgLAJGunnLfjUsmBp2saMn3bp1GCghcHibENFkBhxzaOFjmaIUDImnn603i2nTeXx4Kxd4kHe0BjMVpkPde0nWJQeB4KZel3yfKQIPuS6WvaR9gE/C68BkNvh1xH6C/+wLyGTayZC1SUojCkNys8wJFwW64ugNGcD7bjU/l0fRhGzPW3g8yOxDH4Xy0QreJv5JnFAByg38S4Dts3Or/CHLO2XHOngKwZ9jDpisDPN/YH3AdO5sP0x0F+P9/bzwfy+vDv+vVy/F0mm9n6//2Oqaf5qscP/4G);lineShape=1;" parent="1" vertex="1">
                    <mxGeometry x="149.61892720018164" y="240.04929293552436" width="2.2633787975451383" height="1.2421761997367278" as="geometry"/>
                </mxCell>
                <mxCell id="260" value="" style="shape=stencil(lZbdUttADIWfxrdnpNX+XlN4D2YIjYc0YUKg5e3R1mOIlkSd3vnv88pHR8c7yc3L9v55MwV6OR0PT5vf88NpO8mPKYR5v90c55MeTXI7yc3j4bj5eTy87h+W8+f7/mQ/+nV462/4s3CNUEKnAr0vV2JCan+v3C3Abt6fAxmlGCAJWnWAhsoGyIKaXSCJAUoEeyUltGyAqis4QG2IFmiMFh1AVbIltYLE14FCyFYlJgLRdSITJNolGtiRKRGq7ZzqQE4jooBtI2oFO4BUkAVK84EMsrrmBhIHKGMjUkV1VIphXCGqW5zO6W1pFggITklaQK4G0CKzs0KuaMkCGSE53lARrZlU6OB8dG+TXUFbGfyBoGFG6V8zykPjCLFcB87c/OkNWoPh8hI6MBbQofJa3UdysGtbX3FZJh36YUg1GJySeqzYkr6i53KrBeXbjFYnBjQa6wBofHozmhCHoVZZHTN1QP4HkDima09Dx0whrm7+BBKyE0yc1rQ+i43ofHRBtW4tDHHaEMYwzrym7cXn1ar2AxKvKXLteWuLSODg1ZNsYgRfUc0TWz831xQcR4GYkZweBxmBBHEmRz0x/Bm0AY6garpBofHfpgdfO47HebdbNizn98cdil5adjdy+wE=);lineShape=1;" parent="1" vertex="1">
                    <mxGeometry x="180.07971640671582" y="222.97788954255753" width="0.27185110705274407" height="0.27268505530859377" as="geometry"/>
                </mxCell>
                <mxCell id="261" value="" style="shape=stencil(nVjJchoxEP0arl3al7Pj/IerjAMVYlwYZ/n7tELJTLfgCXIbZvqhXl5vWvmH983T23rlzPvxsP++/rV9Pm5W/svKue3rZn3YHvlp5R9X/uFlf1h/O+w/Xp9Pv9+emmR7+rH/2f7h9wkXMhXbUM78Ob0xlNK/F19P8rvtq5Q3QcgHikg+UShCvlAuUN5IeevIGQCIlKsEJPLohEomC4Cz5IEJ0VM1EpAoVQCoFCTAO7JApRS7iZ8ADou7DsiWrIqCp+gBIA+A2h19EVA8WemlGMgAL5VKzkkAR9peB1RLRRqdHOUIAI6KjHRKFNEJnnwUgGygDQyI0kvZd6uuAZI0OieyIA4NoFRiL01OSDJ/LDlAvgaQgeNQlnAXIM1OUHEohRJI0Ro1+arpbrgM4KIhVeLYwxMyVQUIPQcvAqxhJkj2VSYwclPpdW4BCCCDzhosABnoVNiI4YSSQVJXXZgYUBHA6tK38MPlyuTI1+EIEDquErkMRgCCtzoUNCCBFGoFPw6BwB3CZQ2wwAbucSpJOfgV2BBd13gBQLUvfjJhAUBtNBWyTgMQ+7jga35jQIkU7D0qcUqqzj4xmpNUZzV2a2POQA0UOP7sxxxFdSPphJiQjwuXdxqA6F1c98mNCZS5zUouTXN0mB4mZSDm7sUbC000A11xKeMpLg6RQ+zjHLWDm1A5vh8wTECTFhG4qSkAbkKhDk0It7nInVzaMGmkDAiSG5NWfQGAh4EGkPyejBsNIKnRBhqQQQzw0kuTkal5SdaZyVAWhy43GfuY3klNosxf3LOCmkQ5zUECcT6oTt2GY7Q2Gb2WcWO1gBo+6DrDSlpQjXkPU6NrWyGADc7pAagtKYDevIelYQ1yQCVrehVaLFqQS/3rcpMDVcaRkSZPVkWr/3+yi1rdHPCuazpnblulh4kVb+qm76hn8Qh0ZwIHJe5BcLlx6msDlJMcWu+VPGKnjbpwmT4mXtbe6tDintmIpb2D5Jm5vtyhD6dG0PLI3jAsw9if3P5UjcPhat1Pxwux4T+uhSby/HC+g3rZ7nanK6zld31nxa9O913+8S8=);lineShape=1;" parent="1" vertex="1">
                    <mxGeometry x="205.79677825525084" y="239.60477528383421" width="0.2559984778122885" height="9.186682507199244" as="geometry"/>
                </mxCell>
                <mxCell id="262" value="" style="shape=stencil(rVfLbtswEPwaXRckl1yS5zT9jwBxaqOuHThOH3/fVQWq5kqa1EBvijwT7mtmqYEf3vZPr7shuLfr5fx19+PwfN0P/GkI4XDa7y6Hqz4N/Djww8v5svtyOb+fnqe/X59G5Pj07fx9/A8/J16tFNLICu7X9CaS5D8vPk/44+F0gy9MvnZ4X0niNkEyZekIzFRkm5Ayce4jYkrghJiIY0dIiZzbJnCg1J8gAkMKnrzvCDlTBVXyTNwTipCUbUKlUjp8DRRBCol86PGRYgBdoNxnXJlqAm0m8RafQfzeUZR7DvDBlvSDDMaS9oNXtQjohEje1FTIoaZFYkPImKApGkIhh0Jict4SKkraUzJJ1za7W3OULB61QcfYqNk5qB2x8tcDMgNxNnO4wXsgNZX6okKMpEnV4DMUzhIvEL+MJ1FEZrTIN2J7XNQzwplbNEx1VkD8y4HA7rsycZECaPDKTMdmZv+qmkQZC9nqUuDMrShflxBowoq3qAHe5161Bfl/CLMKZ7yDOoiU+wyK2inyrtD8fF5pOtgVCEfHoM9AYrs6rCtHWlfntaw7zYMUih296Nr0ri/BQrkvEntyoM+ZW1dnuxM4GKXaPavyAF1TfO3XoIP3hKrxssGjJuitgJ3BIzdVsUs2eOTuqkS3wIP9NJpnMHhkFqpDY4+OBMWjMhRTf4/iqTYe326fW/jS5xuwatxCl4wTrlaXjAfizuv4x3h9+Hv3fzkcj9Onw+3v9ltBX03fGfz4Gw==);lineShape=1;" parent="1" vertex="1">
                    <mxGeometry x="204.12312463899923" y="239.47260125056835" width="1.1807748506758504" height="2.1869068506291875" as="geometry"/>
                </mxCell>
                <mxCell id="263" value="" style="shape=stencil(lVfbbtswDP0avxK6UJT03HX/UaDpEixLijTb2r8fPUOpRVenKJAHx+axyMPDi6d497J/eN5Nwb1cL+efu7+Hx+t+it+mEA6n/e5yuOrVFO+nePd0vux+XM6/T4/L/+eH2XK++nX+M7/hdcE5UsT8c2/LDfYk5f+d74v98XBa2QcKrrOPjmod2zOl0tkHT8GP7YXYd/aeSdLYvpLv35+phLG5jxRj7w9FZF8o9fw4cg7Qw8TR2CN/oifHPf/Qn1iIe3+8OhQB/0LZEFopyhiQEqVNhjM4QZiC9CEEqiBlOVDqXUpMBZxQbpw3gKSW9o8BmaT2qlAaAKBWe0L1lICsFcCpBwRIqwJy71KNxBhQcw9QloD0ZoA5QVpxjwCl12rNlDIEmMTVAqUx09pX5/wKFHRpj1eAilwqTf1rAANAtgX9nsoRwDsbNIxBqHhLK5SGtI57AySqSK3SWF9JAyZOGicr8QXkknpsgr41/hEgG7X6JpZR4kK1gIASVzZq9a3XjsQXvY3B4YqTTYl+AqibPEQQg3ebTqapzihqPcIAVI8YIManQhG3vrCpIDSC5ppnCyjohGJ3hhUPIzXZitCwsF6/BijSWGyAwuRA1FmLvqdJx5iAmsu6F/WtTAIxCFof574zJdeK6uNJzVZMuh2g3sdps/wU8oClmDfbmI4xBHBN/zdAagvOaF8yy4MPcFKrA1sA6n3qQDQA5Q00fH2fYcln2MpU3n3r0x00AylJayq3tEkbMYMV2vVJYIErerTTgXObSAN7QxAX6L9ud8YfbRggA8GurGqP3u9ty5vtUcKsSBlPdNe201W8BdqbnUT5RDuJ2+zDAvuj9sJeP1qnAgbbZoYwt1k6sjfx4v38q5+En9vrxfv359PheFw+X9fP7feq3lq+deP9Pw==);lineShape=1;" parent="1" vertex="1">
                    <mxGeometry x="205.4090004891869" y="239.44420332559622" width="3.5571089711852313" height="1.3466199596734096" as="geometry"/>
                </mxCell>
                <mxCell id="264" value="" style="shape=stencil(lVjbUhsxDP2avGpsS749U/ofzBBKppQwIfTy99U248WWN4fytvHqxDrW7Xh3fPP6ePey3wX3ej4dv+9/He7Pjzv+sgvh8Py4Px3O+rTj2x3fPBxP+2+n49vz/eX3y91iuTz9OP5c/uH3BRcp5QUU3J/LgiORfwtfL+ZPh+fOvFANg7lQiNfNvafMg32hDP7eM9XRHR+IESBRrSNAV/g6QPnlcYcQSDwARArjDsohpOsAduRlALAQg0PiSHE8JHEUAWnxFEcOkihVAMhU3QCIgSIARGmnvgKUNHApOSojIDFFQDppmAygkITrgBzIxQGgKyUDQLK5pyu1gNxWDn5M1nVlGyCURg66gjiUbEnrSgbZWh2lMXC6ggJXQ6O4Apg84FA1+UbSdU3HbUClOsZBV+QDQLGACOKgr7NYADyl2gqyAxRQorU0BzpABdlaNUwjwDtHzgHE2ob6LVDkkm0bCwCUnMZJJhIFkYjkwnSuIF2rUHEWEEHJLYApEKi5qku+WkBAO8SN3PCIdCLJFuBQ9mXiibRDOxTyU6Qd4lCoTKQ9zu84uYS68ZIIU2owIN1lcx9q7FOZ2kDCVS1T5ArKvtJe9wWBAW5yCZZcpjD2vv+oap5CV1Gnie1QetbomOJGG8hoB9kKxAdV/TmAjhxT1VqF4JRKmZKJYVWX2BzoxlwGNVeC1YlllTjbYqDaOCzDGwGibWUqBlAyZW9HRM7kAemU22BeAUwORDqpAhoBKpkSqNEYrexTUYZySdYu0ck+NNsl2PuACssMSHPakK5oaKmaNr1PxTHqM6rX3biDym8BgdMbQRh3UIHPAOBjO/XuCoF6pd6CzBz1GY6U0sqruwUJEtPEJleh/GGS0VzgkNaWONLVAGBzZ8wFxGu6LblG5oq5WGfQJHTtivBujtSCb/L93RxN8tDqtTMHjTRY7YKHDW84A85dmqzpzAFVbX/Wdw98j1bkuDY7r5iLdYbhv3/qK8SH5vrw/sHj4fD0dPle0r+3H0h06fJxhW//Ag==);lineShape=1;" parent="1" vertex="1">
                    <mxGeometry x="243.03460404049065" y="237.98535091397332" width="2.1417782866681443" height="11.67650528391951" as="geometry"/>
                </mxCell>
                <mxCell id="265" value="" style="shape=stencil(7VjJbhsxDP0aXwlK1EKd0/Q/AsRpjKZx4Ljb35cDQ3bEsV5QtMcAPoxn3tPC5ZHSRm5eH+9etpvIr8fD/uv25+7++LiRT5sYd8+P28PuaE8bud3IzcP+sP1y2H9/vj/9f7lbkMvTt/2PZYRfJ15rZJTlx79PbxKl04vPJ/zT7vktPhDnAR8ixTQnaCBtAyEGSnVOqImaIyicoRQq4xakUM1zQq4UedxzoSRzgn1uaSBke6NzwrIAGQilUgZmjTbeSKiVCrBSUOIwELR0T14nMNVxD00ogk3bcDriK7UAjETqxm/dzBO8sMcXML50e7zBK/IB8Th+YO6vrvuAJPoJWgEWpVI8vkI8q8cnsGGmPOZB0x6GE3xMHi8ghMwaDl97iMzw7PEMHMAUnD0LlBbu1jjjMynEq3i8AP9WktFfqpQBPljEjQ7QSAwyZkmBkVBDl6brIdqIR0J+Jwcs5IMnBODjxFRGI2WFypVMnNXPwCCqk8l/9gRpkKDVE1BcJ/FKVLin3oyQnPrikmMEGc1aYp9ztgcn10W6Hs8ITlyMkJGVAuXiCQ0UNfN0dTOkXqpnsdTYz6BgSUYIqyUlpMBKhb1ZFTjOCN7TkQJI0YXgNh2g44zgQ8NkB21afU5btCpaUvOOM0JEnmaSVQIxUA0LDde+LARUaaNX7mVJKJaiVz4joNJgCRTqyqwoH8SLfQm4W7AUXYUGtJL4cmuEinM6j35YwhvN8LcE62NdC1MzlMpQe4dzrkCZKuoKrd64mh6xzHw0bf+7aXOS99G0/VPTFr2atgQFvlIa96sWDyhjko9Qa/KQwyxE05j1dmBFRzsR3yBZYRYspm6GLFC57HMZg3RpmUCQlpU22iJRFbQ+1i1pUQ7kBvVxbQdWVMl17bheg67fQ2S/IoZnfsO34vAozyzsc3L4AExqaRXU4ZFuGV6jx4OgaKvGheFxv53b/As+I/uYrPn9NmT/1gvR2cEwCy6yfI6grjST64qVckUodJfCco7pft6b4f2tETW8AddqvnNR9i7eHi63cg+7p6fTpd7b7/4Wz16dbgDl9g8=);lineShape=1;" parent="1" vertex="1">
                    <mxGeometry x="241.3606344721992" y="238.3590401133015" width="2.294204799441817" height="2.363246433033989" as="geometry"/>
                </mxCell>
                <mxCell id="266" value="" style="shape=stencil(lZbdUttADIWfxrdnpNX+XlN4D2YIjYc0YUKg5e3R1mOIlkSd3vnv88pHR8c7yc3L9v55MwV6OR0PT5vf88NpO8mPKYR5v90c55MeTXI7yc3j4bj5eTy87h+W8+f7/mQ/+nV462/4s3CNUEKnAr0vV2JCan+v3C3Abt6fAxmlGCAJWnWAhsoGyIKaXSCJAUoEeyUltGyAqis4QG2IFmiMFh1AVbIltYLE14FCyFYlJgLRdSITJNolGtiRKRGq7ZzqQE4jooBtI2oFO4BUkAVK84EMsrrmBhIHKGMjUkV1VIphXCGqW5zO6W1pFggITklaQK4G0CKzs0KuaMkCGSE53lARrZlU6OB8dG+TXUFbGfyBoGFG6V8zykPjCLFcB87c/OkNWoPh8hI6MBbQofJa3UdysGtbX3FZJh36YUg1GJySeqzYkr6i53KrBeXbjFYnBjQa6wBofHozmhCHoVZZHTN1QP4HkDima09Dx0whrm7+BBKyE0yc1rQ+i43ofHRBtW4tDHHaEMYwzrym7cXn1ar2AxKvKXLteWuLSODg1ZNsYgRfUc0TWz831xQcR4GYkZweBxmBBHEmRz0x/Bm0AY6garpBofHfpgdfO47HebdbNizn98cdil5adjdy+wE=);lineShape=1;" parent="1" vertex="1">
                    <mxGeometry x="243.47085608154686" y="238.54546370852034" width="0.27185110705274407" height="0.27268505530859377" as="geometry"/>
                </mxCell>
                <mxCell id="267" value="" style="shape=stencil(lZfdchshDIWfxrcagUDAdZq+R2bi1J66ccZx+vP21XaHjQHvcX23xvoASQcJNvLwvnt62248v59Px+/bX/vn824jXzbe719329P+bF8bedzIw8vxtP12On68Ps+/354my+nrx/HnNMPvmfOkOkGe/8wDTM7/G/g6mx/2rxfmhaR05szr5i5RaKdX8rpub9sp7fzOUXQAKFRcC2SStA5IJicN4BPFsA6EVANSAZsC+Ry17rgCoVCM64BqnwNlysCHNEQ1eWKUtULchrUEEpAHA5RbIJIDThtQ2igVhVtyvChnIRKxwCVyaIF8y+suTAbkAoDl7wXAmTPADUBBPljm4gBkACgl6YEEDoQBzvWAQz5E0thHScCBMCB0KyQS5MMIKFbfuCWbAqlPqzgv9B1Rpi2svgeglixxnfiE0g1p5B7IyAcTX+635EAVmOQdeyDfd4AiJVS9r5xRq1UormMZSHCJqdB02sik95WygsWUKQwnCIZp2fHSUhh3OQtK0WEJdIRM/3yXE1cB1CICaeu1NQ0Gh1SFtBWHxirI621OyLfyi4ECAIL0ArcRD6IkoderSC1u1y8DWkvj0tutDIBUu1Jb/5LqVAV8HbD5Wn07D8txptIukPB1pr8JpHrfWjFn35l7YO4otOamW6Ah7vOlML/clyPTDwgl1670ac6gng6VKNTW+3/mQnLPZjwFGJnuYuFgVRwC6YiB7oc0MbygDiJg8kDzd174b5rbx+fb4mV/OMxPk8v/+7eIDc3vGHn8Cw==);lineShape=1;" parent="1" vertex="1">
                    <mxGeometry x="243.9029616037502" y="238.1039766227417" width="2.421315069424275" height="1.785351157789321" as="geometry"/>
                </mxCell>
                <mxCell id="268" value="" style="shape=stencil(lVhbbhsxDDyNfwm9RX6n6T0CxGmMunHgOH3cvlws5EiUPXH+7F3OUnwPtYl3b88Pr9tNcG+n4+Hn9s/u8fS8id82IexenrfH3Ul/beL9Jt49HY7bH8fD+8vj+v/1YZFcfv06/F6+8HfFVeK8gIL7tz5wlNYH31fx/e6lE2dyaRD3VP118enrkQqjr7MbxDOlel3cO+IwyOvxHJCP9jjeU4gAUCmOCnwmD06k7nCjBV6IESBRHY+kNgcEEHIyutRTStcBMVEYQxYriQCAkOcBkBIx0KCv8wjIHoY5O6shM0UQh5ybExugqM5yHVA85dFL1VEEeV2mSFfNPXCkGsmVESAtlJcBTGGMNEd4JA5URg1cKACj9bUfjWamCgKnr9kPANGKAhpE03v0kgSoQdRLo9GSmqMvA7S+4gjIVEE9SCEejV6eALd652yNisA2o6+ZLaCA3NDXMVpABQUhTClYAIMalWqLWgGCbMgkY6g7P1xGaIXVSQUyQtN5BiANoVVY7yZktW99qA8ESj/tQ9OREtYgkwbUmdSGMkXOIw2xpU4HcMit6UL2OVRC2iWmIzkwpDWZ8nwkUEKarqYzLUajOJy93gFQK1syZ4pDQkaf078DZORWaQOkTz4Uae2lEwA2y0olW4AgtxaKo4ZPazS3wPYqcPbV+Uw4v+ukgRHAtwP0fkU2nLlCH7lPivpLAJY2Z7sRgbzEPPXvDDuZTt5ksi9BUsZpavgBTi0lA7aoHWz4ykZMY1qmPSiIquxhHIuLVcDoOsVBCU0CGsrkpYrJcXE2+ZSUoUjnRGJImYNxSNL4f0cs0URJ0fZKpa4JNNeFbI82KDmuoG3EYHul8msBGsLUviM3bnoZEGw96AqRgQZdg0xz1SUlAi/51Lakbg0SBHCWCuiihQZEubDJoTkdLRFgOHTPK9XHIprB150l3njNnQgoXqKnr+MVXRcdZ8RRrJzlI65Ryyue8fa+wCO2bRmbg36fVh4Vh1HNkzjoWKm1p9vENccncXCYafvCphZL67Aja+syt4WptrXstiT44i3Qp+L64+PC6Wm336/3Vf17e0Glj9bLrXj/Hw==);lineShape=1;" parent="1" vertex="1">
                    <mxGeometry x="290.1066741402322" y="234.3731004259394" width="1.6236125673892055" height="13.652735948338641" as="geometry"/>
                </mxCell>
                <mxCell id="269" value="" style="shape=stencil(rVfbbtswDP0avxKSqBufu+4/CjRdjGVJkWa3vx89Q65Fx2cbsDfH4TF1yMOLBn54Oz69Hobg3m7Xy+fD9/H5dhz4wxDCeD4eruNNnwZ+HPjh5XI9fLpevp6f59+vT5Pl9PTl8m36wo8ZJ45KnFDB/ZzfZMrl94uPs/1pPK/sSyDu7QOTS/uAFCm7DsCVCgDEQLUHRKGU9wHsyHFPwZMADl4PEDpAiRQFAHyj2AA1NZ/3o0Qld/YSyCEHQiy9AyHnAWem1KehatgCSIOGpAcUJgFRLZ5qslGtdR8gTLEHxAw9SKS0AURAWhJVbwEeHam0qK8A7ACgUsgWgMQqQt54KFBKCrDqrhSBlLxTeW/qISLWQqU/U3KUgIuJRO0BniIooClMvZhSoIDiqokoFpAjTLXlEFpN7YqJLSCBgpjkypY06hpawqaRKcCjIwXywebBYw/OqE8zg8IaWr2sxORwjfqetMoVJi42iquCQM1YE8fVAgLKwzJv/hZQqG6KOmG1StiQRn1GmjZXYYV5EBJDWlrudwFGS641kj1ANFryuPVVSmIB8j8BJdsSzaXtBvdHUN4MOQenoi4KpvPpVIxAfEF7RA9QdcGuYef0qtve90C5p6BqFDAfNr1bGQiQ3mYkVh26IKZ+aXLLWNeFDjjQbc1INemyAtLM2VKOCRaD1gr3R+IIY5oT5Z60Lmhopayb5cdTADqq0bZ6RxmoQpe7WIw96kg128mARVQ14vb7aNmrtWlmdR4UH7G7HtaE3gHMTuKJUdX4VoXLHQAPQtVwb89t0O3Zi5EcOdRNlxp5t4etztuxmfBm+493pD/b68P7hexlPJ3m+9z6f3uB01fz5Y8ffwE=);lineShape=1;" parent="1" vertex="1">
                    <mxGeometry x="288.4914629487078" y="234.23797453026526" width="1.499708699871966" height="1.815559126645255" as="geometry"/>
                </mxCell>
                <mxCell id="270" value="" style="shape=stencil(rVfLbttADPwaXQkuuS+e0/Q/AsSpjbpx4Dh9/H1XFeRqKWuMAr3Ja47IIblDatCH9/3T224Qfr+cT193Pw7Pl/2gnwaRw+t+dz5c2tOgj4M+vJzOuy/n08fr8/T77Wm0HJ++nb6Pb/g54ZRiHkHCv6YDJrE/B58n8+PhdWEehKR09plS2rYXIevtQ6YYtwHKlKUDtBAVeIhMQTuACgXeBiSm2nuIjRTwkAMV7gBJKZdtQAlUe0COJIB0Fc+hKBUAMCOOHcCEMgak2gOUEih0A1joAZEKIB2YiXvWlokrdFFTDyikwEUDxL6ZrFIKAFDJXEhGikKqFMwDKkpToageYMhD9s3UABl035jE7EmbAkCaC7tIK+SQSF0zZRxSAzjS15PNkByHiFujkXbdp/PJFiC7kNqlzrBw6kJqt/ZOa4gHwDpUqquQIhCmsb3Fk0ayMfam+LQqIH3rjqZ7umGORCZDvWFev8fEoULYrNaLCxFwXmP0AKRMrdS5vxCLPGx1k61cVNx+kj1A/iegtoj7vLYTVLm8EsvC8yy+PRfNy0BmOKpj9aWOBu+cFrKetGKAVK+u43qA1g2ex+Zie0CDNLDff0KkCOoQvLjW+dJumHM/4so8Vm+aN3bszAX0Ka+XMQXBsJ8kWLVXWtGWGCCQPCv6tVYk8O3aKzxewnjeuK51IkV7ql+oWmPAqrq3M4x9tQRjOZF5sCzMQZn+cSW/a94e/m7/L4fjcfp4WP7vvxba0fSloY+/AQ==);lineShape=1;" parent="1" vertex="1">
                    <mxGeometry x="290.98231822271003" y="233.7510413929694" width="2.430339756337383" height="1.4023723340293588" as="geometry"/>
                </mxCell>
                <mxCell id="271" value="" style="shape=stencil(nVjbUlsxDPyavGok3/1M6X8wQyiZUsIE6OXvq9OM02M5Z037lovWtqTVSvbO37w+3r3sd45f307Hr/sfh/u3x53/tHPu8Py4Px3e9NPO3+78zcPxtP9yOr4/35+/v9wtlsunb8fvywo/z7hE7BeQ41/nH5hC/fPD57P50+F5ZV6IU2ceyPG2uQgV7uwLSQT2gWq/vq7gPABU8rUHRJK8DdADmxPpEtltA7wQlw6gSyQBgEy5D6mrlMI2IAQS6QBed0jbgMjk+yj5SgXsEBNFkzYNNEhzcpRDB9A9GSQuKTEMIFAGeciOqgFUmLicycUOkDx5AChMpXc6ZcilEij2XMpMuQBAtmzNngoAVG5UuwASLLeqeTBHKpBLVX3IfcExRcDWGqn29C6u0fE6ILeKvwA8BRDWWsgbgNIbVJwCah+lEqmgI1VyxunUMrMFCMZp1SUMSOZIugQQPgXkvqY19zBx1Wa6qnYialxK/gLwJHiHYnYITTy3ACYPShbkg7CKRJ9qXUPwFjlbQAA6o39ztYCESm4QpiUOKNXJ1ugSB6AzGhTXk2kVh+sIVYnB64pS5yj5wQlUEUJpDBMGSLQApK51aItLqvEOoRdLTQ1MhLNxrRPtu+jQChAQN4ZZYAGgxCXbg2aAbHVjdqQyFMTE6Wqb1iysFzZ/NHEKGIoaUqPa8WRGPo3JUHKQ3plkIB8soGjDOq1R1cah5KAMeGIZnECJEDs9zKRMhoKYiKW0me2jcvwfADFRwi1iARinJ01I7Lgxa3MKMDtMGqmQN+ybtGqxd47ZMKDSZ+aT0gi8BYh9HpaBBvuQzIwV8SQqbe5cDWVo1tWY1GHsi6geuA3bq8HSAbZqEI246uia0ICf22S7Go4LyIPGxLQgHb/hDjp+907nQIwuKdWqhl4h0CSao53X9ZKC6iGLndf1GhQBW3W91APiRZ837379kWKAPsRsuaSXRYcAYm8EIcJnBP3bTH2B21h3/Q6uROjzoFdqVA/eNSVdXdoLekfQjtJzaXlZwC8VZjrRXyoCeKr9kSTivkuhn3RFWl+9nmgrxaWR97rH5HqZVOEGPXq4CnCTqC1zMeYB+Mq2KzB5wAe2esr4Vcm2QW5tbsM8WXMG9HftqCtz9J7UFGdlDgLp7T1SzQEJgm1NDAUu2vc/hs04NmlaxR2aF3sYqFT/9nY5NdcPf59JHw5PT+dX1vX/9llVfzo/yfrb3w==);lineShape=1;" parent="1" vertex="1">
                    <mxGeometry x="333.94932804472825" y="234.37363286590943" width="2.0193388754976054" height="11.203676200903951" as="geometry"/>
                </mxCell>
                <mxCell id="272" value="" style="shape=stencil(7VnJchRJDP2aviqUqVzPLP/hCAzuwNiEMTDz96OcJouSqvzKfePArd2WqrQ8PS19kjff7m6+3p4if3t+evx8+/P84fnuJG9PMZ4f7m6fzs/66STvTvLm4+PT7aenx+8PHy5/f70ZkuPTl8cf4wn/XPRioc5DK/K/l2+Eev//i/cX+fvzw1o+UQ5GvlPLQD5Sb0Y+ZPyCQD0ahcjUA1BgStkqVGJgUmiUu3U5ETNQKJSSUUiBSgIKiaINUmYKBSio02IV+nznroL+1waptPnKXXmNiPWgFsr1ZflEzWatpRnlXXmZ7i2oCBQQLLz9PVOLUN7muDcSQfISvPwvj16QD06+kyAMUSteviIIzWiv5DvwN1C0zw/MEKNaIxuDOggQU9kYVAGAeJMwHCCmGDcJAGWv3lUvL6AAlmgs8pXqlfIB+uvtKZP4XgKQe75QAvJCzQKuYR5dSHNVkAU8v1Gx8a8V2q8M5CqsKCAAQwTxiCtx5vwlFg3WhZxgypSnxfqQKjVQA5o0saylPJ0QS0TP06JxBiYpL0bLo6KVjRS0vVocaWYE4ah7YIzUI+YVEpuH0aIB1Un1pT/YHjSnFH0e1CsGtaxpit07jcgrR8rWB2HKIHG5UbD9UsNQQJSKzHaxKGhLBGjVfpqtQmLYoap4ik8JorWqDw6tDZZoi34MyYEqcLoVXw8Zd/GurOfmFmU9pND8dFd4gmVfoU9WXylkrFA2CqgeVKHZPBRcoqNRWrQOIgP1sKMgM26vNUmoXud0ujasmFt3Epcg86lCCRsFAG9VcCOMKhTkQ90xKSCTtONv8pAALw0F50OkijJdZ32tFGCmq9+mFHxoTtUoucFZ4V0Be6tC6l4B9bgxd2WvgDqQYsmNbkdv6JMjXutDn8T42ij1nVkD5WE1Lb821d2vnUdg0vHINogjuHZP36MgsNdupjwuua1JB0V9nULb+sCwQbTs35AbZLIWNgp5ruv7bbROcC4KEW4ONVJznV25DcC16NTp1v8ER+MBNZs4nUMZvCFXPzvodNLQ/BP9eiIHM1yZ29eiEOGwoUMf26LWkayBsI6x0oY14g1UJzYX1qGA3sCe73X4ZpAHnToje6fh7Sn7aV33AVTTOjmzM6nBy9DYOBw0BCZOd5pg85AZYkm3JnZDX8XXrbyZThKkSt38xDqtJYU2jsCzvpblVVkDmNQ88bUG05Bnu1kt32hG/HtN+ntN+qOvSVt/E76t+IVbGzW6N4u3Z+yWqN9QtNxedZEEzFsnHyyUUiBpdT/654NrVfQB0h6OWkFI8xq3ELUiDikUD1FtNgjSyruOqOMBjXbfMPURBXUn9kd5ZWJ4NI++LAucKjTNbC1iWGUDFsnJJ0SLebL+b/mAn+94neHNZpylqpdH98IySWdlD36+O6oyxNAIt48PutfE5SS1JBhWvcq7K1iAiBvyNp54Uh7yDtKwCwz73RkPrlBX//Z4KK8ffv/Q+fF8f3/5nXT9f//DqH51+VFV3v0H);lineShape=1;" parent="1" vertex="1">
                    <mxGeometry x="332.10707454476733" y="234.49425083920784" width="5.410130575648804" height="2.6707212230709487" as="geometry"/>
                </mxCell>
                <mxCell id="273" value="" style="shape=stencil(5ZnJbhsxDIafxldC+3JO2/cIEKcxmsaBk25vX6rGOENy8Cu+FCh6mzj8RhJ3cXbx5uXh9nm/C+7l9XT8sv9xuHt92MUPuxAOTw/70+GVn3bx4y7e3B9P+8+n47enu/Pfz7dDcjx9PX4fb/h55non1wYV3K/zL46K+/PDp7P84+FpLd8oOiGfqDQgX6kmId8oFSgfo5D3nhwGnFzAJ/IdAIVakEClnCBQqgBYRx2vkLMEWEnoDIWSWoG15DHgBRADBQxEuUIsFJCdGZBqTY5ixoBUa0qUsJa0JzWqAQKhCyAH6hUD0rdzJY/tEKSWiiePXUMDmdzkDEUCjQo2nAKqp44NpwHeEjacBio1bDgFNEf5qi21QG2iVgXwGbClk4y4NrV0k77UOs4aVcdD9ziAGnm5pR7JY6CrFRJ0b+8cORlBfKwa4RJJLdGwf3MxkGrieoGyQGvUsgYyCAg2bCwaQAWFfU2foS8JfROoSac+BjoASl3y1hoAWypuyb2XivJmmk1iJC5zarREKsabGAB5g7O1N4doYEsx65IyDAHcjyuOMyugNBDZclEDEbgrA9kAHnifjYcIyygn96jlPbBCpqBc72LH7fdfUvUKqCDL8AmSAVA0BDZqMQBQUey6iA4AbClxA2e2hBwpJx0NHZfpfMlBazOALWXTsw47A0fKZQn4FYAasmwNFxdFb2spLS3kKnk74HocbsVrAJWHUJYqvgaQcxeTitPSKm9n1iUDrc6MUkzUvQ/Lo/6N+0ev5VGD6ExC4hWRa1M2+3GoGppCgrsSviakoIEKFBTMxWEWnNz3mBWQn6ZsIoG3BFbgwqONEKCRR8ds2xhgZQ5Ob8yGWoargdqWJucCTBrWv9LFmB7jH+xipPO9p4uxe5p0Mbbt+Q+6mKAB1MVwLdFtRoM3uNSXmH/nPSA7aqb4wBLtTbXClxl2DZ0r8XWJgSZ9aXIhy1FnssmVj4Esa/rkUrkB4AKxAeCLsQUmV+8cdVBPLvcbAB4fWGAyoNgA8AhkALJmTYYsFpiMcQYgfWkyKBqAzEuTUdQA1HQMD7sGIONhMk4b7i3VOhnYDUBuaTISZEBNxyZDxwFIb52MNRlQuXUyOB1mUsNfPJploKqahYe/Ni9NxssMOJVm4PyaM6WaROH5OKfics38nd8ftXyaJICs5CPybK4cRckjtyvmDu1gYShm6utgkz7Sld4P6klGAjXvB/LNhD7eD7eG5Zrzjva6X6HPMRX3u/fba3yPucYfrv7eM5Xnh7ePS/eHx8fzt6n1//XHKP7p/CErfvwN);lineShape=1;" parent="1" vertex="1">
                    <mxGeometry x="439.8998464269513" y="221.56396988481015" width="0.38340724038625623" height="15.433231884328917" as="geometry"/>
                </mxCell>
                <mxCell id="274" value="" style="shape=stencil(lVfLctswDPwaXTEgwRfOafofmYlTe+rGGcd9/X2hauiakLWd3GRpQYJL7AKe5OF9//S2myK/X86nr7ufh+fLfpJPU4yH1/3ufLjY0ySPkzy8nM67L+fT99fn5ffb04ycn76dfswr/FritFGJc1Tk38ubSqH9ffF5wR8Przf4lqiFAR8a5bodUBMlGQKiUkvbAaX29XqANIqyHZAtAR0CUut73g2wzzUNAbaE5u0AUU9SUUoMAgKxY1VJ43ZACP4MdjGiIID9DqokYIdGrB7fwL1l0hVeQUJCmjy+AE4jheoPrIBSppZHfKUGzssUHD+FckB4LiM+U4D44vIXqkA4oZ/uio9UgAyEyqgzDdSQCnyJGj6B/CtVWeHBfSnVVT4K8rGKluwP3MAFh0hJPaOKGBViR2kmQSnFzuBNTVSkyrjawWQESDVVFhegxIBVc6Li8RWZI5WRo8Dcc7zvdasy0m7gG7KsK1sJyIe6Nd8wFKFsovor0AJlubrjDIqCu2te8YkiqjrfnaxKkc19FD/70CiDWohBkVpJtDYEFKtqwKisnD2n7gX3S6J6q0iYo1xWHTlBGZTUZ4hrz8+w59uQ4NzdxI3culXfbgLUTTMZjhkxKeh+ypSKw6OGb1XAweEZrW/2Lh6P1s9eZwzHtNnYfD6oJmZfY8dnRPmrP2+E3XIeBsYilV61G0a6En7qQtraQMeiNsbQgbV3u6vMKKL1Pzgn/x9vD/+G8pfD8bjM9Lff/RBvr5Y/APL4Bw==);lineShape=1;" parent="1" vertex="1">
                    <mxGeometry x="438.49229537262636" y="221.16981180092114" width="1.6142393724237722" height="2.4369203035998686" as="geometry"/>
                </mxCell>
                <mxCell id="275" value="" style="shape=stencil(lVfZctswDPwav2IIErye0/Q/MhOn9tSNM47T4+8L10NHgKRN8ybLuyKAxcVNunvdPbxsNzG8nk/H79tf+8fzbpO+bGLcP++2p/1ZnzbpfpPuno6n7bfT8e358fr75eGCvDz9OP68fOH3lRdI+oUUw5/rCwkUw783X6/4w/55gs8UxOBjpd7X8Z1iMXiuVNs6niMlaxAzMSIUamwIGToQIwV3ADHCN8r2+4ECwKdMxUYoUeR1vCRKFs+BEiBkphytBGoRInTq2Vp0i8EioTQS67LcZF8k1EK5WQ0qFSBay8PiQahMDUS1dwo2j3okiZCQbVi76lAhobkThASYxOGWCDeGao9qQYVwNlWYS0ooNq69weRWQrRS6xsugNCoBk9A9amEYE2axGGZUUnK7AgUpkKdZ04gmwrJPEwJEiLPhMAEdsplqij9yki2aTaBElJCtm1J8zXhsAZ3QsQnaEm63ODRGNak9j5okaISauPviUkRF6lr9kqAJmnmzML6QQV1lxp5lMj/ElQZ3DeqI1Rq2GnXXd/jthpWFyXtC+gEFW5G6OgETY1ZiXYwUi7J1zxBUAF9ltCiHym1wXqoMkp+EIqMQbk85QoFO0dzJEZztHqTkuoATBJNb5utukwk4LToaLfdmPso2uVlQ/yU4zRmzNo206zTul4l0Ft1e2nBE9AJarHbKFnwxpd9AeknUDPWFdERosCw6oxz+486BaIqfmBJGT6t4IP9vlS4OSQvmrTRy5c1GMU7wQvSbCg6wWekwBjHEzzKCaYo3t8G8IFq8XgGeoWZ/Tp+gV6B2Oa0ZLgQz/Y23cEriH/wjULiuBOs2ePiybB1ffYO9jFeH94vfE/7w+F6X5z+7y+I+up6uUz3fwE=);lineShape=1;" parent="1" vertex="1">
                    <mxGeometry x="438.94434136761583" y="221.69118116728578" width="4.423241410467959" height="2.0974818362701924" as="geometry"/>
                </mxCell>
                <mxCell id="276" value="" style="shape=stencil(lVfLctswDPwaXTEUSPBxTtP/yEycWlPXzjhOH39fqLJSE3KW0k2WsSS4WCyhzj+87Z9edx27t8v59H33a3i+7Dv/pWMejvvdebjoU+cfO//wcjrvvp1P78fn6ffr0xg5Pv04/RxX+D3heufIuRHG7s/1FbH/9+LrBDgMxxtAyRTq+EQexad5uY/1w7zjfUAkX2pAIdcDgFDKFYADFYEAHyqA7ykkCLgm8AHIFNEZgk0pCGV0hkCx3kGYMkopUKhZkkI5YkBdtxiJMwQYlhK3AFynlBIVxoBYAbInFzCg1lJOJDilwBWg9FSQWoulVfWeUB0ilZpWXaIHgFxsHRQggCUl8ZrADSCVzwHREwcLKEAaQTu4ZunGFe4itF9iXmwB9N2nOYPbQwCA1rXY+IA2oLggCUnJUTZV0I4G8eoAC10w4HQ0OZNQgsrjSJktIIIyB7bGrQABKUm2LtYAJE992ZJSFiphy6G1PwtvoVWrypvqpn/72jIawih8pz+R8rLWYbEDknbUlHoLQM2jV4ERd7M/IyXZYgGs1s6LQ4BS9+5OgyIbUy0tfRJkpOsbkrARb42X+eJYeTOIdeHG1aPxdSs07jaZNbPy8hSKtaE2bmeZB5aV179YPhvzhdiprTHAiBVcY0JSp6jXb4xgwfLTmPGCzacxRHo7sDWmVLb6aYzBva0XHrM3TvHKRe0Pbnbuz8TpTXhElx/b5nLQQpeHdcQg3qvUk4l3qLaeis0HcS/RWjqOj2nJD8on5ZmOdedVqwl2fcTnOCdbflC91Cplixw2fzSuAOjD/2/Ul+FwmD5xb/+337T6avoe9o9/AQ==);lineShape=1;" parent="1" vertex="1">
                    <mxGeometry x="405.8219860348087" y="222.63722600915435" width="0.31889276588014875" height="12.843258837486848" as="geometry"/>
                </mxCell>
                <mxCell id="277" value="" style="shape=stencil(lVbZbttADPwavw643Ps5Tf8jQJzaqGsHjtPj70tBkOql42n7JsszqyF3eGziw9vu6XW7UXm7nE9ftz/2z5fdJn7aqO6Pu+15f7GnTXzcxIeX03n75Xx6Pz7Pv1+fJuT09O30fTrh58zrFTFNLJVf85sQUOY3n2fCYX+8IrQC0ZFQUPJ9Qo3ocSBohsb7hGJ/54EQI5RIygktDISk9AspovWBkHVJw4cEExDHoEtEJUHrKmAh1ILQSAyoI743FBYCahvxHbmTCFBlvDURiJAIkG8+0IiggFw8PpDzBXX0nTmxkQAEOgbQC2JgeHH4hEyuWBCcfkUtDF/qiA8IxBEBacS3TuNVpObxgcQbl+tf8Y2en1BuzleiPy9FvsYrNF67ne7zk4n+gjZWWI8IleLd+Qmd3Jc1qbFHmH8q1eP906AEnxGc/r70jDv5l+rxndSXoucbPPVbu6nfROulNx8va4ni54bls9F6EdfgLGP0fJ+f+Bc96aYe2VgKSzu+8rMS/R/iiT9DW9rNOjIqKjGEdl9hOUNIxEmQR4vaXBNioRw8IVqXIZKKmWgkWJtRQqhh6VHrmMm0ipuVgQsahUwNM40bxEIFmSlDd3g29WwISXP4wM6v6F5PJmN+muqjTQMicakVrY56bFFh5/fFY+sVozD91kSqyz/Lz9XWsNoaiXhu2hpGQZWuEVOXcn2FX4BNOZdQobufEdygt4VXWEr/d0P+B4I9/FnIX/aHw7zPX//vF3h7NS//8fE3);lineShape=1;" parent="1" vertex="1">
                    <mxGeometry x="401.19929600632827" y="223.59863958730796" width="4.627535808871164" height="2.873100082891744" as="geometry"/>
                </mxCell>
                <mxCell id="278" value="" style="shape=stencil(lVfLctswDPwaXTEkQYLkOU3/IzNxak9dO+M4bfP3gepINSBrM7nJMlZ4LRbkwHcv24fnzZDCy/l0/Ln5s3s8bwf+NqS0O2w3p91Znwa+H/ju6Xja/DgdXw+Pl9/PD6Pl+PTr+Hv8wt8LjimnEZTC28eLSLH+e/P9Yr/fHa7sY6DEBpAy5QgAQqUaQGzEsg5IQtwsIFAEAE4UsgEIJWRfqVn7RDmv2+fsvx9IQMYlUInOPgRgX6l2F89HjW/aS5nqN9lX6iCeyj7+WGGBWqDselyogAy6BmB7LImkA0CjbnssQhV56CQWUBNFRLswF31GYN6pi24BLU+NWQNkC+iBKmicZl1sI7rWtcC6uunUT1QEEIrFzQ4mX8/UbOs0LTRtnaladqtTRlknT+8ecV2V/tZDEwrYQ7B8rUoXVCb1YJPWGWHAJgU4bkidCLlWpWYbIeoBhVQWIqZkAkI8Vj15QEqQTMXNnPYB6J5yTdxUF4ooaR0I2+mqyo0nqNukq0DpGwE2h5amIFd1w3GpTZ1ZS7pZcdUJiVj7mpsHfYOSFt8HDbIh8hVK3QNg0rqwqg8po8Z9FaBS6uRY5yEALtXoPZROBciMaNUtvUukDuitW5TtiOYKxVXXdHUAgZ3Wc0BhD0CN4+5XUG7QA7NXPk0aHTV084v1UPK0im+vRQ1gITMCyhrjQvnmHXO7rFOGV4u6AyotqDdKMchADzPiv1+AZMzHhCtNymA8ox82ZTYDey2fKyh/Yp9cxxpU4cUxpjA8Kam9XTzKuQLqGYht/JmnjFbs3WJTlicQT/THf8ZnyfksPtsnuAe/eoH53F4f/t+Wnnb7/eWydf2/v13pq8vNjO/fAQ==);lineShape=1;" parent="1" vertex="1">
                    <mxGeometry x="403.8006586191834" y="222.54744603181132" width="5.486249024051317" height="1.0995666560085713" as="geometry"/>
                </mxCell>
                <mxCell id="279" value="" style="shape=stencil(lVjbktowDP0aXjWWbTn283b7HzuzbGFKYYdle/n7Ks2QYAkO5S2EI0s6uljKKj19bF7e16sYPk7Hw/f1r+3rabNKX1Yxbveb9XF70qdVel6lp7fDcf3tePjcv06/319G5Pj04/BzPOH3JNca1WGUiuHP9CZQKf9efJ3wu+2+x0fu8EwR4SuF0uEjZQH4Yu1JNASAF+LQ4YUKwkcqrcNX4nobXxuJ9P4y5QYExCpgIQEMVabQe6AhSEDDoOflXkCoAQ1Ffeg1pHhm7bpAotA7nSqVfFtACqXUCWShzLcFsqNVIsUBCEQa+ryQRiHeFkiFYuwEisDMS8Fm0oAjHfP571mgUAMC3M4GzLnH1IBJnKnVXkCJBk5rbrIRaDA1qs09rY8GFCiFfTVr/UVQPsna0wbIaaBs7GmQoXCm4xIPz4996XAIZwpuCHBxCoDDelpzeECo4rPFV1BpimeLHyBBNsCNCsY7QgXjB4vPIOGUT+dvhvxHZ08CfUITwvl7B1+dPaBxaYJ6++H52eUD5lNcfHG8xPmL8yG7eFWM9wWWIJ/i8LBeYm/PfxSkCxiueHaENlxgzoEKA3ylIHGD8AWJ8e58wXhnP+64np8MG9Zj+GjnuYYvSXENN0M+Bztu6Q2G7OFgDaq4Y+klXIyAUEUaGnE/DOk1jzToIGFyWgcJATUQ5xSbBQIkNemA2GddyfBezdGOKlJJgNM60JlGLQzjpiOjSeysJoHOW3QC7DXoUMrABx172awSDHcDHazNbrPMO9enp3lXmruXNgu8HJj2qMtBAN2l+nULR1qzP/UX1ADby1hdPV4NQvjidokzy9fxs/plX0QM6b5Ye4YC3DzGbpgNPuD9tQSLB3k94u1+jK6nsfs7ezC+8mP2uH39jr8tGjzj85s9n1G85tt3waM97uJ6XwTSHQesAvgB4YoDAgaWZZ65SLg7AXvwg8kdvD4sX2fetrvd9HHn8n/7NUdfTV+C0vNf);lineShape=1;" parent="1" vertex="1">
                    <mxGeometry x="269.1571770931736" y="259.34788437316615" width="32.65858597006778" height="26.311966612182687" as="geometry"/>
                </mxCell>
                <mxCell id="280" value="" style="shape=stencil(nVddcxoxDPw196qRZVtnP6fp/8hMSGFKQ4bQr39fXW+cYh23QN/g8HLSSlqth/jwvn162wzC76fj4evm5+75tB3ip0Fk97rdHHcn+zTExyE+vByOmy/Hw/fX5/n729N0cvr07fBj+odfMy4EGsuEEv49P4mU9O+Dz/P5/e61Py+1Ox8SpQgATDV1AEk0BvyGHhADpQQBMfeASuEuQBpJMgAI8dgBcqKKWIpUuAPox19cBmSqfUhqOTAAFKqxA4yZGACsrrGndaw0VgAoLcUGKJEqKFxU4r6VitFa1gHJSHSASgpYypmkT7oGyiAk1cbJB0AoAZbs59pXunKrzGWA5cALAJiHqjRmn4OApGuhGDwAhlQpiU+6gEobwNWhxvZkFeBCyhRQ0pXEhaQkqA5lUbiRGOWgFNUDFAFMtooHoJk2EnP2gIIA7KXVAKj5rPudLllWKgBQKC3qcAXghMxoyCiksggpNqLXcvCVliY8ayypq7TNNAKIFzIDMAIkEtcajOdBKah/QwC0To2w0CXYfCbuwbOU8UwX9XVQtEWZFxOUmvKsvSK7ymXc36U5hbN2LYgm9VbAiMtINnKj/XxGQdZ3AzRR6AfijLjLO8jMQ2+AjIcCxNLMSIyeJjSkMra9fFbrgNyGBdAnMQkDchvixdJWO4McTLf6iEZta+/yZid15oShwRJS534Erriw8GOZIoiHm0W90fAtzl9xlNwU60bLavpzlydmz/8V072YfWzq2Q+BtPqtHFc3My2dlWK5RWtiCnvBcWnkAildOG2GxsIEorjjaNrVLyd8fPRGCgdT/U0Hp2pXqch3MGn3HLdlrhQqtJVyWx/8x93xynn78O+i+rLb7+d77vnv/mJrj+ZLcXz8Aw==);lineShape=1;" parent="1" vertex="1">
                    <mxGeometry x="268.76863201218566" y="282.940522205166" width="2.0264706033613797" height="3.4231296761555163" as="geometry"/>
                </mxCell>
                <mxCell id="281" value="" style="shape=stencil(lZbdUttADIWfxrdnpNX+XlN4D2YIjYc0YUKg5e3R1mOIlkSd3vnv88pHR8c7yc3L9v55MwV6OR0PT5vf88NpO8mPKYR5v90c55MeTXI7yc3j4bj5eTy87h+W8+f7/mQ/+nV462/4s3CNUEKnAr0vV2JCan+v3C3Abt6fAxmlGCAJWnWAhsoGyIKaXSCJAUoEeyUltGyAqis4QG2IFmiMFh1AVbIltYLE14FCyFYlJgLRdSITJNolGtiRKRGq7ZzqQE4jooBtI2oFO4BUkAVK84EMsrrmBhIHKGMjUkV1VIphXCGqW5zO6W1pFggITklaQK4G0CKzs0KuaMkCGSE53lARrZlU6OB8dG+TXUFbGfyBoGFG6V8zykPjCLFcB87c/OkNWoPh8hI6MBbQofJa3UdysGtbX3FZJh36YUg1GJySeqzYkr6i53KrBeXbjFYnBjQa6wBofHozmhCHoVZZHTN1QP4HkDima09Dx0whrm7+BBKyE0yc1rQ+i43ofHRBtW4tDHHaEMYwzrym7cXn1ar2AxKvKXLteWuLSODg1ZNsYgRfUc0TWz831xQcR4GYkZweBxmBBHEmRz0x/Bm0AY6garpBofHfpgdfO47HebdbNizn98cdil5adjdy+wE=);lineShape=1;" parent="1" vertex="1">
                    <mxGeometry x="271.5785337409525" y="285.9402681066251" width="0.4191037900396471" height="0.4203894602674154" as="geometry"/>
                </mxCell>
                <mxCell id="282" value="" style="shape=stencil(lVjLctswDPwaXzEkwec5Tf8jM3FqT90447ivvy9UDx0BlNbxTaaxIsBdgIA2/PC+e3rbboJ7P5+O37e/98/n3Ya/bELYv+62p/1Znjb8uOGHl+Np++10/Pn6fPn99jRZTk8/jr+mN/y54BxFN4GC+9sXvP+/8PVifti/zsw9haLMPcW8bh6oZWXOFOO6eaTMyjxR4HXzQs4r80K5Ad8lNOO86/4tAyIFfTg+kQf++0auKsB0nMAlibhol0LuQS0C2JPXR8QBMsBloKARF8BBItcUIGZKgIUUiDUNiamCU0qte9wBWXgI64CcKSQNKJQcEEagZJQhwqsAUMlrpmWlpHVADVT1KVXuqbEMyNT0DtMKcKm5LrUOkBUHgm6BstaSrDA41hYpGUCEyd+S1ZKsRASQEDVxssJArU0y2OxQyKMYqk3R6RWABwFknaKy4oG8W6NqXGqQafm7sQUwyIcJUC0gAvF5d1XCDJGAT8sIVCwnp4awK+JaAN4CGgbU4ZwaPtii1TQLaw1h5SRb4KhTGwBYHSkMxwS4m6gdyC5YHbFYQMbnOu4QbwQ9xMCoNAlg2CHgHUYeAg7aUD0BUB1YElPAPIxy5Rv6HmKAxe8qtXmSAi2tJOmNIEYx3VubKqZ6rH4Nu1S0S59J0nY3Yiw16Fq5G1BtWywrBZEtbVa0gIBiKBRN0hWc1pmKoS53btZuawtIuCBHYpN0EbsUbCMnKxUovLbe5816GtTISY9kbutaYC2rQxMkfVlBnV+hqgEFFw7pLYN2SXpL1MhJ9+p00LlCeUt/HDRx2XexrHXgTseQhErAQ4z9jrr2+KU7uTZFGC3JFFFBoWFn212ZU1DdkEko6R1kEkpoEq19yJjNWnD8Y1vAZZrL6BKyYvW+X8XLRFPR769w9ot9DPsYdlEfEGyV5F5xFs2drUce5r4UXO27g/2kmLM1B4p2dlB3FIE8h2vQ9cL02bej/tzZdMQjupgnaw4yxdnp+XqyK+ZmyHMwD52ddvBF6ezcfMuc7UFiZ9hqxkGa7vrSdNNcHj4+ar3sD4fLN7H5//YjmCxdPqDx4z8=);lineShape=1;" parent="1" vertex="1">
                    <mxGeometry x="304.505712262319" y="258.9650729461345" width="40.507035920375905" height="27.79172702316161" as="geometry"/>
                </mxCell>
                <mxCell id="283" value="" style="shape=stencil(lVhJbhtBDHyNrgSb7PXsJP8wYDkW4liG7Gy/DydCK0OOVYlvWqqmuRSXnp3evDzcPu93wi+vp+OX/Y/D3evDTj/sRA5PD/vT4dU+7fTjTm/uj6f959Px29Pd+fvz7YJcPn09fl+e8PPMq0w1LSzhX+dfmDr/+eHTGf94eFrjM6Xs8JVGBvg+HzfxSanodUITSt0TOkkHhEK9OYIoNXTCoOFdlkEV+NAz8XAELdCH3qh7H3IiBicM+9ublCulAQhK6k0qTK0AQqFcPaEQCyA0Sj6spdMAeRidqjepCrUGCIOad7pWEqC9xEzsxVQHZeTEIC6OYPIqyKY6/74QCmkFBPPR10NrMw7XtKHqCeYDMKlfEjsJ9gsqOXNxBIJAH6rS8CZ1haku1gTCCWXW1JuEnEl8WC0M6ATNsyInYTApyLRYF/D6XjID8pAqNa8lKxF4AiUfJBPXQGqNHqzke4UQgrocANLGsd6WggIx5Sg8wxdgD8euZ/gEArQpTusIDT+/RTxq9GZ/eH6DCbD41IivQKQW/xTxqLmkODkNr6CQTUAb+zPIr8wZs7YfxEeolxhPpDedI2mFV1Axhu8R30E8N23I9CNgagrVFvEF+is94jvoi2lau64v8PxEusWD+PA8fW0PrN+8qccK9bztDwJGPsedYskXiI/hNeKR/plk83y0UfAbesb9IeqnwUH5Xnwqc038z5EheTNjGCpadTO68XKQdVq8GqwCNFR0TvbV6GZwgs36FAgJZq1t2pbtK4LWD1OxeII5jbblEgeZ7Vxo8FnUwx2kZVK0mmps7eYVGpVjs01UvKQZYXinbZdFw8kI4sVnmWmgm5oP4YQy5tp2bTPNXnyl4kuIFWi4IiTY4HufC9Pl1tJgHhYxe5My3kxNm6EetFIH8japiZeGWlsAiWsarzm2STIgLEII99MBa7rWOGdThvKuKZrU4bWotNhYZcr9Gj7cHRMshgVfAj4D4Rk+p4Bn/PygO3yVNXx4pcBwj7J7a5KARw3M8HkEPLS/T0mu8ChfIy4Wl0l9Dd8iPqFXNJvFmuft6xpee8AXYM+7Xxn9E28f/r6fuj88Pp5fb63/j++z7KfzuzD9+Bs=);lineShape=1;" parent="1" vertex="1">
                    <mxGeometry x="341.4517816693351" y="282.00417288739686" width="5.546476710168918" height="6.502854971514883" as="geometry"/>
                </mxCell>
                <mxCell id="284" value="s1=abc&amp;nbsp; s2=cac" style="text;html=1;align=center;verticalAlign=middle;resizable=0;points=[];autosize=1;strokeColor=none;fillColor=none;" parent="1" vertex="1">
                    <mxGeometry x="186.44" y="288.51" width="110" height="30" as="geometry"/>
                </mxCell>
                <mxCell id="285" value="s1=abc&amp;nbsp; s2=cac" style="text;html=1;align=center;verticalAlign=middle;resizable=0;points=[];autosize=1;strokeColor=none;fillColor=none;" parent="1" vertex="1">
                    <mxGeometry x="314.57" y="285.65999999999997" width="110" height="30" as="geometry"/>
                </mxCell>
                <mxCell id="286" value="" style="shape=stencil(rVjZbhsxDPwavxISqfM5Tf8jQJzaqGsHjtPj78vFVsiKqmftom/rXY7FY0iNtJGHt93T63bD7u1yPn3d/tg/X3Yb+bRh3h932/P+ok8bedzIw8vpvP1yPr0fn+ffr0+T5fT07fR9+oefMy5UKmlCsfs1v3GU5hefZ/vD/tjbu94+EldgXyiUzt57kgABZgGfyDsAyJR7AHsqyKVMUXpAIfEQILkDSFxziXuXApMTCPD9ClOeQZais0HHSCUDQKTqO0Bi8vE6IHnKfZaSJhpkST+X0AEyUyrXATmQ64POmjeQ1uJI+qCLcgnEUBKlfoUSYR2qkHM9oBCDOtTYctIA1cE6VK10H4OuieqggNK7pGsG4JJ3zgZRK0xTLbbUCohgCKgHLlhARoVQB9gCUI8WHtJUqWIySV+IRR7+zlclx5CmCqKO1RJ8CgJEHQPlIeoEoo7ac9UCAgb8KewCgMZxFAoDwIG8RqVfP7+VLRWNgdDovABkVDlPSQYAA0C183sFUDI5f49L2pLi7glam3TsIJTWD+YsC4cBYSAfokZNFO8iX/UUxh5FTR2aUlg2EADk1D7f3KO17bM3jgHdterYo6ghUttybhxlkSkOADQstUfZW4D8VwBTMZWLrc2vAYKZM9IEyDWXkqGrgw2hKq72Y0M3UkGSie0UmLZqUDhJbdAtxQAAsDJnlBsgSyytXxaCBs0ZPwjLSTKhrVrT2rN1EmWgDolCz71J9YF2YBvBiqxkuyWu6NaBRyvCmEnuUt5s239F2nurlVbODsqYuw4nzv4/PvwMQgyfrZyVC66NmivJGU5uSOVpv2RjzojM6o2196BUmmlXjT2kmk5qsfYo2mwnO7YXGf1H/kgd/UfxBqFo7VE+wyBCcLm0U72NF7HhHw7yK/b68HFr8LI/HOZLh+V3e8ugr+YbCnn8DQ==);lineShape=1;" parent="1" vertex="1">
                    <mxGeometry x="214.84168841694924" y="308.8853546530725" width="0.37841031447381585" height="14.295103099375487" as="geometry"/>
                </mxCell>
                <mxCell id="287" value="" style="shape=stencil(lVbbcttACP0avTIse39O0//ITJzaU9fOOE7b/H3QqFIMqk6bN3l9WA5wgB3i3cv+4Xk3CL9cL+fvu1+Hx+t+iF8GkcNpv7scrvo1xPsh3j2dL7tvl/Pr6XH6/fwwIsevH+ef4w2/J7teqKfRSvhtOgmRynTydTI4Hk43Bi2RdGMggSRsG1SmXoxBFBLgoTDVYAxSoN63DVKnEI1BjpSAh5ip2hhKpVhADCTZ4HujAmLOM98F36kIiIBytUVgJmYQAYXkHVRAKFBbBVBBSpmazWjXBIEAmIILOFOqCP8nugWvFYP3S7P4QBHydwVonTLAC7EtQGskgI+ytRJtdT7ZKLDLf1sk9fce8IJTfIUCTcXzbw10MUUbb2dKID96m72/C+wwxTs9qMSBnpvnr3MpAf51br8bPQeYz7TqlwjwmTh7fAf4uOLTYf5lNVB0hoH6Bj/htB8bwPMc3U0+A9Cn9qPjn/6B93xkztgG3o101RuqV6Bi+131jAboZ/FxNbByoQoEnSJlG/G4lICHnClaSqNPkNKyVGhZrEwF1LixF3Ujjtt4HbFBDJ4pgwhUAlIdngGfj5F/gwc9r5IsyeHRElbJV8tfuwLd3/z92nUI32f3S8XmtbyFb5ZPxj3Mq61X5rWw6cBtMcooQbrjrIKCSg5Mob4a6yHAttESuL0aBL4jPv28/A8D/fh4zT4djsfpMXz7v3/96tH0co737w==);lineShape=1;" parent="1" vertex="1">
                    <mxGeometry x="212.75602692995693" y="309.6434116853829" width="2.0919477182912183" height="1.4636282151564803" as="geometry"/>
                </mxCell>
                <mxCell id="288" value="" style="shape=stencil(rVfZbtswEPwavy64XF77nKb/ESBObdS1A8e9/r6rClTMVTVFgb7J8oxIzs4e3MnD2+Hpdb+L4e12vXzefz8+3w47+bCL8Xg+7K/Hmz3t5HEnDy+X6/7T9fL1/Dz/fn2akNPTl8u36Qs/Zl6kyhMphp/zi0pafr/4OMNPx/MdXCnlAS6kvA3nQrkNeCYGn7ftuO8HkgDwSsHjA8BLIRGHr3kbnxLJKE+i0rbxOZK48wZqQKASKI4LcIMrFItPGgimAYMVavYSpdAP9UdCY8qjRpmpAVFbpaYDoWQqQFVtpGEgtEYRHFqV8riCWpwjJOh4aI0UFBPKSEgUMaGMgdPSY7956FFWe8MJEsKokq0paEuFNHqCIkKmqp7QECFRTZ4AZRVqYz5ohfY2QnRbytB8RghuS0IFVTAhdtZgShUSyihrU0xIPUwLwTIEbSn7qtEKNWTvQkk9IaGMq96tRqgocG1FqLCQvXvzTiXoVrNa9XFACcQhrBJCKCNdlapbIvd2t0Vg5z4TDrmvkawTAiV1Xfl70WEr1DwWpjsdttwUml8iCfQru0O03pX+D6FFamPOVeujYEu1+MpUrH4jQvB+taYVgTeK9Axb2iJTAIHIxdc+ibDxJvWzT8yw8abYd7wQApyWJHtZbd5CZppGheoJqAfxqgcZIYJCw0zFrWApAs6Q/ChgI2BEE1zvaHf4DPEuGQwvSKK++oJnWIqtd4w2spg1UMVs3nQDosIKE/wAOoUE6Bn8tGcBExDhVU3lRBkE2Bzp9h9hIwm9Qi947h7c0NOXll7DN+CuieDp+R9vO3+F28P7xerleDrN97L7//1FzF7Nlzh5/AU=);lineShape=1;" parent="1" vertex="1">
                    <mxGeometry x="213.8516557347461" y="309.10994448830525" width="3.268632960990999" height="1.6780646500650012" as="geometry"/>
                </mxCell>
                <mxCell id="289" value="" style="shape=stencil(nZjJctswDIafxlcMSXA9p+l7ZCZO7alrZxyny9sXqkayAUq/k94chZ+IfdGGH952T6/bTXBvl/Pp+/bX/vmy2/CXTQj742573l/k14YfN/zwcjpvv51P78fn8e/Xp+Hk8OvH6efwht8j5xNlN1DB/RmfOCrx34Ov4/nD/qjPc1LnC5UAzmeKRZ2XN/gMgEbOK0Akym0dCGxvEJEYAZVKVgBHKn4dkH9HLVIM5Oo6EB0FAzQKwKoxk2sKSIlKWQeSCKDdlj0VB4BM1QDyBIiUGrWqHe3JAyuJABw1ECkBKwnQtJVKwUCgwAqoDsaSAFUHaw1T+C4DTMncECkAP+RIXitdxZVIpEhZB18tk2eWgUwhaKBNAb8MzKE2Ac1P0bUIlEBNi9QCZRAa4qamRWpiBqBDq9YP8iQhoNnQGF4ByowA9oZGHnha3peLBZBZmxSyZoHCAJBYihZoSAdnY8k7N6X5IiGxlrm7AmRQZeJqgQrMVOducANkoESptmwIwMBMAoTOrkhpAYpRevblmg4hW4AREBZu8ECHmqiaYCrYD8120QFAwSSVzHcASOomIrVOB5wQvZUiztFcLYDa6E0037oaFJohh/tgQkkqnd9bICOtpUV10VdB/ZZayp0O0NUyH+kb7mZ1N24MVyDAL1Qa5IkipS5bIKKK/1kglQ6IcIpLc8uZAYaxEWcBbtoco6Es264lWYjGDQG89tydVi1A0bFxZxiIZRouPjhuCFDN9CADDbqhdje4KafWAK91kG6fkdLFjkwy9mVQygazdoNlQDdwN+vmaWJZntervUFGTTQ9cLAzlozfFVgpyFCmb5BwZBCtssNErYOsEMgPPtp8kC2kgpxuduWQLSgiR1PSHWhY/ECl9HYQGPY48H5pup/ZE7vWgNdQZzcBRwlEhLPN0MEN0duBeFZmOXymnnQ9jqaFNNW163FU6LJN+Tvdw/oJH/diOCs8ksZ3OxhW1rONY2xLP6/iH3RVshMtjoT/+N5x57z8uH5cedkfDuO3mdv/248x8mj8kMOPfwE=);lineShape=1;" parent="1" vertex="1">
                    <mxGeometry x="268.4096917535378" y="309.4613535951298" width="1.2093092744428304" height="12.658450349516139" as="geometry"/>
                </mxCell>
                <mxCell id="290" value="" style="shape=stencil(lVfZctswDPwav2JIggf4nKb/kZk4taeunXGcHn9faFwqBmRtJ2+yjBVx7ALghh/edk+v200Kb5fz6fv21/75stvwl01K++Nue95f9GnDjxt+eDmdt9/Op/fj8/X369NkOT39OP2cvvD7ihOhzBMqhT//3hBfX3y92h/2xxv7JlTF2EcmkXVAbVQsICUqFQACpWgBnXpbB5RIXA2AhSSuA3Kkng0gC00/1wCciLsBFM0SCDoxcTCAqnkGLsVCrRhAaySgDjH4Ooh+ooPCjaQP+65ZQAc0ijZmqSTggFQpO480bSBmbtSajblQBczI3detzp+4T6VIzbpUOqxby1STZUaHJ3SmbAHM1EBae6bSPSCAtPZC3VJJ2SggS71RCosTUAwzl29jAIXrnZKLIVMLECCW3VxGKVfYHSi4INqQ1NoRzRVCOxU4QgHBkok77BqaJgfIAUddx/dmQBytba3UuS8AiBvZt0p1CYla6RoXgIi4MUv4JksBKEi7ijgyNdiXJoDtAlyHptZc8uwrFBFgFtgNXQPWaFwIIiHJaeEcvxPslUoN15gU0AsmX/QuZeSSlin5oBnroUWf1oJG1h2NKuPxEbIY1AmLesm+jNOUrUvK74xc+iygdS+5UimidaaOOs1Dqw563V9ndAZZuupYRBrNiapVkDCsA8dB/5tdQEBaU/Ablg4ZpNEYRxLnLfGDLXcRCy6pppBGgz9AGpy72ctBApxA88o5F0EVDfzXdUls1SruGal6QNEWAHqGioutS1r4DFzKxW/e2mTQXFfmubuA7rFohlbd5K1Lusei+aP7VbHqqaMud+1Fe5YtW6ACHNIdOImzj4DYutK6PR2zVEnG7L8PMqq3K9fAwliS79v3ofQ5oXB1U3vx9nA3XAgZs1rt3T7M8FYy2bsdaWyva/bZdVOoSlneAOD31T45GUMFfPY2/H97ffi4er/sD4frzf32f39V11fXaz4//gU=);lineShape=1;" parent="1" vertex="1">
                    <mxGeometry x="265.97452072846977" y="309.6404096401704" width="2.484024984911836" height="2.403397397900638" as="geometry"/>
                </mxCell>
                <mxCell id="291" value="" style="shape=stencil(lVfZctswDPwavWIIgBee0/Q/MhOn9tS1M457/X3JauSaULWZvMn0rnAtAGrSh7f90+tukvB2vZy/7n4enq/7ST9NIofTfnc5XNvTpI+TPrycL7svl/P30/P8+/WpI/vTt/OP/oZfM0/IYidJ+D0fBLL09+DzDD8eTndwjsTZ4UPYxksitgGfSQFehYQHPDNVQIiBNI0EowQiiEZxtCBGXLcJqVAdU9Rt2jYhZ+IwEBKTlW1CiaSjS1moAkIVimMVilLK2wSrlEcLFigLIBipjASmDLLUCHUM2pQCyBKHm3JujEgZMLqJUUuWFy+3CNERChRTS5MrdTsx5FKl4PJqVCIgFAp1lGvAHdRi5LQyoYCQVqWrsKd72qtPU8EEWRVCkPyinwLdJoohUlyrCeU1rrTR9IoI6T8dkVCpsxdTNayNQlFXBIZiUvUuKUprG1zsgxbcpLmMBMFB2zK47grHSBqNME6mluiCLWRHKKSocOY7qA83pKW6bJy7BkIbojtgnoDmd5fGqkUrqkOiVD0BNtBHCcX8DqoMtVTa3h+nRjtB07itqDTOymSw0iku2rzt0VY4tNqzH2RaYdBaSEa1Cs6SrO8CDNeiqG9RTlTxfUlHl7j1NJDG2gBDA60KxeMLeP/tbXd4dJlpAyV4/wsYYmE1YaA7wVesSQJE21bl6H2Bzq9uGHmZHRtwdhe9d3yPI1yXJt2Am9Pa0kAbiU/uIgy3vvgNy8vBBvxD1/534e3h3xfGy+F4nD9Q7v/3XyTtaP6a0cc/);lineShape=1;" parent="1" vertex="1">
                    <mxGeometry x="268.40453291683514" y="310.20629830246907" width="3.173989803366794" height="1.8238084020151746" as="geometry"/>
                </mxCell>
                <mxCell id="292" value="" style="shape=stencil(lVfZcuJADPwav6qkuec5m/2PVIUsrmUhRcgef79yuQyMxjThzRj1WEe3pBn808f25X0zOP44HQ8/N3/G19N28N8G58b9dnMcT/o0+OfBP70djpsfx8Pn/nX+/f4yWU5Pvw6/pxP+zrhaKeUJ5fjf/IapzC++z/a7cX9lXxxFaewDBb5tnwNV39hnYmCfKklo7IXJeQBIlFqHRD1KABCXv8+ASrkAgIbMDcAl8nIbEMty3gLwfsnyOiBQjm1ShWIFAKbUuhQqFRB0UI9rA1AnPQg6OJKWF5po5JLPVNvCaekFFE5zkl0DKEw5AIBQNYBEArikAGnTWnlh7zpAud+StSqXInapDVr15O+4xBYQ3W2AK1afCsgIEGyWFFBApVXwrgNUAJBI3HJJmKGoVcLcpamCvEZKfQyAS45csfYJyIHJd0lFdeaVqjlQBKFQrT1KULDqrIUKOL/YJqz2CZXMU+gBQAmiXyiPAJx+IT/iks6B/gsoZhWn/YImFalZqEQLQFVTQEwWgGjhlGUdrxHvdHC4jhiQ2LK09S8qRxIVMw7viVNWOgzSf6LaxwDsPbkuSaiD9U0Yt8hzeF/swY/aSyc2HQpgTknnPy8LxI3mZYSgY43RaLbNa5qbQAcq5dZ+GswoXke5H/2A1cq52gptWi6QDMROkHBHBpGklUEQ6JIqk/sVDC0Xzkr5otV1QLQ9e1ojgUtez2uzNC2qqB2VblFluFEFb5mXYFajlqEttBIDOJQySRsyL9Rdt+8C4GUMrd8V2K7yupqAjGZvF3NeLg/r9spTe9dhcL7qqlh/0MApYcUeCK0UuwGf96RV++rIexsv8KfGhV9X+QT1rbn3H8l46ps2nxHw7WoSXQAZJOjRy+l9e3243ITfxt1uvkhf/29vzvpqvnX75/8=);lineShape=1;" parent="1" vertex="1">
                    <mxGeometry x="351.933434357446" y="305.8130029330766" width="0.5688709684371437" height="12.948857517426783" as="geometry"/>
                </mxCell>
                <mxCell id="293" value="" style="shape=stencil(7VnLbhsxDPwaXwm9KZ3T9j8CxGmMpnHgpK+/L1VX6oqyxsith9ycjWYlksMhqd35m5eH2+f9zpmX19Pxy/7H4e71Yec/7Jw7PD3sT4dX+bXzH3f+5v542n8+Hb893Z3/fr6tK+uvr8fv9Q0/zzhfyIWKcubX3yeJUvrz5NMZ8Hh42gIiuTICCrEDAEcuD4DgycY1wDGxHwDRkDcAEMm4ERCoIIBr72uAZMgAgC1U7AiIlIDRlsnwAGBLKQNAoDh6iZkCOpK4dbQhewq8BkiU0ri+UARhYLIjMUqgZNfroyZSyeTLen1o/ujrC1m43li9ngPgnY6xNTjIjmLSGxTgIEt5Wp9QxMg57aACAmYoFb3eAAcZbXDhlheL9UadP1IGAe7e2xAiggAYsspe36RjsT6o97v2hsX6rAhnycL4lvE8OUHCRc2HbCiC8xQdL3Ytpy/zQTJGiYqjBBw6Myg6LIysQxC6GK+0OsVR3B0FDwDcKNMADquQHEBFTdyA0jiIDCqaQlkRl6hiECig9Yn8WG2ERcCAZJtD2nqsKik1UegeIoNk12qdZlgtuZfrfn5PGdA02+aPfqBeSi4DErlxB2+h0EkeKqmuFR/EuEypI+WVAe2qMo8sqm4GUdtof0cwLMiyRR4reMrXAEovUn+yAtjRTWxagl8GZL2DACLgthSAwhqAFKaw1mABeGRDmhojqcrIS2nyklRBvINXcRCrkNEzIF3bIU4AlNLV6FEChK4WGS1uHTUp4V6qdBM3AI8Cl3X7KICAdhDyeQ1g5NYyeSk2ZV4mUNZuRTZczlFodZkCkTFdi246ha6oJxGAmzLIIGXKxFEDIiJTJjslNRrAhBt6UjCwwtU2cNrhCr/TpGQOZ9DbAJlbZ90rRIJJLbONn8ZUB/jNU0JIHQ2ojnqtZLWwgx1S70N64Q2wX5V8UZ2GZAg4kXQamkrEoMZF6cXGA8m8AFRJhmQzvt9iIoUu7RuLUf0J011BbfIBL4LkigpChunmY2vJOy+4CdtlgNFFVxpMJBm1fRyNFj8zGvOynjOqKKHeZJpshbzoRqWGaQRkbDQ3Zd9MYgbo6vso/z7K/9ejvNUTSTGw24naP1JPMkj6Xio2l3EFdVNUVEm2MGGsu9RMgQ3qXcEYgVjaqL66gFQdZPQwBBID1UuJMCJxl6xU1aDO9iAJnHQJ4w4+U0D3HUWngQ/N0Zd1wuuKJpMqLB+sLwtqvQHEE4C6IBGuoMFTTPR2AqAdsm6NHMNc9v0ad2MDSk4psupuWgCo+RJAUIAC79cFwKpbM21gXwGUAHvXUnYJGN0qsUeXGAJIqlEI17ykOv/65QNFWro5xdbUHL0CvPHTy3WA/Pj3pef+8Ph4/lC0/b/+MiSPzl+V/Mff);lineShape=1;" parent="1" vertex="1">
                    <mxGeometry x="350.6858761761581" y="305.93039379313353" width="5.020347095105308" height="2.8972285109802365" as="geometry"/>
                </mxCell>
                <mxCell id="294" value="" style="shape=stencil(lVjLctswDPwaXTEEn+A5Tf8jM3FqT10747ht8veFqpFtgsrKuckWVsRjQSw5hIe37dPrZvDu7Xw6/tz83T2ft0P4Nni/O2w3p91Zn4bwOISHl+Np8+N0/H14nn6/Po2W49Ov45/xC+8TjitlGVHefUz/OMrl/x/fJ/v97tDah9LYB5II7Tk29oLthWr7fY5UKgRIagHqYoKAkhuAT8QZA1wbMlPCLuV2hSDkBQN8A4iRZGWF1qXE5FHZhFJb5lRglpQGjhtA9tAl78m1dciFSgCAODswAwqTgDooc7i2gATTGiK5Nuhy+cQiIPo5iReyOhi0Zj22K0ig6D8HZCZu0yqJCihcrpZLInNUi4BSLFurg5VWB1LrUvWU+XNA7bJUIyXUcU7JZHyq5AE39HWOFhABN6o2GFtABmmqaebaDUBAEBq1BAuowCVRj83GdM3DMiKT63yCSwRynU8oCKVz7lZAaSp1Ia8R8FU7rE8TKrWukDqXYJaYQrtZavEFAQLVYAEZZanYJlVAQuxzlGIHQGS6DM1bl1DPZcrVAgqYo+PrYgEVt5wUWwdGMShALCCAzfJaplvy4aBLT29Q6TGt1QJg0G4e5Hf3qHKjS1MFHTSyr0tTXeF31xCo1GMHdSskBJCOfVo5UIivA0LX1HHeF5bHnA41swKWG9nZyau1zCDo5KmYySsUQOFUghmlq/szg8Kp3DCiTGtfQJZUd3qjjVUegCxxtlpXKwO1rrO7sUqmgOQG1dYj1WSIrNEK11H0IQ1neaGqsgK9xHPG75StbBXfmi62E3dNeNuBu6LsnW3+laODm7Nx59mkq+/K4cfZJlg5XXWDDZ/enB3N+HDYyUJ89nTkqzFPoL0uvXQ1D5Ca0R6EPWBmJJ+MOQNnsj3suHnDWx4CVqfhqcQdL1fsA4XOHp3KE0Vrj6LlYmUjTiaL3RdwrZTl0TIHUuHrtxwr9vpwvVJ52e33043M7Xt7BaN/Tdc34fEf);lineShape=1;" parent="1" vertex="1">
                    <mxGeometry x="390.1377089247618" y="306.38936262833295" width="0.9585921980240073" height="13.928338258371847" as="geometry"/>
                </mxCell>
                <mxCell id="295" value="" style="shape=stencil(7VnLUlsxDP2abDW2/JC9pvQ/mCGUTClhAvTx99Vt6ptrOfek2XXBLgQdy3odSc4m3Lw+3r1sN+xe3w77r9sfu/u3x034tGHePT9uD7s3/bQJt5tw87A/bL8c9u/P98e/X+4myenTt/336YSfR1xIJDyh2P06fhOJ658vPh/ln3bPS3lPRTp5z5TCOoCFUuwAzBSBBr2ADx0gOIpIg6PQA6IjF9cBPlPor5RUAwIwud5J2RP7dUAhlzp5cVTLunwi7s+XAk0OJL3FJVAE5wcKfdBKJg/uH2wIVD5nEAIqrpcXeL5mAFt5GGJyw/kJ5JCnJNfJ+zTch9flHclwPrJX0ytd409H7Ky8d0je5FtJFAXKm/MjCfDPeL4WKfTP3+pY5idiFWuv1FYRK/US+/yUCCu+UK59/Qo5kG9+pqiZIQoVUGBKKZwtpeQEScu4NDLVC7TYA0KmhGqykPRBUO5GGoJq6GlRiZeBl5RmjdGqIQEvxUzV2KDMB/I0DVeKHham8nI1vaBSBhpybcQ8B642nWcBIq1y51xSR4NIT6U4kDsqtlptdtdEFRitAOndWnMjnDWAiUMVWM/eDYyhiHJBhQEUmK4KMH7Vbzx2U/AWgEKtFzCjy8kPa4A4aEAVpD6xfq041GIb1WQVqCAFcLFuLaAzTIENFoBayRmAtOnhX6+UcRykJcIC4K5za7oU6egsAPXDyYnZAhJo6FOYBg2CAjemt7aM6woo4xZ0tkYzCvVIA6WN0qtEM9SowxoslVW4LUznsQUgq0+sMu8jJz+sIby7SoXY6WEyArSIqwE6Hdl5lRu5nW9CiUrfF0UBIJu0R3Hv18yQv7NrjXnuiwHyd2JrdNQiBTbEuanNw0BtBH1+Ppm5dDkBAbfqQJN7G3TcQF7SeSew1YAAPGySF1ZP3WRMuupM5FDnLbZGNQ7IrT7ZtpgZa/AkZvh2kAV0mDbDt8CpLw/LRoDM97Gsfiyr//Oy6qgYeQ/HFx7qK7cbriy3ySyr2uPA/eeOuthVBcTLB8ujseD3MrFtPwhePb1lORa4I+lyW3uf+tq21/OAapMOzxWBBwVwywuh7R5NHq/zKm9eOR1+Rg12T9WsRb0vtj60kAc1pvImZA7mqDZGb++PeoDKx2LkUbymZ+Zk/I8eUFW+RiOPal77tDOvzPgBNbf3nzmlyaEH1HFYae/mq/b28hee1S/K64fTG/7D7unp+BPA8v/2zV+/Ov5eEG5/Aw==);lineShape=1;" parent="1" vertex="1">
                    <mxGeometry x="388.2283271169987" y="306.1901670457135" width="5.838803346621414" height="3.7169071421057347" as="geometry"/>
                </mxCell>
                <mxCell id="296" value="same he to i and j dono ko kam karo&lt;br&gt;different he to i ko kam karo ya j ko kam karo&lt;br&gt;tab tak karo jabtak i ya j piche nahi chala jata" style="text;html=1;align=center;verticalAlign=middle;resizable=0;points=[];autosize=1;strokeColor=none;fillColor=none;" parent="1" vertex="1">
                    <mxGeometry x="190" y="20" width="260" height="60" as="geometry"/>
                </mxCell>
            </root>
        </mxGraphModel>
    </diagram>
</mxfile>